<svg xmlns="http://www.w3.org/2000/svg" xmlns:xlink="http://www.w3.org/1999/xlink" width="1366" zoomAndPan="magnify" viewBox="0 0 1024.5 576" height="768" preserveAspectRatio="xMidYMid meet" version="1.0"><defs><clipPath id="9bc5da9be7"><path d="M 242.65625 153 L 502 153 L 502 388 L 242.65625 388 Z M 242.65625 153 " clip-rule="nonzero"/></clipPath><clipPath id="9a3f7735cb"><path d="M 293 464 L 781 464 L 781 517.988281 L 293 517.988281 Z M 293 464 " clip-rule="nonzero"/></clipPath></defs><path fill="#ffffff" d="M 610.828125 198.316406 C 613.039062 199.273438 615.609375 198.734375 617.34375 197 L 724.902344 89.441406 L 726.335938 103.253906 C 726.695312 106.542969 729.566406 108.933594 732.914062 108.574219 C 736.199219 108.214844 738.59375 105.285156 738.234375 102 L 735.484375 75.691406 C 735.421875 75.09375 735.246094 74.554688 735.066406 74.019531 C 735.066406 73.957031 735.003906 73.898438 734.945312 73.839844 C 734.707031 73.242188 734.347656 72.761719 733.871094 72.285156 C 733.75 72.164062 733.570312 71.984375 733.449219 71.867188 C 733.03125 71.507812 732.613281 71.207031 732.136719 70.96875 C 731.957031 70.910156 731.835938 70.789062 731.65625 70.730469 C 731.597656 70.730469 731.539062 70.671875 731.476562 70.609375 C 730.878906 70.371094 730.222656 70.3125 729.625 70.3125 C 729.566406 70.3125 729.566406 70.3125 729.503906 70.3125 L 696.441406 70.3125 C 693.152344 70.3125 690.464844 73 690.464844 76.289062 C 690.464844 79.578125 693.152344 82.269531 696.441406 82.269531 L 715.15625 82.269531 L 619.078125 178.40625 L 619.078125 138.648438 C 619.078125 136.316406 617.703125 134.164062 615.609375 133.207031 C 613.457031 132.25 611.007812 132.550781 609.214844 134.105469 L 482.703125 242.4375 C 480.191406 244.589844 479.894531 248.359375 482.046875 250.867188 C 483.242188 252.242188 484.914062 252.960938 486.589844 252.960938 C 487.964844 252.960938 489.339844 252.484375 490.476562 251.527344 L 607.121094 151.621094 L 607.121094 192.816406 C 607.121094 195.265625 608.554688 197.417969 610.828125 198.316406 Z M 610.828125 198.316406 " fill-opacity="1" fill-rule="nonzero"/><path fill="#ffffff" d="M 518.933594 334.332031 L 518.933594 387.480469 L 780.980469 387.480469 L 780.980469 334.332031 Z M 518.933594 334.332031 " fill-opacity="1" fill-rule="nonzero"/><g clip-path="url(#9bc5da9be7)"><path fill="#ffffff" d="M 314.164062 187.316406 C 316.375 188.210938 317.871094 190.421875 317.871094 192.816406 L 317.871094 264.621094 C 317.871094 270.539062 319.484375 276.277344 322.59375 281.242188 C 327.136719 288.59375 334.3125 293.675781 342.5625 295.589844 C 343.757812 295.886719 344.953125 296.066406 346.210938 296.1875 L 418.433594 304.078125 C 426.503906 304.976562 432.601562 311.792969 432.601562 319.863281 L 432.601562 387.542969 L 463.75 387.542969 L 463.75 308.144531 C 463.75 292.003906 453.46875 277.773438 438.160156 272.808594 L 409.105469 263.304688 C 402.410156 261.09375 397.925781 254.933594 397.925781 247.878906 L 397.925781 205.96875 C 397.925781 203.996094 398.882812 202.140625 400.496094 201.066406 C 402.109375 199.988281 404.203125 199.691406 405.996094 200.410156 L 433.917969 211.109375 C 446.890625 216.074219 461.417969 215.355469 473.855469 209.136719 L 495.320312 198.375 C 499.265625 196.402344 501.835938 192.277344 501.835938 187.792969 C 501.835938 186.777344 501.714844 185.820312 501.476562 184.984375 C 501.296875 184.386719 501.117188 183.726562 500.878906 183.070312 C 500.460938 181.992188 499.742188 180.917969 498.847656 179.902344 C 495.199219 175.835938 489.28125 174.820312 484.316406 177.511719 L 470.984375 184.863281 C 460.941406 190.484375 448.085938 188.75 439.894531 180.5 L 424.53125 165.132812 C 416.9375 157.539062 406.832031 153.355469 396.070312 153.355469 L 329.289062 153.355469 C 314.878906 153.355469 301.128906 159.515625 291.503906 170.214844 L 262.207031 202.980469 C 253.238281 212.902344 247.621094 225.699219 246.246094 239.089844 L 242.417969 276.21875 C 242.417969 276.515625 242.417969 276.816406 242.417969 277.175781 C 242.417969 282.675781 246.902344 287.160156 252.34375 287.160156 C 257.367188 287.160156 261.609375 283.394531 262.207031 278.371094 L 265.078125 254.214844 C 267.109375 237.355469 274.824219 221.453125 286.839844 209.496094 L 307.707031 188.570312 C 309.378906 186.894531 311.953125 186.417969 314.164062 187.316406 Z M 314.164062 187.316406 " fill-opacity="1" fill-rule="nonzero"/></g><g clip-path="url(#9a3f7735cb)"><path fill="#ffffff" d="M 344.835938 464.546875 L 293.296875 464.546875 L 293.296875 517.699219 L 780.980469 517.699219 L 780.980469 464.546875 Z M 344.835938 464.546875 " fill-opacity="1" fill-rule="nonzero"/></g><path fill="#ffffff" d="M 607.300781 269.28125 L 780.980469 269.28125 L 780.980469 322.433594 L 607.300781 322.433594 Z M 607.300781 269.28125 " fill-opacity="1" fill-rule="nonzero"/><path fill="#ffffff" d="M 339.214844 307.007812 C 338.617188 306.890625 338.078125 306.710938 337.539062 306.53125 C 336.285156 306.171875 335.027344 305.753906 333.773438 305.273438 C 333.175781 305.035156 332.578125 304.796875 331.980469 304.496094 C 330.785156 303.960938 329.648438 303.421875 328.511719 302.765625 C 327.972656 302.464844 327.496094 302.226562 326.957031 301.925781 C 325.523438 301.03125 324.148438 300.132812 322.832031 299.058594 C 322.710938 298.9375 322.535156 298.878906 322.414062 298.757812 L 310.695312 452.53125 L 339.632812 452.53125 L 359.421875 309.578125 L 344.894531 307.964844 C 342.980469 307.847656 341.066406 307.488281 339.214844 307.007812 Z M 339.214844 307.007812 " fill-opacity="1" fill-rule="nonzero"/><path fill="#ffffff" d="M 426.621094 399.5 L 400.855469 399.5 L 400.855469 452.589844 L 780.980469 452.589844 L 780.980469 399.5 Z M 426.621094 399.5 " fill-opacity="1" fill-rule="nonzero"/><path fill="#ffffff" d="M 397.625 89.742188 C 397.625 90.773438 397.574219 91.800781 397.476562 92.824219 C 397.375 93.851562 397.222656 94.867188 397.023438 95.878906 C 396.820312 96.886719 396.570312 97.886719 396.273438 98.871094 C 395.972656 99.855469 395.625 100.824219 395.230469 101.777344 C 394.839844 102.726562 394.398438 103.660156 393.914062 104.566406 C 393.425781 105.476562 392.898438 106.359375 392.328125 107.214844 C 391.753906 108.070312 391.140625 108.898438 390.488281 109.691406 C 389.835938 110.488281 389.144531 111.25 388.414062 111.980469 C 387.6875 112.707031 386.925781 113.398438 386.128906 114.050781 C 385.332031 114.707031 384.507812 115.316406 383.648438 115.890625 C 382.792969 116.460938 381.910156 116.992188 381.003906 117.476562 C 380.09375 117.960938 379.164062 118.402344 378.210938 118.796875 C 377.261719 119.191406 376.292969 119.539062 375.308594 119.835938 C 374.320312 120.136719 373.324219 120.386719 372.3125 120.585938 C 371.304688 120.785156 370.285156 120.9375 369.261719 121.039062 C 368.234375 121.140625 367.207031 121.191406 366.179688 121.191406 C 365.148438 121.191406 364.121094 121.140625 363.097656 121.039062 C 362.070312 120.9375 361.054688 120.785156 360.042969 120.585938 C 359.03125 120.386719 358.035156 120.136719 357.050781 119.835938 C 356.0625 119.539062 355.09375 119.191406 354.144531 118.796875 C 353.191406 118.402344 352.261719 117.960938 351.355469 117.476562 C 350.445312 116.992188 349.5625 116.460938 348.707031 115.890625 C 347.851562 115.316406 347.023438 114.707031 346.226562 114.050781 C 345.429688 113.398438 344.667969 112.707031 343.941406 111.980469 C 343.210938 111.25 342.523438 110.488281 341.867188 109.691406 C 341.214844 108.898438 340.601562 108.070312 340.03125 107.214844 C 339.457031 106.359375 338.929688 105.476562 338.445312 104.566406 C 337.957031 103.660156 337.519531 102.726562 337.125 101.777344 C 336.730469 100.824219 336.382812 99.855469 336.085938 98.871094 C 335.785156 97.886719 335.535156 96.886719 335.335938 95.878906 C 335.132812 94.867188 334.984375 93.851562 334.882812 92.824219 C 334.78125 91.800781 334.730469 90.773438 334.730469 89.742188 C 334.730469 88.710938 334.78125 87.683594 334.882812 86.660156 C 334.984375 85.636719 335.132812 84.617188 335.335938 83.605469 C 335.535156 82.597656 335.785156 81.597656 336.085938 80.613281 C 336.382812 79.628906 336.730469 78.660156 337.125 77.707031 C 337.519531 76.757812 337.957031 75.824219 338.445312 74.917969 C 338.929688 74.007812 339.457031 73.128906 340.03125 72.269531 C 340.601562 71.414062 341.214844 70.589844 341.867188 69.792969 C 342.523438 68.996094 343.210938 68.234375 343.941406 67.503906 C 344.667969 66.777344 345.429688 66.085938 346.226562 65.433594 C 347.023438 64.777344 347.851562 64.167969 348.707031 63.59375 C 349.5625 63.023438 350.445312 62.492188 351.355469 62.007812 C 352.261719 61.523438 353.191406 61.082031 354.144531 60.6875 C 355.09375 60.292969 356.0625 59.949219 357.050781 59.648438 C 358.035156 59.347656 359.03125 59.097656 360.042969 58.898438 C 361.054688 58.699219 362.070312 58.546875 363.097656 58.445312 C 364.121094 58.34375 365.148438 58.292969 366.179688 58.292969 C 367.207031 58.292969 368.234375 58.34375 369.261719 58.445312 C 370.285156 58.546875 371.304688 58.699219 372.3125 58.898438 C 373.324219 59.097656 374.320312 59.347656 375.308594 59.648438 C 376.292969 59.949219 377.261719 60.292969 378.210938 60.6875 C 379.164062 61.082031 380.09375 61.523438 381.003906 62.007812 C 381.910156 62.492188 382.792969 63.023438 383.648438 63.59375 C 384.507812 64.167969 385.332031 64.777344 386.128906 65.433594 C 386.925781 66.085938 387.6875 66.777344 388.414062 67.503906 C 389.144531 68.234375 389.835938 68.996094 390.488281 69.792969 C 391.140625 70.589844 391.753906 71.414062 392.328125 72.269531 C 392.898438 73.128906 393.425781 74.007812 393.914062 74.917969 C 394.398438 75.824219 394.839844 76.757812 395.230469 77.707031 C 395.625 78.660156 395.972656 79.628906 396.273438 80.613281 C 396.570312 81.597656 396.820312 82.597656 397.023438 83.605469 C 397.222656 84.617188 397.375 85.636719 397.476562 86.660156 C 397.574219 87.683594 397.625 88.710938 397.625 89.742188 Z M 397.625 89.742188 " fill-opacity="1" fill-rule="nonzero"/></svg>