<svg xmlns="http://www.w3.org/2000/svg" xmlns:xlink="http://www.w3.org/1999/xlink" width="1366" zoomAndPan="magnify" viewBox="0 0 1024.5 576" height="768" preserveAspectRatio="xMidYMid meet" version="1.0"><defs><clipPath id="2a50b64c88"><path d="M 87.507812 294 L 231 294 L 231 379 L 87.507812 379 Z M 87.507812 294 " clip-rule="nonzero"/></clipPath><clipPath id="5a441bb6e1"><path d="M 806 272 L 936.84375 272 L 936.84375 379 L 806 379 Z M 806 272 " clip-rule="nonzero"/></clipPath><clipPath id="bc58104ac7"><path d="M 428 57.710938 L 621 57.710938 L 621 235 L 428 235 Z M 428 57.710938 " clip-rule="nonzero"/></clipPath><clipPath id="3d48f08157"><path d="M 378 238 L 671 238 L 671 517.988281 L 378 517.988281 Z M 378 238 " clip-rule="nonzero"/></clipPath></defs><path fill="#ffffff" d="M 141.628906 291.84375 C 151.136719 288.527344 161.398438 286.714844 172.03125 286.714844 C 182.664062 286.714844 192.921875 288.527344 202.429688 291.84375 C 205.558594 289.777344 208.5625 287.402344 211.25 284.648438 C 221.695312 274.203125 227.515625 260.253906 227.515625 245.429688 C 227.515625 230.605469 221.757812 216.65625 211.25 206.210938 C 200.804688 195.765625 186.855469 189.945312 172.03125 189.945312 C 157.207031 189.945312 143.257812 195.703125 132.808594 206.210938 C 122.363281 216.65625 116.546875 230.605469 116.546875 245.429688 C 116.546875 260.253906 122.300781 274.203125 132.808594 284.648438 C 135.5 287.339844 138.441406 289.777344 141.628906 291.84375 Z M 141.628906 291.84375 " fill-opacity="1" fill-rule="nonzero"/><g clip-path="url(#2a50b64c88)"><path fill="#ffffff" d="M 204.808594 300.851562 C 203.242188 300.164062 201.617188 299.539062 199.992188 298.972656 C 198.863281 298.597656 197.738281 298.222656 196.613281 297.847656 C 195.363281 297.472656 194.109375 297.097656 192.859375 296.785156 C 186.105469 295.035156 179.097656 294.21875 172.03125 294.21875 C 164.960938 294.21875 157.957031 295.097656 151.199219 296.785156 C 149.949219 297.097656 148.699219 297.472656 147.449219 297.847656 C 146.320312 298.222656 145.195312 298.597656 144.070312 298.972656 C 142.445312 299.539062 140.816406 300.164062 139.253906 300.851562 C 129.246094 305.105469 120.175781 311.171875 112.480469 318.929688 C 104.726562 326.683594 98.65625 335.691406 94.402344 345.699219 C 89.960938 356.085938 87.710938 367.09375 87.710938 378.414062 L 226.699219 378.414062 C 225.136719 370.785156 224.261719 362.839844 224.261719 354.707031 C 224.261719 341.757812 226.386719 329.3125 230.328125 317.738281 C 222.886719 310.546875 214.316406 304.917969 204.808594 300.851562 Z M 204.808594 300.851562 " fill-opacity="1" fill-rule="nonzero"/></g><path fill="#ffffff" d="M 290.628906 236.421875 C 294.070312 239.863281 297.757812 242.867188 301.761719 245.492188 C 313.773438 241.300781 326.65625 238.988281 340.042969 238.988281 C 353.492188 238.988281 366.378906 241.300781 378.324219 245.492188 C 382.328125 242.867188 386.019531 239.863281 389.460938 236.421875 C 395.902344 229.980469 400.90625 222.535156 404.410156 214.214844 C 408.039062 205.585938 409.914062 196.453125 409.914062 187.007812 C 409.914062 177.5625 408.039062 168.429688 404.410156 159.796875 C 400.90625 151.476562 395.839844 143.972656 389.460938 137.589844 C 383.015625 131.148438 375.574219 126.144531 367.253906 122.640625 C 358.621094 119.011719 349.488281 117.136719 340.042969 117.136719 C 330.597656 117.136719 321.464844 119.011719 312.835938 122.640625 C 304.515625 126.144531 297.007812 131.210938 290.628906 137.589844 C 284.1875 144.035156 279.179688 151.476562 275.679688 159.796875 C 272.050781 168.429688 270.175781 177.5625 270.175781 187.007812 C 270.175781 196.453125 272.050781 205.585938 275.679688 214.214844 C 279.179688 222.535156 284.1875 229.980469 290.628906 236.421875 Z M 290.628906 236.421875 " fill-opacity="1" fill-rule="nonzero"/><path fill="#ffffff" d="M 381.390625 256.878906 C 379.390625 256 377.386719 255.25 375.324219 254.5625 C 373.945312 254.0625 372.507812 253.625 371.132812 253.1875 C 369.570312 252.6875 367.941406 252.25 366.316406 251.808594 C 357.808594 249.621094 349.050781 248.558594 340.042969 248.558594 C 331.097656 248.558594 322.34375 249.621094 313.773438 251.808594 C 312.144531 252.25 310.582031 252.6875 308.957031 253.1875 C 307.515625 253.625 306.140625 254.0625 304.765625 254.5625 C 302.699219 255.3125 300.699219 256.0625 298.699219 256.878906 C 286.0625 262.195312 274.675781 269.886719 264.917969 279.644531 C 255.160156 289.402344 247.53125 300.789062 242.152344 313.421875 C 241.585938 314.738281 241.023438 316.113281 240.523438 317.488281 C 240.023438 318.867188 239.523438 320.242188 239.085938 321.617188 C 238.585938 323.058594 238.148438 324.496094 237.773438 325.933594 C 235.144531 335.253906 233.832031 344.886719 233.832031 354.769531 C 233.832031 362.839844 234.707031 370.785156 236.457031 378.476562 L 365.691406 378.476562 C 367.191406 338.195312 383.582031 301.789062 409.601562 274.578125 C 401.21875 267.136719 391.710938 261.253906 381.390625 256.878906 Z M 381.390625 256.878906 " fill-opacity="1" fill-rule="nonzero"/><path fill="#ffffff" d="M 821.566406 270.136719 C 831.074219 266.824219 841.332031 265.007812 851.96875 265.007812 C 862.601562 265.007812 872.859375 266.824219 882.367188 270.136719 C 885.496094 268.074219 888.496094 265.695312 891.1875 262.945312 C 901.632812 252.5 907.449219 238.550781 907.449219 223.726562 C 907.449219 208.898438 901.695312 194.949219 891.1875 184.503906 C 880.742188 174.058594 866.792969 168.242188 851.96875 168.242188 C 837.144531 168.242188 823.195312 173.996094 812.746094 184.503906 C 802.300781 194.949219 796.484375 208.898438 796.484375 223.726562 C 796.484375 238.550781 802.238281 252.5 812.746094 262.945312 C 815.5 265.695312 818.441406 268.074219 821.566406 270.136719 Z M 821.566406 270.136719 " fill-opacity="1" fill-rule="nonzero"/><g clip-path="url(#5a441bb6e1)"><path fill="#ffffff" d="M 929.65625 324.058594 C 925.402344 314.050781 919.335938 304.980469 911.578125 297.285156 C 903.824219 289.527344 894.816406 283.460938 884.808594 279.207031 C 883.242188 278.519531 881.617188 277.894531 879.992188 277.332031 C 878.863281 276.957031 877.738281 276.582031 876.613281 276.207031 C 875.363281 275.832031 874.109375 275.453125 872.859375 275.140625 C 866.105469 273.390625 859.097656 272.578125 852.03125 272.578125 C 844.898438 272.578125 837.957031 273.453125 831.199219 275.140625 C 829.949219 275.453125 828.699219 275.832031 827.445312 276.207031 C 826.320312 276.582031 825.195312 276.957031 824.070312 277.332031 C 822.441406 277.894531 820.816406 278.519531 819.253906 279.207031 C 814.6875 281.148438 810.308594 283.460938 806.179688 286.152344 C 820.316406 305.355469 828.636719 329.0625 828.636719 354.707031 C 828.636719 362.839844 827.824219 370.785156 826.195312 378.414062 L 933.535156 378.414062 C 935.347656 371.410156 936.285156 364.214844 936.285156 356.898438 C 936.285156 345.511719 934.035156 334.441406 929.65625 324.058594 Z M 929.65625 324.058594 " fill-opacity="1" fill-rule="nonzero"/></g><path fill="#ffffff" d="M 663.4375 236.421875 C 666.875 239.863281 670.566406 242.867188 674.570312 245.492188 C 686.582031 241.300781 699.464844 238.988281 712.851562 238.988281 C 726.300781 238.988281 739.1875 241.300781 751.132812 245.492188 C 755.136719 242.867188 758.828125 239.863281 762.269531 236.421875 C 768.710938 229.980469 773.714844 222.535156 777.21875 214.214844 C 780.847656 205.585938 782.722656 196.453125 782.722656 187.007812 C 782.722656 177.5625 780.847656 168.429688 777.21875 159.796875 C 773.714844 151.476562 768.648438 143.972656 762.269531 137.589844 C 755.824219 131.148438 748.382812 126.144531 740.0625 122.640625 C 731.429688 119.011719 722.296875 117.136719 712.851562 117.136719 C 703.40625 117.136719 694.273438 119.011719 685.640625 122.640625 C 677.324219 126.144531 669.816406 131.210938 663.4375 137.589844 C 656.992188 144.035156 651.988281 151.476562 648.488281 159.796875 C 644.859375 168.429688 642.980469 177.5625 642.980469 187.007812 C 642.980469 196.453125 644.859375 205.585938 648.488281 214.214844 C 651.988281 222.535156 656.992188 229.980469 663.4375 236.421875 Z M 663.4375 236.421875 " fill-opacity="1" fill-rule="nonzero"/><path fill="#ffffff" d="M 798.421875 291.78125 C 797.671875 290.78125 796.921875 289.777344 796.109375 288.777344 C 795.296875 287.777344 794.546875 286.839844 793.730469 285.839844 C 791.917969 283.710938 789.980469 281.585938 787.976562 279.582031 C 778.21875 269.824219 766.835938 262.195312 754.199219 256.816406 C 752.199219 255.9375 750.195312 255.1875 748.132812 254.5 C 746.753906 254 745.316406 253.5625 743.941406 253.125 C 742.375 252.625 740.75 252.1875 739.125 251.746094 C 730.617188 249.558594 721.859375 248.496094 712.851562 248.496094 C 703.84375 248.496094 695.148438 249.558594 686.582031 251.746094 C 684.953125 252.1875 683.390625 252.625 681.765625 253.125 C 680.324219 253.5625 678.949219 254 677.574219 254.5 C 675.507812 255.25 673.507812 256 671.503906 256.816406 C 660.371094 261.507812 650.238281 268.011719 641.355469 276.144531 C 666.4375 303.164062 682.265625 338.945312 683.703125 378.351562 L 816.4375 378.351562 C 818.191406 370.660156 819.066406 362.714844 819.066406 354.644531 C 819.066406 340.320312 816.25 326.371094 810.746094 313.296875 C 807.429688 305.667969 803.300781 298.472656 798.421875 291.78125 Z M 798.421875 291.78125 " fill-opacity="1" fill-rule="nonzero"/><g clip-path="url(#bc58104ac7)"><path fill="#ffffff" d="M 456.765625 221.722656 C 461.457031 226.414062 466.585938 230.542969 472.027344 234.171875 C 488.480469 228.414062 506.246094 225.226562 524.632812 225.226562 C 543.085938 225.226562 560.789062 228.351562 577.242188 234.171875 C 582.746094 230.605469 587.8125 226.414062 592.503906 221.722656 C 601.324219 212.902344 608.265625 202.644531 613.082031 191.199219 C 618.085938 179.375 620.652344 166.800781 620.652344 153.792969 C 620.652344 140.78125 618.085938 128.269531 613.082031 116.386719 C 608.265625 104.9375 601.324219 94.679688 592.503906 85.859375 C 583.683594 77.039062 573.425781 70.097656 561.976562 65.28125 C 550.15625 60.277344 537.582031 57.710938 524.570312 57.710938 C 511.625 57.710938 499.050781 60.277344 487.164062 65.28125 C 475.90625 70.160156 465.585938 77.101562 456.765625 85.921875 C 447.945312 94.742188 441.003906 105 436.1875 116.449219 C 431.183594 128.269531 428.617188 140.84375 428.617188 153.855469 C 428.617188 166.863281 431.183594 179.375 436.1875 191.261719 C 441.066406 202.644531 447.945312 212.902344 456.765625 221.722656 Z M 456.765625 221.722656 " fill-opacity="1" fill-rule="nonzero"/></g><g clip-path="url(#3d48f08157)"><path fill="#ffffff" d="M 659.183594 327.558594 C 652.613281 312.046875 643.546875 297.972656 632.160156 285.652344 C 631.097656 284.460938 629.972656 283.335938 628.84375 282.148438 C 628.53125 281.835938 628.21875 281.460938 627.84375 281.148438 C 627.03125 280.332031 626.21875 279.582031 625.40625 278.769531 C 612.582031 266.511719 597.757812 256.75 581.429688 249.871094 C 578.679688 248.683594 575.925781 247.621094 573.113281 246.617188 C 571.171875 245.929688 569.234375 245.304688 567.292969 244.742188 C 565.105469 244.054688 562.914062 243.429688 560.664062 242.867188 C 548.96875 239.863281 536.894531 238.363281 524.570312 238.363281 C 512.25 238.363281 500.175781 239.863281 488.480469 242.867188 C 486.289062 243.429688 484.039062 244.054688 481.847656 244.742188 C 479.910156 245.304688 477.972656 245.992188 476.03125 246.617188 C 473.21875 247.621094 470.464844 248.683594 467.710938 249.871094 C 452.136719 256.4375 438 265.570312 425.613281 277.019531 C 424.425781 278.082031 423.300781 279.207031 422.175781 280.332031 C 421.863281 280.585938 421.613281 280.898438 421.300781 281.210938 C 420.421875 282.085938 419.609375 282.898438 418.796875 283.773438 C 406.597656 296.597656 396.902344 311.296875 390.023438 327.621094 C 383.203125 343.824219 379.390625 360.902344 378.703125 378.476562 L 416.105469 378.476562 C 413.792969 387.546875 412.605469 396.929688 412.605469 406.4375 C 412.605469 421.511719 415.542969 436.148438 421.425781 449.972656 C 427.054688 463.296875 435.121094 475.246094 445.382812 485.503906 C 455.640625 495.761719 467.585938 503.832031 480.910156 509.460938 C 494.671875 515.277344 509.371094 518.28125 524.445312 518.28125 C 539.523438 518.28125 554.160156 515.339844 567.984375 509.460938 C 581.304688 503.832031 593.253906 495.761719 603.511719 485.503906 C 613.769531 475.246094 621.839844 463.296875 627.46875 449.972656 C 633.285156 436.210938 636.289062 421.511719 636.289062 406.4375 C 636.289062 396.929688 635.101562 387.546875 632.785156 378.476562 L 670.503906 378.476562 C 669.816406 360.777344 666.0625 343.699219 659.183594 327.558594 Z M 623.777344 406.375 C 623.777344 461.109375 579.242188 505.644531 524.507812 505.644531 C 469.777344 505.644531 425.238281 461.109375 425.238281 406.375 C 425.238281 396.679688 426.617188 387.296875 429.242188 378.414062 C 441.316406 337.257812 479.472656 307.105469 524.445312 307.105469 C 569.421875 307.105469 607.578125 337.257812 619.648438 378.414062 C 622.402344 387.296875 623.777344 396.679688 623.777344 406.375 Z M 623.777344 406.375 " fill-opacity="1" fill-rule="nonzero"/></g><path fill="#ffffff" d="M 589.0625 359.085938 L 576.738281 369.03125 L 565.042969 378.414062 L 491.917969 437.277344 L 462.644531 404.3125 L 460.769531 402.183594 C 458.453125 399.621094 454.515625 399.371094 451.886719 401.683594 C 449.320312 404 449.070312 407.9375 451.386719 410.566406 L 490.542969 454.601562 L 585.121094 378.414062 L 597.007812 368.84375 C 599.695312 366.65625 600.132812 362.714844 597.945312 360.023438 C 595.753906 357.335938 591.753906 356.898438 589.0625 359.085938 Z M 589.0625 359.085938 " fill-opacity="1" fill-rule="nonzero"/></svg>