<svg xmlns="http://www.w3.org/2000/svg" xmlns:xlink="http://www.w3.org/1999/xlink" width="3000" zoomAndPan="magnify" viewBox="0 0 2250 2250.000011" height="3000" preserveAspectRatio="xMidYMid meet" version="1.0"><defs><g/><clipPath id="65e4afc033"><path d="M 514 235 L 1733 235 L 1733 1738.441406 L 514 1738.441406 Z M 514 235 " clip-rule="nonzero"/></clipPath></defs><g clip-path="url(#65e4afc033)"><path fill="#17ead9" d="M 1350.566406 1196.734375 C 1350.300781 1195.800781 1350.035156 1195 1349.769531 1194.199219 C 1332.300781 1135.238281 1293.238281 1086.015625 1239.644531 1055.605469 C 1185.378906 1024.921875 1122.453125 1016.921875 1062.324219 1033.058594 C 1057.65625 1034.261719 1053.125 1035.59375 1048.324219 1037.328125 C 992.0625 1056.136719 945.265625 1095.089844 916.601562 1147.246094 C 887.804688 1199.535156 879.804688 1260.09375 894.203125 1318.121094 C 898.601562 1335.863281 914.46875 1347.734375 931.933594 1347.734375 C 935.132812 1347.734375 938.199219 1347.332031 941.398438 1346.667969 C 962.332031 1341.332031 975.128906 1320.253906 969.929688 1299.3125 C 950.199219 1219.808594 995.527344 1137.375 1073.121094 1111.363281 C 1076.320312 1110.292969 1079.386719 1109.359375 1082.453125 1108.5625 C 1164.980469 1086.417969 1251.375 1135.105469 1275.105469 1217.140625 C 1309.238281 1351.066406 1262.042969 1493.796875 1154.582031 1581.035156 C 1115.917969 1612.515625 1071.523438 1635.0625 1022.859375 1648.132812 C 1008.726562 1652 994.195312 1654.9375 979.53125 1656.9375 C 964.332031 1659.070312 948.863281 1660.136719 933.53125 1660.273438 C 888.335938 1660.671875 843.804688 1652.402344 801.542969 1635.726562 C 787.410156 1630.257812 773.546875 1623.855469 760.347656 1616.519531 C 741.414062 1606.113281 717.683594 1613.183594 707.417969 1632.125 C 697.019531 1650.933594 703.949219 1674.679688 722.882812 1685.082031 C 739.015625 1693.886719 755.945312 1701.757812 773.011719 1708.558594 C 823.675781 1728.300781 876.605469 1738.441406 930.734375 1738.441406 C 931.667969 1738.441406 932.734375 1738.441406 933.800781 1738.441406 C 933.933594 1738.441406 934.066406 1738.441406 934.066406 1738.441406 C 952.863281 1738.308594 971.796875 1736.839844 990.328125 1734.304688 C 1008.0625 1731.769531 1025.925781 1728.167969 1043.125 1723.5 C 1102.453125 1707.625 1156.449219 1680.148438 1203.777344 1641.730469 C 1267.507812 1590.109375 1314.96875 1521.675781 1341.367188 1443.910156 C 1368.433594 1364.007812 1371.632812 1278.503906 1350.566406 1196.734375 Z M 1540.820312 1145.109375 C 1518.15625 1063.605469 1472.691406 991.175781 1409.363281 935.550781 C 1347.636719 881.394531 1272.175781 845.910156 1191.378906 833.105469 C 1131.117188 823.5 1070.457031 826.703125 1011.261719 842.574219 C 994.0625 847.246094 976.863281 852.980469 960.199219 859.648438 C 891.667969 887.527344 831.007812 932.75 784.878906 990.773438 C 743.8125 1042.132812 714.617188 1103.226562 700.351562 1167.253906 C 685.683594 1233.550781 686.75 1303.445312 703.816406 1369.476562 C 703.949219 1369.742188 703.949219 1369.875 704.082031 1370.144531 C 704.082031 1370.277344 704.082031 1370.277344 704.082031 1370.410156 C 720.617188 1427.636719 757.8125 1476.191406 808.875 1507.136719 C 846.074219 1529.546875 888.203125 1541.152344 930.867188 1541.152344 C 946.464844 1541.152344 962.332031 1539.550781 977.929688 1536.351562 C 982.863281 1535.417969 987.664062 1534.214844 992.0625 1533.148438 C 1052.324219 1517.007812 1102.851562 1478.457031 1134.449219 1424.835938 C 1166.046875 1371.210938 1175.113281 1308.382812 1160.183594 1248.089844 C 1154.984375 1227.148438 1133.785156 1214.472656 1112.851562 1219.542969 C 1092.054688 1224.746094 1079.253906 1245.953125 1084.453125 1266.898438 C 1104.988281 1349.867188 1054.589844 1435.503906 971.929688 1457.648438 C 968.863281 1458.449219 965.796875 1459.25 962.332031 1459.917969 C 951.929688 1462.050781 941.53125 1462.984375 931.265625 1462.984375 C 862.472656 1462.984375 799.011719 1417.230469 779.277344 1348.933594 C 751.546875 1240.21875 775.8125 1127.367188 845.941406 1039.464844 C 883.804688 991.976562 933.398438 954.890625 989.527344 932.082031 C 1003.261719 926.613281 1017.261719 921.8125 1031.527344 918.078125 C 1080.054688 905.003906 1129.785156 902.335938 1179.113281 910.207031 C 1315.902344 932.082031 1428.296875 1032.394531 1465.492188 1165.785156 C 1511.089844 1341.0625 1467.757812 1527.8125 1349.632812 1665.339844 C 1335.636719 1681.613281 1337.503906 1706.425781 1353.902344 1720.433594 C 1361.234375 1726.703125 1370.300781 1729.902344 1379.230469 1729.902344 C 1390.296875 1729.902344 1401.230469 1725.234375 1408.964844 1716.164062 C 1474.023438 1640.398438 1520.820312 1549.023438 1544.152344 1452.046875 C 1568.152344 1351.734375 1567.085938 1245.820312 1540.953125 1145.511719 C 1540.820312 1145.378906 1540.820312 1145.242188 1540.820312 1145.109375 Z M 739.816406 395.3125 C 755.679688 388.375 772.078125 381.703125 788.34375 375.570312 C 817.675781 364.496094 848.074219 354.625 878.335938 346.488281 C 920.46875 335.152344 963.664062 326.746094 1006.859375 321.410156 C 1092.722656 310.605469 1179.648438 311.675781 1265.109375 324.746094 C 1348.167969 337.285156 1429.496094 361.027344 1506.554688 395.3125 C 1511.753906 397.578125 1517.089844 398.777344 1522.421875 398.777344 C 1537.355469 398.777344 1551.621094 390.109375 1558.152344 375.433594 C 1566.816406 355.828125 1558.019531 332.617188 1538.285156 323.945312 C 1454.828125 286.863281 1366.832031 261.117188 1276.839844 247.511719 C 1184.3125 233.371094 1090.1875 232.171875 997.128906 243.910156 C 950.464844 249.644531 903.800781 258.851562 858.207031 271.121094 C 825.40625 279.925781 792.609375 290.464844 760.746094 302.46875 C 743.148438 309.140625 725.550781 316.34375 708.351562 323.945312 C 688.617188 332.617188 679.6875 355.695312 688.351562 375.433594 C 697.019531 395.175781 720.082031 404.113281 739.816406 395.3125 Z M 603.160156 721.457031 C 648.753906 677.4375 699.683594 639.285156 754.746094 608.339844 C 809.410156 577.390625 868.203125 553.515625 929.398438 537.105469 C 933.398438 535.90625 937.265625 534.972656 941.265625 534.039062 C 1014.992188 515.496094 1090.585938 508.160156 1165.78125 512.429688 C 1260.574219 517.898438 1352.566406 540.976562 1439.09375 581.261719 C 1518.421875 618.210938 1590.148438 668.097656 1652.144531 729.859375 C 1659.746094 737.328125 1669.742188 741.199219 1679.742188 741.199219 C 1689.742188 741.199219 1699.742188 737.328125 1707.472656 729.59375 C 1722.671875 714.386719 1722.539062 689.574219 1707.207031 674.367188 C 1638.8125 606.339844 1559.617188 551.113281 1472.023438 510.296875 C 1376.433594 465.875 1274.972656 440.398438 1170.316406 434.527344 C 1087.121094 429.726562 1003.660156 437.730469 922.199219 458.273438 C 917.269531 459.472656 913.132812 460.539062 909.269531 461.605469 C 841.671875 479.613281 776.746094 506.160156 716.351562 540.175781 C 655.554688 574.457031 599.292969 616.609375 548.894531 665.164062 C 533.429688 680.238281 533.03125 704.914062 547.960938 720.386719 C 562.894531 735.996094 587.691406 736.394531 603.160156 721.457031 Z M 1731.207031 1094.152344 C 1703.742188 994.242188 1651.746094 901.9375 1580.816406 827.234375 C 1512.15625 754.804688 1426.027344 699.046875 1331.769531 665.964844 C 1245.242188 635.550781 1155.382812 624.613281 1064.457031 633.285156 C 1029.390625 636.617188 994.460938 642.886719 960.199219 652.089844 C 922.066406 662.230469 884.738281 676.101562 849.40625 693.175781 C 785.542969 723.855469 727.949219 764.808594 677.820312 814.964844 C 624.625 868.320312 581.691406 930.082031 550.230469 998.644531 C 536.097656 1029.457031 524.363281 1061.738281 515.429688 1094.554688 C 509.699219 1115.363281 521.832031 1136.839844 542.628906 1142.441406 C 546.097656 1143.507812 549.5625 1143.910156 553.027344 1143.910156 C 570.226562 1143.910156 585.828125 1132.570312 590.625 1115.230469 C 598.492188 1086.550781 608.890625 1058.273438 621.289062 1031.191406 C 648.753906 971.03125 686.484375 916.875 733.015625 870.1875 C 776.878906 826.300781 827.40625 790.417969 883.269531 763.609375 C 914.203125 748.667969 947 736.527344 980.460938 727.589844 C 1010.460938 719.453125 1041.125 713.984375 1071.789062 711.050781 C 1151.515625 703.449219 1230.175781 713.050781 1305.90625 739.730469 C 1477.089844 799.757812 1608.015625 940.085938 1656.011719 1114.832031 C 1661.609375 1135.640625 1683.210938 1147.910156 1704.007812 1142.175781 C 1724.671875 1136.441406 1736.9375 1114.964844 1731.207031 1094.152344 " fill-opacity="1" fill-rule="nonzero"/></g><g fill="#ffffff" fill-opacity="1"><g transform="translate(235.525686, 1998.211235)"><g><path d="M 6.183594 -42.914062 C 6.058594 -36.855469 7.667969 -30.796875 11.128906 -25.351562 C 18.054688 -14.222656 30.175781 -7.296875 42.171875 -2.84375 C 47.863281 -0.867188 53.800781 0.742188 59.734375 1.730469 C 81.253906 5.316406 103.023438 5.070312 124.046875 -1.359375 C 126.023438 -1.980469 128.25 -2.226562 130.230469 -2.96875 C 131.34375 -3.339844 132.457031 -3.957031 133.570312 -4.574219 C 134.433594 -5.070312 136.660156 -6.429688 136.289062 -4.203125 C 136.042969 -2.722656 134.433594 -1.238281 135.796875 0.246094 C 137.15625 1.484375 139.136719 0.742188 140.617188 0.371094 C 143.09375 -0.371094 145.8125 -0.371094 148.410156 0.125 C 150.140625 0.496094 153.480469 1.609375 153.976562 -0.867188 C 154.472656 -2.472656 153.234375 -4.082031 153.109375 -5.566406 C 152.863281 -8.535156 153.109375 -11.378906 153.109375 -14.347656 C 153.109375 -17.316406 153.234375 -20.40625 153.234375 -23.5 C 153.359375 -28.570312 152.863281 -33.886719 153.851562 -38.957031 C 154.59375 -42.792969 151.503906 -43.285156 148.410156 -42.667969 C 144.949219 -42.050781 141.359375 -42.050781 137.773438 -42.171875 L 119.347656 -42.171875 C 116.378906 -42.171875 113.535156 -42.171875 110.566406 -42.296875 C 107.722656 -42.421875 104.753906 -41.800781 102.03125 -42.542969 C 101.167969 -42.792969 100.425781 -43.164062 99.558594 -43.285156 C 97.457031 -43.410156 96.714844 -41.183594 96.714844 -39.453125 C 96.714844 -37.472656 97.207031 -35.371094 96.960938 -33.390625 C 96.839844 -31.289062 96.34375 -27.578125 98.941406 -26.714844 C 99.804688 -26.464844 100.796875 -26.589844 101.785156 -26.714844 C 107.226562 -27.207031 112.667969 -27.085938 118.109375 -27.085938 C 120.953125 -27.085938 123.800781 -27.085938 126.644531 -27.332031 C 129.117188 -27.457031 131.839844 -28.199219 134.3125 -27.949219 C 135.796875 -27.828125 135.671875 -27.207031 134.929688 -26.21875 C 133.941406 -24.984375 132.457031 -23.871094 131.097656 -22.878906 C 121.449219 -16.078125 109.824219 -13.109375 98.199219 -11.996094 C 83.355469 -10.511719 68.515625 -11.378906 54.417969 -16.574219 C 52.316406 -17.4375 50.460938 -18.304688 48.605469 -19.167969 C 46.625 -20.160156 44.523438 -20.902344 42.792969 -22.015625 C 40.9375 -23.25 39.328125 -24.859375 37.84375 -26.21875 C 31.289062 -32.15625 27.578125 -40.566406 30.546875 -49.222656 C 31.289062 -51.078125 31.910156 -53.179688 33.269531 -55.035156 C 36.855469 -59.984375 42.914062 -64.3125 48.355469 -67.03125 C 50.210938 -67.898438 52.316406 -68.640625 54.417969 -69.382812 C 72.722656 -76.183594 93.871094 -76.429688 112.667969 -70.988281 C 116.996094 -69.753906 121.078125 -68.023438 124.914062 -65.796875 C 128.003906 -64.0625 130.726562 -61.097656 133.941406 -59.734375 C 138.023438 -58.128906 136.910156 -65.671875 136.660156 -67.527344 C 136.414062 -69.257812 135.917969 -71.113281 135.917969 -72.84375 C 135.917969 -73.835938 136.910156 -79.523438 135.796875 -80.019531 C 133.941406 -80.882812 132.210938 -81.75 130.105469 -82.492188 C 128.128906 -83.234375 126.023438 -83.726562 123.921875 -84.347656 C 91.890625 -94.117188 51.945312 -93.003906 23.871094 -72.84375 C 21.023438 -70.867188 17.933594 -68.515625 15.582031 -65.917969 C 9.523438 -59.363281 6.308594 -51.203125 6.183594 -42.914062 Z M 6.183594 -42.914062 "/></g></g></g><g fill="#ffffff" fill-opacity="1"><g transform="translate(398.2702, 1998.211235)"><g><path d="M 12.121094 0 C 10.882812 -1.113281 11.253906 -2.472656 11.625 -4.082031 C 12.367188 -6.800781 12.121094 -9.769531 12.121094 -12.613281 C 12.242188 -24.242188 12.242188 -35.988281 12.242188 -47.738281 C 12.242188 -54.292969 12.492188 -60.726562 12.492188 -67.15625 C 12.492188 -70.496094 12.492188 -73.835938 12.242188 -77.171875 C 12.121094 -79.769531 10.636719 -83.109375 11.5 -85.707031 C 12.367188 -88.058594 15.089844 -87.4375 16.945312 -87.066406 C 20.53125 -86.574219 24.117188 -86.324219 27.703125 -86.574219 C 29.1875 -86.574219 30.671875 -86.820312 32.15625 -87.191406 C 33.640625 -87.5625 35.371094 -87.066406 35.867188 -85.460938 C 35.988281 -84.59375 35.867188 -83.726562 35.742188 -82.863281 C 35 -78.78125 35 -74.699219 35 -70.496094 C 34.875 -62.332031 35 -53.921875 35.125 -45.636719 C 35.246094 -41.429688 35.246094 -37.101562 35.246094 -32.773438 C 35.246094 -28.816406 34.753906 -24.984375 34.503906 -21.023438 C 34.382812 -19.910156 34.382812 -18.675781 35.246094 -17.808594 C 36.855469 -16.324219 39.328125 -17.6875 41.058594 -18.054688 C 43.535156 -18.550781 46.132812 -18.054688 48.605469 -18.054688 C 58.5 -17.6875 68.394531 -18.054688 78.285156 -18.054688 C 88.550781 -18.054688 98.816406 -18.054688 109.082031 -18.179688 C 112.421875 -18.179688 115.761719 -18.304688 119.097656 -18.304688 C 122.316406 -18.304688 122.316406 -17.808594 125.53125 -17.808594 C 127.507812 -17.808594 129.488281 -19.167969 131.34375 -18.675781 C 133.570312 -18.054688 133.199219 -14.839844 132.953125 -13.234375 C 132.457031 -10.140625 131.589844 -7.296875 132.332031 -4.203125 C 132.582031 -3.464844 132.828125 -2.722656 132.828125 -1.855469 C 132.953125 0.617188 130.355469 0.867188 128.5 0.617188 C 120.210938 -0.617188 112.050781 -0.246094 103.765625 0 C 83.480469 0.496094 63.074219 0 42.792969 0 C 35.988281 0.125 29.0625 0 22.261719 -0.246094 C 19.789062 -0.371094 17.5625 1.113281 15.089844 1.113281 C 14.097656 1.113281 12.984375 0.742188 12.121094 0 Z M 12.121094 0 "/></g></g></g><g fill="#ffffff" fill-opacity="1"><g transform="translate(536.652507, 1998.211235)"><g><path d="M 4.082031 -43.164062 C 3.710938 -49.347656 5.195312 -55.777344 9.398438 -62.085938 C 19.789062 -77.421875 39.328125 -84.097656 56.890625 -87.5625 C 76.058594 -91.394531 96.097656 -91.023438 114.894531 -86.820312 C 131.097656 -83.234375 147.175781 -76.308594 157.5625 -63.691406 C 167.828125 -51.449219 168.445312 -35.125 158.550781 -22.632812 C 153.359375 -15.953125 145.9375 -11.128906 138.394531 -7.296875 C 122.5625 0.371094 104.875 3.464844 87.066406 4.082031 C 72.351562 4.574219 57.507812 3.464844 43.535156 -1.113281 C 25.476562 -7.050781 5.441406 -24.117188 4.082031 -43.164062 Z M 27.207031 -43.039062 C 27.703125 -32.15625 37.722656 -22.261719 48.605469 -17.933594 C 68.640625 -9.894531 93.128906 -7.792969 113.78125 -14.964844 C 130.972656 -21.023438 152.863281 -41.308594 134.929688 -58.871094 C 130.847656 -62.828125 125.65625 -65.546875 120.460938 -67.773438 C 97.949219 -76.925781 71.980469 -76.429688 49.347656 -68.023438 C 42.914062 -65.671875 36.609375 -62.457031 32.402344 -57.261719 C 28.445312 -52.5625 27.085938 -47.738281 27.207031 -43.039062 Z M 27.207031 -43.039062 "/></g></g></g><g fill="#ffffff" fill-opacity="1"><g transform="translate(709.413966, 1998.211235)"><g><path d="M 144.328125 -38.957031 C 141.980469 -42.914062 138.765625 -45.636719 134.558594 -47.613281 C 135.796875 -49.46875 136.910156 -51.574219 137.527344 -54.046875 C 139.257812 -60.476562 138.515625 -67.773438 135.175781 -73.585938 C 134.0625 -75.566406 132.582031 -77.050781 130.972656 -78.535156 C 123.304688 -85.335938 112.296875 -86.945312 102.402344 -86.820312 C 84.71875 -86.574219 67.15625 -86.449219 49.59375 -86.449219 C 46.378906 -86.449219 46.378906 -86.695312 43.285156 -86.695312 C 40.195312 -86.695312 40.195312 -86.695312 37.101562 -86.695312 L 32.402344 -86.695312 C 31.167969 -86.695312 28.816406 -86.820312 24.734375 -86.820312 C 22.015625 -86.820312 14.839844 -88.179688 12.984375 -86.945312 C 10.265625 -85.335938 12.242188 -80.390625 12.242188 -80.390625 C 12.242188 -66.289062 12.367188 -52.191406 12.492188 -38.09375 C 12.492188 -30.796875 12.492188 -23.375 12.367188 -16.078125 C 12.367188 -12.492188 8.90625 -0.988281 13.355469 0.617188 C 14.59375 0.988281 16.078125 0.742188 17.316406 0.496094 C 29.804688 -1.609375 43.285156 0 55.902344 0 C 69.132812 0.125 82.492188 0.246094 95.726562 0 C 107.226562 -0.125 119.59375 0.742188 130.601562 -3.214844 C 145.070312 -8.285156 151.996094 -25.476562 144.328125 -38.957031 Z M 35.617188 -70.125 C 35.867188 -70.496094 36.113281 -70.617188 36.238281 -70.742188 C 37.101562 -70.988281 37.84375 -70.867188 38.585938 -70.867188 C 46.253906 -70 53.800781 -70.496094 61.34375 -70.496094 C 63.445312 -70.496094 65.671875 -70.617188 67.773438 -70.617188 C 76.554688 -70.617188 85.210938 -70.246094 93.871094 -70.246094 C 97.457031 -70.246094 99.804688 -70.125 100.300781 -70.125 C 102.652344 -70.125 104.875 -70.371094 106.980469 -70 C 109.328125 -69.503906 111.183594 -68.394531 112.667969 -66.910156 C 116.007812 -63.445312 115.882812 -58.375 112.542969 -54.910156 C 108.957031 -51.078125 102.773438 -51.574219 98.074219 -51.449219 C 82.863281 -51.203125 67.527344 -50.832031 52.4375 -51.574219 C 49.839844 -51.695312 47.242188 -51.820312 44.648438 -51.695312 C 42.171875 -51.449219 39.328125 -50.089844 36.980469 -50.335938 C 32.402344 -50.707031 33.886719 -67.28125 35.617188 -70.125 Z M 121.449219 -20.777344 C 115.019531 -14.839844 104.875 -15.953125 96.839844 -16.078125 L 96.960938 -16.324219 C 93.871094 -16.324219 93.871094 -16.203125 90.777344 -16.203125 L 63.074219 -16.203125 C 55.777344 -16.324219 46.007812 -18.179688 38.957031 -15.832031 C 31.414062 -13.234375 35.867188 -23.621094 35 -27.085938 C 34.503906 -29.1875 33.019531 -32.402344 34.503906 -34.503906 C 36.359375 -37.226562 38.835938 -35.246094 41.429688 -35.246094 C 51.695312 -35.246094 61.960938 -35 72.226562 -35 C 81.75 -35 91.273438 -35.125 100.796875 -35.371094 C 113.78125 -35.371094 130.972656 -34.132812 121.449219 -20.777344 Z M 121.449219 -20.777344 "/></g></g></g><g fill="#ffffff" fill-opacity="1"><g transform="translate(863.007201, 1998.211235)"><g><path d="M 3.585938 -0.125 C 4.082031 0.371094 4.699219 0.371094 5.316406 0.496094 C 11.5 0.742188 18.304688 2.226562 24.242188 0.246094 C 31.539062 -1.980469 30.054688 -13.726562 38.585938 -13.726562 C 52.066406 -13.726562 65.546875 -13.480469 79.027344 -13.480469 C 85.707031 -13.480469 92.507812 -13.480469 99.1875 -13.726562 C 104.503906 -13.851562 111.183594 -15.335938 116.378906 -14.222656 C 121.820312 -12.984375 121.945312 -4.945312 125.777344 -1.730469 C 128.5 0.742188 132.703125 0.742188 136.414062 0.742188 C 140.125 0.617188 143.957031 0.496094 147.667969 0.496094 C 148.164062 0.496094 148.65625 0.496094 149.027344 0.246094 C 150.019531 -0.496094 149.277344 -2.101562 148.535156 -3.09375 C 130.355469 -27.578125 113.285156 -52.933594 97.578125 -79.152344 C 95.601562 -82.617188 93.128906 -86.324219 89.292969 -87.4375 C 87.4375 -88.058594 85.335938 -87.808594 83.355469 -87.6875 C 76.429688 -87.066406 62.578125 -88.800781 58.375 -82.492188 C 42.542969 -58.621094 26.589844 -34.753906 10.761719 -11.007812 C 9.523438 -9.277344 1.609375 -2.472656 3.585938 -0.125 Z M 48.480469 -32.03125 C 48.234375 -32.527344 48.109375 -32.898438 48.109375 -33.390625 C 48.234375 -34.382812 48.851562 -35.125 49.46875 -35.988281 C 54.167969 -41.925781 58.746094 -48.109375 63.074219 -54.539062 C 65.300781 -57.878906 67.402344 -61.21875 69.503906 -64.558594 C 70.617188 -66.289062 73.710938 -73.957031 75.441406 -74.578125 C 79.398438 -76.058594 86.449219 -60.105469 88.429688 -56.890625 C 93.375 -49.46875 98.570312 -42.171875 104.011719 -35.125 C 104.628906 -34.382812 105.246094 -33.390625 105.125 -32.527344 C 104.257812 -28.320312 91.519531 -31.660156 88.675781 -31.785156 C 77.421875 -32.773438 65.796875 -31.910156 54.539062 -30.425781 C 53.179688 -30.300781 51.820312 -30.054688 50.582031 -30.546875 C 49.71875 -30.796875 48.851562 -31.289062 48.480469 -32.03125 Z M 48.480469 -32.03125 "/></g></g></g><g fill="#ffffff" fill-opacity="1"><g transform="translate(1015.734772, 1998.211235)"><g><path d="M 12.121094 0 C 10.882812 -1.113281 11.253906 -2.472656 11.625 -4.082031 C 12.367188 -6.800781 12.121094 -9.769531 12.121094 -12.613281 C 12.242188 -24.242188 12.242188 -35.988281 12.242188 -47.738281 C 12.242188 -54.292969 12.492188 -60.726562 12.492188 -67.15625 C 12.492188 -70.496094 12.492188 -73.835938 12.242188 -77.171875 C 12.121094 -79.769531 10.636719 -83.109375 11.5 -85.707031 C 12.367188 -88.058594 15.089844 -87.4375 16.945312 -87.066406 C 20.53125 -86.574219 24.117188 -86.324219 27.703125 -86.574219 C 29.1875 -86.574219 30.671875 -86.820312 32.15625 -87.191406 C 33.640625 -87.5625 35.371094 -87.066406 35.867188 -85.460938 C 35.988281 -84.59375 35.867188 -83.726562 35.742188 -82.863281 C 35 -78.78125 35 -74.699219 35 -70.496094 C 34.875 -62.332031 35 -53.921875 35.125 -45.636719 C 35.246094 -41.429688 35.246094 -37.101562 35.246094 -32.773438 C 35.246094 -28.816406 34.753906 -24.984375 34.503906 -21.023438 C 34.382812 -19.910156 34.382812 -18.675781 35.246094 -17.808594 C 36.855469 -16.324219 39.328125 -17.6875 41.058594 -18.054688 C 43.535156 -18.550781 46.132812 -18.054688 48.605469 -18.054688 C 58.5 -17.6875 68.394531 -18.054688 78.285156 -18.054688 C 88.550781 -18.054688 98.816406 -18.054688 109.082031 -18.179688 C 112.421875 -18.179688 115.761719 -18.304688 119.097656 -18.304688 C 122.316406 -18.304688 122.316406 -17.808594 125.53125 -17.808594 C 127.507812 -17.808594 129.488281 -19.167969 131.34375 -18.675781 C 133.570312 -18.054688 133.199219 -14.839844 132.953125 -13.234375 C 132.457031 -10.140625 131.589844 -7.296875 132.332031 -4.203125 C 132.582031 -3.464844 132.828125 -2.722656 132.828125 -1.855469 C 132.953125 0.617188 130.355469 0.867188 128.5 0.617188 C 120.210938 -0.617188 112.050781 -0.246094 103.765625 0 C 83.480469 0.496094 63.074219 0 42.792969 0 C 35.988281 0.125 29.0625 0 22.261719 -0.246094 C 19.789062 -0.371094 17.5625 1.113281 15.089844 1.113281 C 14.097656 1.113281 12.984375 0.742188 12.121094 0 Z M 12.121094 0 "/></g></g></g><g fill="#ffffff" fill-opacity="1"><g transform="translate(1154.117044, 1998.211235)"><g/></g></g><g fill="#ffffff" fill-opacity="1"><g transform="translate(1215.950107, 1998.211235)"><g><path d="M 8.164062 -6.183594 C 8.410156 -5.8125 8.90625 -5.566406 9.398438 -5.316406 C 24.984375 1.980469 42.792969 3.339844 59.984375 3.957031 C 79.277344 4.699219 99.0625 4.574219 117.246094 -1.980469 C 121.820312 -3.710938 126.519531 -5.9375 129.363281 -9.894531 C 131.34375 -12.492188 132.332031 -15.707031 133.074219 -18.796875 C 133.941406 -22.261719 134.433594 -25.847656 133.816406 -29.433594 C 132.828125 -35.125 128.621094 -39.945312 123.675781 -43.039062 C 118.605469 -46.007812 112.792969 -47.492188 107.101562 -48.355469 C 84.46875 -51.945312 61.097656 -48.605469 38.585938 -52.933594 C 33.761719 -53.921875 28.074219 -56.148438 27.457031 -61.097656 C 27.085938 -63.941406 28.816406 -66.785156 31.167969 -68.515625 C 33.515625 -70.246094 36.484375 -71.113281 39.328125 -71.730469 C 49.71875 -74.082031 60.476562 -74.824219 71.238281 -74.699219 C 76.554688 -74.699219 81.875 -74.453125 87.191406 -73.957031 C 89.417969 -73.835938 91.519531 -74.207031 93.621094 -73.835938 C 95.847656 -73.464844 97.949219 -72.722656 100.054688 -72.101562 C 103.640625 -71.359375 107.101562 -70.371094 110.441406 -69.257812 C 116.996094 -66.910156 123.304688 -63.691406 128.25 -58.746094 C 128.25 -64.804688 128.375 -70.867188 128.5 -76.925781 C 128.5 -77.914062 128.5 -78.78125 128.128906 -79.648438 C 127.632812 -80.636719 126.519531 -81.132812 125.53125 -81.625 C 110.070312 -88.921875 92.386719 -89.914062 75.320312 -90.160156 C 59.242188 -90.40625 42.914062 -89.914062 27.457031 -85.707031 C 20.652344 -83.851562 13.976562 -81.132812 9.277344 -75.8125 C 3.339844 -69.011719 2.226562 -58.375 6.800781 -50.460938 C 10.140625 -44.648438 15.953125 -40.6875 22.136719 -38.464844 C 28.445312 -36.113281 35.125 -35.496094 41.800781 -35 C 59.613281 -33.886719 77.542969 -34.503906 95.476562 -33.144531 C 99.0625 -32.773438 102.898438 -32.402344 105.988281 -30.546875 C 109.207031 -28.691406 111.554688 -24.984375 110.8125 -21.394531 C 109.699219 -16.945312 104.628906 -14.839844 100.175781 -13.851562 C 91.644531 -11.871094 82.738281 -11.5 73.957031 -11.253906 C 62.332031 -11.128906 50.582031 -11.378906 39.082031 -13.605469 C 27.578125 -15.832031 16.324219 -20.28125 7.171875 -27.578125 C 6.925781 -20.902344 7.050781 -14.347656 7.542969 -7.792969 C 7.667969 -7.296875 7.667969 -6.800781 7.914062 -6.429688 C 8.039062 -6.308594 8.039062 -6.183594 8.164062 -6.183594 Z M 8.164062 -6.183594 "/></g></g></g><g fill="#ffffff" fill-opacity="1"><g transform="translate(1354.703438, 1998.211235)"><g><path d="M 4.082031 -43.164062 C 3.710938 -49.347656 5.195312 -55.777344 9.398438 -62.085938 C 19.789062 -77.421875 39.328125 -84.097656 56.890625 -87.5625 C 76.058594 -91.394531 96.097656 -91.023438 114.894531 -86.820312 C 131.097656 -83.234375 147.175781 -76.308594 157.5625 -63.691406 C 167.828125 -51.449219 168.445312 -35.125 158.550781 -22.632812 C 153.359375 -15.953125 145.9375 -11.128906 138.394531 -7.296875 C 122.5625 0.371094 104.875 3.464844 87.066406 4.082031 C 72.351562 4.574219 57.507812 3.464844 43.535156 -1.113281 C 25.476562 -7.050781 5.441406 -24.117188 4.082031 -43.164062 Z M 27.207031 -43.039062 C 27.703125 -32.15625 37.722656 -22.261719 48.605469 -17.933594 C 68.640625 -9.894531 93.128906 -7.792969 113.78125 -14.964844 C 130.972656 -21.023438 152.863281 -41.308594 134.929688 -58.871094 C 130.847656 -62.828125 125.65625 -65.546875 120.460938 -67.773438 C 97.949219 -76.925781 71.980469 -76.429688 49.347656 -68.023438 C 42.914062 -65.671875 36.609375 -62.457031 32.402344 -57.261719 C 28.445312 -52.5625 27.085938 -47.738281 27.207031 -43.039062 Z M 27.207031 -43.039062 "/></g></g></g><g fill="#ffffff" fill-opacity="1"><g transform="translate(1527.464897, 1998.211235)"><g><path d="M 12.492188 -39.578125 C 12.613281 -34.753906 13.234375 -29.929688 14.964844 -25.351562 C 17.5625 -18.054688 23.003906 -11.996094 29.3125 -7.542969 C 35.742188 -3.09375 43.164062 -0.371094 50.707031 1.484375 C 68.761719 5.8125 87.808594 4.699219 105.742188 0.246094 C 115.511719 -2.226562 125.53125 -5.8125 131.714844 -13.726562 C 138.765625 -22.757812 139.136719 -35.125 139.257812 -46.625 C 139.382812 -58.003906 139.628906 -69.382812 139.753906 -80.761719 C 139.753906 -82.617188 139.628906 -84.839844 138.023438 -85.953125 C 137.03125 -86.574219 135.796875 -86.574219 134.683594 -86.574219 L 120.089844 -86.574219 C 118.851562 -86.574219 117.492188 -86.449219 116.625 -85.460938 C 116.007812 -84.71875 116.007812 -83.605469 116.007812 -82.617188 C 116.132812 -70.371094 116.378906 -58.25 116.503906 -46.007812 C 116.625 -37.226562 116.378906 -27.457031 110.320312 -21.023438 C 105.988281 -16.324219 99.3125 -14.59375 93.003906 -13.605469 C 80.882812 -11.625 68.515625 -11.871094 56.519531 -14.59375 C 51.945312 -15.582031 47.242188 -17.066406 43.535156 -20.160156 C 39.699219 -23.5 37.351562 -28.320312 36.359375 -33.390625 C 35.246094 -38.339844 35.246094 -43.535156 35.371094 -48.605469 C 35.371094 -60.105469 35.496094 -71.484375 35.617188 -82.984375 C 35.617188 -89.417969 29.558594 -86.324219 25.476562 -86.078125 C 22.261719 -85.832031 18.921875 -86.078125 15.707031 -86.695312 C 14.839844 -86.945312 13.976562 -87.066406 13.234375 -86.695312 C 11.996094 -86.078125 11.871094 -84.347656 11.996094 -82.863281 C 12.613281 -72.597656 12.863281 -62.207031 12.613281 -51.820312 C 12.492188 -47.738281 12.367188 -43.65625 12.492188 -39.578125 Z M 12.492188 -39.578125 "/></g></g></g><g fill="#ffffff" fill-opacity="1"><g transform="translate(1679.079502, 1998.211235)"><g><path d="M 9.894531 -0.246094 C 7.914062 -2.597656 9.277344 -8.410156 9.277344 -11.5 C 9.277344 -34.382812 9.277344 -57.261719 9.152344 -80.265625 C 9.152344 -82.246094 8.90625 -85.210938 10.761719 -86.574219 C 12.738281 -87.933594 15.460938 -87.066406 17.5625 -86.820312 C 20.777344 -86.449219 23.992188 -86.324219 27.085938 -86.574219 C 28.445312 -86.695312 29.804688 -86.945312 31.042969 -86.820312 C 36.980469 -86.078125 43.039062 -79.648438 47.738281 -76.429688 C 74.453125 -57.757812 101.289062 -39.328125 128.128906 -20.902344 C 129.488281 -19.910156 130.972656 -18.921875 132.085938 -17.6875 C 132.828125 -16.695312 135.054688 -13.851562 136.414062 -15.953125 C 136.910156 -16.574219 136.785156 -17.4375 136.660156 -18.179688 C 136.414062 -18.921875 136.042969 -19.539062 135.917969 -20.28125 C 135.425781 -21.644531 135.425781 -23.128906 135.546875 -24.613281 C 136.167969 -43.039062 135.796875 -61.589844 135.796875 -80.140625 C 135.796875 -84.964844 133.691406 -88.058594 140.617188 -86.945312 C 144.949219 -86.324219 149.398438 -86.203125 153.851562 -87.066406 C 158.550781 -88.058594 160.035156 -86.203125 159.171875 -81.625 C 157.191406 -71.359375 158.550781 -59.859375 158.550781 -49.46875 C 158.675781 -37.101562 158.921875 -24.734375 158.921875 -12.367188 C 158.921875 -9.277344 158.800781 -9.277344 158.800781 -6.183594 C 158.800781 -4.699219 160.035156 -2.96875 159.664062 -1.484375 C 158.675781 2.597656 151.625 0.246094 148.78125 0.125 C 142.722656 -0.246094 136.539062 -0.125 130.476562 0.371094 C 125.035156 0.867188 120.953125 -2.472656 116.625 -5.316406 C 111.0625 -9.152344 105.496094 -12.984375 99.804688 -16.820312 C 79.152344 -30.917969 58.25 -44.648438 37.472656 -58.621094 C 35.617188 -59.859375 31.660156 -66.660156 32.03125 -59.488281 C 32.527344 -50.089844 32.648438 -40.566406 32.648438 -31.167969 C 32.773438 -22.386719 31.042969 -11.75 33.269531 -3.214844 C 34.011719 -0.496094 33.019531 0.496094 30.300781 0.371094 C 24.859375 0.246094 19.167969 -0.617188 13.851562 0.617188 C 11.871094 0.988281 10.636719 0.617188 9.894531 -0.246094 Z M 9.894531 -0.246094 "/></g></g></g><g fill="#ffffff" fill-opacity="1"><g transform="translate(1846.770664, 1998.211235)"><g><path d="M 11.871094 0.125 C 9.894531 -1.609375 12.242188 -4.945312 12.492188 -7.171875 C 12.738281 -9.523438 11.871094 -11.75 11.871094 -14.222656 C 11.871094 -18.179688 11.996094 -22.136719 11.996094 -25.972656 C 11.871094 -33.761719 11.75 -41.679688 11.75 -49.46875 L 11.75 -55.652344 C 11.75 -62.703125 11.625 -69.628906 11.625 -76.679688 C 11.5 -80.019531 10.636719 -83.976562 13.726562 -86.203125 C 18.054688 -89.417969 25.847656 -86.695312 30.796875 -86.695312 C 53.058594 -86.695312 75.441406 -88.058594 97.703125 -86.203125 C 114.523438 -84.839844 132.582031 -80.761719 146.433594 -70.742188 C 148.164062 -69.382812 150.019531 -68.394531 151.503906 -66.910156 C 161.148438 -57.507812 163.5 -41.554688 156.945312 -29.683594 C 150.390625 -17.6875 137.15625 -10.265625 124.542969 -6.058594 C 122.5625 -5.441406 120.460938 -4.945312 118.480469 -4.453125 C 116.378906 -3.832031 114.398438 -3.585938 112.296875 -3.214844 C 81.132812 3.339844 47.738281 -1.855469 16.078125 0.867188 C 15.089844 0.867188 13.976562 0.988281 12.984375 0.617188 C 12.492188 0.496094 12.242188 0.246094 11.871094 0.125 Z M 35 -16.203125 C 35.867188 -15.335938 37.472656 -15.335938 38.710938 -15.460938 C 65.546875 -17.4375 93.5 -12.738281 119.347656 -22.632812 C 130.476562 -26.835938 141.113281 -37.96875 136.539062 -50.707031 C 135.917969 -52.6875 134.804688 -54.417969 133.445312 -56.023438 C 129.363281 -60.972656 124.046875 -63.941406 117.988281 -65.917969 C 100.175781 -71.730469 79.398438 -70.617188 60.972656 -70.617188 L 39.082031 -70.617188 C 32.773438 -70.617188 35.246094 -68.640625 35.246094 -64.3125 C 35.246094 -61.34375 34.753906 -61.34375 34.753906 -58.375 C 34.753906 -55.28125 35 -55.28125 35 -52.316406 C 35 -49.347656 35 -49.347656 35 -46.253906 L 35 -24.488281 C 35 -22.386719 33.390625 -17.933594 34.875 -16.324219 C 34.875 -16.203125 35 -16.203125 35 -16.203125 Z M 35 -16.203125 "/></g></g></g></svg>