<svg xmlns="http://www.w3.org/2000/svg" xmlns:xlink="http://www.w3.org/1999/xlink" width="500" zoomAndPan="magnify" viewBox="0 0 375 374.999991" height="500" preserveAspectRatio="xMidYMid meet" version="1.0"><defs><clipPath id="a6e822e031"><path d="M 278 149 L 337.5 149 L 337.5 215 L 278 215 Z M 278 149 " clip-rule="nonzero"/></clipPath><clipPath id="5d96f8b5d8"><path d="M 221 265 L 314 265 L 314 331.585938 L 221 331.585938 Z M 221 265 " clip-rule="nonzero"/></clipPath><clipPath id="9f1650cd82"><path d="M 162 43.585938 L 235 43.585938 L 235 113 L 162 113 Z M 162 43.585938 " clip-rule="nonzero"/></clipPath><clipPath id="7ab97983f6"><path d="M 37.5 150 L 99 150 L 99 216 L 37.5 216 Z M 37.5 150 " clip-rule="nonzero"/></clipPath><clipPath id="bc3f4f1c01"><path d="M 97 271 L 148 271 L 148 331.585938 L 97 331.585938 Z M 97 271 " clip-rule="nonzero"/></clipPath></defs><path fill="#17ead9" d="M 235.800781 72.453125 C 235.800781 74.109375 237.144531 75.457031 238.804688 75.457031 L 248.714844 75.457031 C 250.371094 75.457031 251.71875 74.109375 251.71875 72.453125 C 251.71875 70.792969 250.371094 69.449219 248.714844 69.449219 L 238.804688 69.449219 C 237.144531 69.449219 235.800781 70.792969 235.800781 72.453125 Z M 235.800781 72.453125 " fill-opacity="1" fill-rule="nonzero"/><path fill="#17ead9" d="M 237.8125 68.585938 C 238.445312 68.585938 239.082031 68.386719 239.625 67.976562 L 247.523438 61.992188 C 248.84375 60.992188 249.105469 59.105469 248.101562 57.785156 C 247.101562 56.460938 245.21875 56.203125 243.894531 57.203125 L 235.996094 63.1875 C 234.675781 64.191406 234.414062 66.074219 235.417969 67.394531 C 236.007812 68.175781 236.90625 68.585938 237.8125 68.585938 Z M 237.8125 68.585938 " fill-opacity="1" fill-rule="nonzero"/><path fill="#17ead9" d="M 247.523438 82.910156 L 239.625 76.925781 C 238.304688 75.925781 236.417969 76.183594 235.417969 77.507812 C 234.414062 78.828125 234.675781 80.714844 235.996094 81.714844 L 243.894531 87.699219 C 244.4375 88.109375 245.074219 88.308594 245.707031 88.308594 C 246.613281 88.308594 247.511719 87.898438 248.105469 87.121094 C 249.105469 85.796875 248.84375 83.914062 247.523438 82.910156 Z M 247.523438 82.910156 " fill-opacity="1" fill-rule="nonzero"/><g clip-path="url(#a6e822e031)"><path fill="#17ead9" d="M 334.492188 151.007812 L 303.8125 151.007812 C 303.632812 150.53125 303.453125 150.050781 303.273438 149.578125 L 299.546875 151.007812 L 281.828125 151.007812 C 280.167969 151.007812 278.824219 152.351562 278.824219 154.011719 L 278.824219 194.445312 C 278.824219 196.105469 280.167969 197.449219 281.828125 197.449219 L 293.96875 197.449219 L 293.96875 211.203125 C 293.96875 212.4375 294.730469 213.550781 295.882812 214 C 296.238281 214.136719 296.609375 214.207031 296.972656 214.207031 C 297.796875 214.207031 298.605469 213.867188 299.183594 213.234375 L 304.652344 207.296875 C 304.503906 208.554688 304.339844 209.816406 304.15625 211.066406 L 310.097656 211.945312 C 310.363281 210.167969 310.589844 208.359375 310.773438 206.566406 L 305.792969 206.054688 L 309.257812 202.285156 L 311.132812 202.414062 C 311.183594 201.648438 311.230469 200.871094 311.269531 200.101562 L 313.707031 197.449219 L 334.492188 197.449219 C 336.148438 197.449219 337.496094 196.105469 337.496094 194.445312 L 337.496094 154.011719 C 337.496094 152.351562 336.148438 151.007812 334.492188 151.007812 Z M 331.488281 191.445312 L 312.390625 191.445312 C 311.550781 191.445312 310.75 191.796875 310.179688 192.414062 L 299.976562 203.5 L 299.976562 194.445312 C 299.976562 192.789062 298.632812 191.445312 296.972656 191.445312 L 284.832031 191.445312 L 284.832031 157.015625 L 331.488281 157.015625 Z M 331.488281 191.445312 " fill-opacity="1" fill-rule="nonzero"/></g><path fill="#17ead9" d="M 290.996094 188.585938 C 292.554688 189.152344 294.277344 188.347656 294.84375 186.789062 L 296.105469 183.316406 L 303.332031 183.316406 L 304.59375 186.789062 C 305.039062 188.011719 306.191406 188.769531 307.417969 188.769531 C 307.757812 188.769531 308.105469 188.710938 308.441406 188.585938 C 310.003906 188.019531 310.808594 186.296875 310.242188 184.738281 L 310.070312 184.269531 C 311.433594 187.089844 314.324219 189.039062 317.660156 189.039062 C 319.035156 189.039062 320.332031 188.707031 321.476562 188.125 C 321.988281 188.527344 322.632812 188.769531 323.335938 188.769531 C 324.992188 188.769531 326.339844 187.421875 326.339844 185.765625 L 326.339844 164.566406 C 326.339844 162.910156 324.992188 161.5625 323.335938 161.5625 C 321.675781 161.5625 320.332031 162.910156 320.332031 164.566406 L 320.332031 172.625 C 319.492188 172.34375 318.59375 172.1875 317.660156 172.1875 C 313.015625 172.1875 309.234375 175.96875 309.234375 180.613281 C 309.234375 181.324219 309.324219 182.011719 309.492188 182.671875 L 302.542969 163.542969 C 302.113281 162.355469 300.984375 161.5625 299.71875 161.5625 C 298.457031 161.5625 297.328125 162.355469 296.894531 163.542969 L 289.199219 184.738281 C 288.628906 186.296875 289.4375 188.019531 290.996094 188.585938 Z M 317.660156 178.195312 C 318.992188 178.195312 320.078125 179.28125 320.078125 180.613281 C 320.078125 181.945312 318.992188 183.03125 317.660156 183.03125 C 316.328125 183.03125 315.242188 181.945312 315.242188 180.613281 C 315.242188 179.28125 316.328125 178.195312 317.660156 178.195312 Z M 299.71875 173.367188 L 301.152344 177.308594 L 298.289062 177.308594 Z M 299.71875 173.367188 " fill-opacity="1" fill-rule="nonzero"/><path fill="#17ead9" d="M 79.429688 180.003906 L 62.859375 170.433594 C 61.929688 169.898438 60.78125 169.898438 59.855469 170.433594 C 58.925781 170.96875 58.351562 171.960938 58.351562 173.035156 L 58.351562 192.171875 C 58.351562 193.246094 58.925781 194.234375 59.855469 194.773438 C 60.320312 195.039062 60.835938 195.175781 61.355469 195.175781 C 61.875 195.175781 62.394531 195.039062 62.859375 194.773438 L 79.429688 185.203125 C 80.359375 184.667969 80.933594 183.675781 80.933594 182.601562 C 80.933594 181.53125 80.359375 180.539062 79.429688 180.003906 Z M 64.359375 186.96875 L 64.359375 178.238281 L 71.921875 182.605469 Z M 64.359375 186.96875 " fill-opacity="1" fill-rule="nonzero"/><path fill="#17ead9" d="M 83.574219 161.894531 L 88.800781 161.894531 L 88.800781 166.574219 L 83.574219 166.574219 Z M 83.574219 161.894531 " fill-opacity="1" fill-rule="nonzero"/><path fill="#17ead9" d="M 46.585938 161.894531 L 51.8125 161.894531 L 51.8125 166.574219 L 46.585938 166.574219 Z M 46.585938 161.894531 " fill-opacity="1" fill-rule="nonzero"/><path fill="#17ead9" d="M 55.832031 161.894531 L 61.058594 161.894531 L 61.058594 166.574219 L 55.832031 166.574219 Z M 55.832031 161.894531 " fill-opacity="1" fill-rule="nonzero"/><path fill="#17ead9" d="M 74.328125 161.894531 L 79.554688 161.894531 L 79.554688 166.574219 L 74.328125 166.574219 Z M 74.328125 161.894531 " fill-opacity="1" fill-rule="nonzero"/><path fill="#17ead9" d="M 65.078125 161.894531 L 70.304688 161.894531 L 70.304688 166.574219 L 65.078125 166.574219 Z M 65.078125 161.894531 " fill-opacity="1" fill-rule="nonzero"/><path fill="#17ead9" d="M 65.078125 198.953125 L 70.304688 198.953125 L 70.304688 203.636719 L 65.078125 203.636719 Z M 65.078125 198.953125 " fill-opacity="1" fill-rule="nonzero"/><path fill="#17ead9" d="M 83.574219 198.953125 L 88.800781 198.953125 L 88.800781 203.636719 L 83.574219 203.636719 Z M 83.574219 198.953125 " fill-opacity="1" fill-rule="nonzero"/><path fill="#17ead9" d="M 55.832031 198.953125 L 61.058594 198.953125 L 61.058594 203.636719 L 55.832031 203.636719 Z M 55.832031 198.953125 " fill-opacity="1" fill-rule="nonzero"/><path fill="#17ead9" d="M 74.328125 198.953125 L 79.554688 198.953125 L 79.554688 203.636719 L 74.328125 203.636719 Z M 74.328125 198.953125 " fill-opacity="1" fill-rule="nonzero"/><path fill="#17ead9" d="M 46.585938 198.953125 L 51.8125 198.953125 L 51.8125 203.636719 L 46.585938 203.636719 Z M 46.585938 198.953125 " fill-opacity="1" fill-rule="nonzero"/><path fill="#17ead9" d="M 106.203125 292.988281 C 106.203125 294.453125 107.390625 295.640625 108.855469 295.640625 L 134.234375 295.640625 C 135.699219 295.640625 136.886719 294.453125 136.886719 292.988281 C 136.886719 291.523438 135.699219 290.335938 134.234375 290.335938 L 108.855469 290.335938 C 107.390625 290.335938 106.203125 291.523438 106.203125 292.988281 Z M 106.203125 292.988281 " fill-opacity="1" fill-rule="nonzero"/><path fill="#17ead9" d="M 134.234375 299.332031 L 108.855469 299.332031 C 107.390625 299.332031 106.203125 300.519531 106.203125 301.988281 C 106.203125 303.453125 107.390625 304.640625 108.855469 304.640625 L 134.234375 304.640625 C 135.699219 304.640625 136.886719 303.453125 136.886719 301.988281 C 136.886719 300.519531 135.699219 299.332031 134.234375 299.332031 Z M 134.234375 299.332031 " fill-opacity="1" fill-rule="nonzero"/><path fill="#17ead9" d="M 134.234375 308.332031 L 108.855469 308.332031 C 107.390625 308.332031 106.203125 309.519531 106.203125 310.984375 C 106.203125 312.449219 107.390625 313.636719 108.855469 313.636719 L 134.234375 313.636719 C 135.699219 313.636719 136.886719 312.449219 136.886719 310.984375 C 136.886719 309.519531 135.699219 308.332031 134.234375 308.332031 Z M 134.234375 308.332031 " fill-opacity="1" fill-rule="nonzero"/><path fill="#17ead9" d="M 134.234375 317.328125 L 108.855469 317.328125 C 107.390625 317.328125 106.203125 318.515625 106.203125 319.980469 C 106.203125 321.445312 107.390625 322.632812 108.855469 322.632812 L 134.234375 322.632812 C 135.699219 322.632812 136.886719 321.445312 136.886719 319.980469 C 136.886719 318.515625 135.699219 317.328125 134.234375 317.328125 Z M 134.234375 317.328125 " fill-opacity="1" fill-rule="nonzero"/><g clip-path="url(#5d96f8b5d8)"><path fill="#17ead9" d="M 311.566406 283.605469 L 301.734375 279.367188 L 304.777344 269.101562 C 305.074219 268.097656 304.757812 267.015625 303.964844 266.335938 C 303.171875 265.652344 302.054688 265.5 301.109375 265.945312 L 285.402344 273.296875 C 284.714844 273.617188 284.199219 274.21875 283.984375 274.945312 L 280.609375 286.324219 L 276.183594 288.398438 C 275.171875 286.664062 273.976562 285.039062 272.613281 283.546875 C 272.972656 283.207031 273.332031 282.863281 273.6875 282.523438 L 269.519531 278.195312 C 269.054688 278.644531 268.578125 279.09375 268.101562 279.539062 C 266.398438 278.316406 264.5625 277.285156 262.613281 276.460938 C 259.085938 274.96875 255.339844 274.214844 251.480469 274.214844 C 247.621094 274.214844 243.875 274.96875 240.347656 276.460938 C 236.945312 277.902344 233.886719 279.964844 231.261719 282.589844 C 228.636719 285.214844 226.574219 288.273438 225.132812 291.675781 C 223.640625 295.203125 222.886719 298.949219 222.886719 302.808594 C 222.886719 303.789062 222.933594 304.761719 223.03125 305.726562 C 222.433594 305.914062 221.832031 306.097656 221.234375 306.269531 L 222.925781 312.035156 C 223.371094 311.90625 223.820312 311.769531 224.273438 311.632812 C 224.523438 312.410156 224.8125 313.179688 225.132812 313.941406 C 226.574219 317.347656 228.636719 320.402344 231.261719 323.027344 C 233.886719 325.652344 236.945312 327.714844 240.347656 329.15625 C 243.875 330.648438 247.621094 331.40625 251.480469 331.40625 C 255.339844 331.40625 259.085938 330.648438 262.613281 329.15625 C 266.015625 327.714844 269.074219 325.652344 271.699219 323.027344 C 274.324219 320.402344 276.386719 317.347656 277.828125 313.941406 C 279.320312 310.414062 280.078125 306.667969 280.078125 302.808594 C 280.078125 299.503906 279.519531 296.277344 278.421875 293.207031 L 282.859375 291.128906 L 293.757812 295.828125 C 294.09375 295.972656 294.453125 296.042969 294.808594 296.042969 C 295.195312 296.042969 295.578125 295.960938 295.933594 295.792969 L 311.640625 288.441406 C 312.585938 288 313.1875 287.042969 313.167969 285.996094 C 313.152344 284.953125 312.527344 284.015625 311.566406 283.605469 Z M 267.949219 319.277344 C 263.550781 323.675781 257.703125 326.097656 251.480469 326.097656 C 245.257812 326.097656 239.410156 323.675781 235.011719 319.277344 C 230.613281 314.878906 228.191406 309.03125 228.191406 302.808594 C 228.191406 296.585938 230.613281 290.738281 235.011719 286.339844 C 239.410156 281.941406 245.257812 279.519531 251.480469 279.519531 C 257.703125 279.519531 263.550781 281.941406 267.949219 286.339844 C 269.265625 287.65625 270.40625 289.105469 271.355469 290.65625 L 267.53125 292.445312 C 266.800781 291.324219 265.953125 290.273438 264.984375 289.304688 C 261.378906 285.695312 256.582031 283.710938 251.480469 283.710938 C 246.378906 283.710938 241.582031 285.695312 237.976562 289.304688 C 234.367188 292.910156 232.382812 297.707031 232.382812 302.808594 C 232.382812 307.910156 234.367188 312.707031 237.976562 316.3125 C 241.582031 319.921875 246.378906 321.90625 251.480469 321.90625 C 256.582031 321.90625 261.378906 319.921875 264.984375 316.3125 C 268.59375 312.707031 270.578125 307.910156 270.578125 302.808594 C 270.578125 300.898438 270.300781 299.035156 269.765625 297.257812 L 273.59375 295.464844 C 274.367188 297.804688 274.769531 300.273438 274.769531 302.808594 C 274.769531 309.03125 272.347656 314.878906 267.949219 319.277344 Z M 249.28125 303.917969 C 249.730469 304.882812 250.6875 305.449219 251.683594 305.449219 C 252.0625 305.449219 252.445312 305.367188 252.808594 305.195312 L 255.644531 303.867188 C 255.171875 305.726562 253.484375 307.105469 251.480469 307.105469 C 249.109375 307.105469 247.183594 305.179688 247.183594 302.808594 C 247.183594 300.441406 249.109375 298.511719 251.480469 298.511719 C 252.207031 298.511719 252.894531 298.695312 253.496094 299.015625 L 250.558594 300.390625 C 249.230469 301.011719 248.660156 302.59375 249.28125 303.917969 Z M 251.480469 293.207031 C 246.183594 293.207031 241.878906 297.515625 241.878906 302.808594 C 241.878906 308.105469 246.183594 312.414062 251.480469 312.414062 C 256.773438 312.414062 261.082031 308.105469 261.082031 302.808594 C 261.082031 302.320312 261.046875 301.84375 260.976562 301.375 L 264.882812 299.542969 C 265.136719 300.589844 265.273438 301.683594 265.273438 302.808594 C 265.273438 310.414062 259.085938 316.601562 251.480469 316.601562 C 243.875 316.601562 237.6875 310.414062 237.6875 302.808594 C 237.6875 295.203125 243.875 289.015625 251.480469 289.015625 C 256.070312 289.015625 260.144531 291.269531 262.652344 294.730469 L 258.761719 296.554688 C 256.996094 294.503906 254.386719 293.207031 251.480469 293.207031 Z M 288.730469 277.59375 L 298.015625 273.25 L 296.320312 278.972656 L 287.035156 283.316406 Z M 294.765625 290.484375 L 289.285156 288.121094 L 298.566406 283.777344 L 304.046875 286.140625 Z M 294.765625 290.484375 " fill-opacity="1" fill-rule="nonzero"/></g><path fill="#17ead9" d="M 223.847656 262.539062 C 223.847656 260.789062 222.429688 259.371094 220.679688 259.371094 L 206.601562 259.371094 L 206.601562 246.34375 L 256.300781 246.34375 C 258.046875 246.34375 259.46875 244.925781 259.46875 243.175781 L 259.46875 143.285156 C 259.46875 141.535156 258.046875 140.117188 256.300781 140.117188 L 122.121094 140.117188 C 120.371094 140.117188 118.953125 141.535156 118.953125 143.285156 L 118.953125 243.175781 C 118.953125 244.925781 120.371094 246.34375 122.121094 246.34375 L 171.820312 246.34375 L 171.820312 259.371094 L 157.742188 259.371094 C 155.992188 259.371094 154.574219 260.789062 154.574219 262.539062 C 154.574219 264.289062 155.992188 265.707031 157.742188 265.707031 L 220.679688 265.707031 C 222.429688 265.707031 223.847656 264.289062 223.847656 262.539062 Z M 125.289062 146.453125 L 253.132812 146.453125 L 253.132812 221.472656 L 125.289062 221.472656 Z M 200.265625 259.371094 L 178.15625 259.371094 L 178.15625 246.34375 L 200.265625 246.34375 Z M 203.433594 239.886719 L 174.988281 239.886719 C 174.683594 239.886719 174.390625 239.929688 174.113281 240.007812 L 125.289062 240.007812 L 125.289062 227.804688 L 253.132812 227.804688 L 253.132812 240.007812 L 204.308594 240.007812 C 204.03125 239.929688 203.738281 239.886719 203.433594 239.886719 Z M 203.433594 239.886719 " fill-opacity="1" fill-rule="nonzero"/><path fill="#17ead9" d="M 90.457031 129.015625 L 85.453125 125.691406 C 84.5 127.125 83.566406 128.597656 82.675781 130.070312 L 87.816406 133.179688 C 88.664062 131.78125 89.554688 130.378906 90.457031 129.015625 Z M 90.457031 129.015625 " fill-opacity="1" fill-rule="nonzero"/><path fill="#17ead9" d="M 107.242188 108.976562 L 103.09375 104.632812 C 101.847656 105.820312 100.613281 107.050781 99.417969 108.292969 L 103.746094 112.457031 C 104.882812 111.28125 106.058594 110.109375 107.242188 108.976562 Z M 107.242188 108.976562 " fill-opacity="1" fill-rule="nonzero"/><path fill="#17ead9" d="M 113.769531 103.1875 L 109.953125 98.550781 C 108.625 99.640625 107.300781 100.777344 106.019531 101.925781 L 110.027344 106.402344 C 111.25 105.308594 112.507812 104.226562 113.769531 103.1875 Z M 113.769531 103.1875 " fill-opacity="1" fill-rule="nonzero"/><path fill="#17ead9" d="M 81.917969 144.230469 L 76.472656 141.6875 C 75.746094 143.25 75.039062 144.847656 74.378906 146.433594 L 79.925781 148.742188 C 80.554688 147.234375 81.222656 145.714844 81.917969 144.230469 Z M 81.917969 144.230469 " fill-opacity="1" fill-rule="nonzero"/><path fill="#17ead9" d="M 101.160156 115.234375 L 96.699219 111.207031 C 95.546875 112.484375 94.402344 113.804688 93.304688 115.128906 L 97.929688 118.964844 C 98.972656 117.707031 100.0625 116.449219 101.160156 115.234375 Z M 101.160156 115.234375 " fill-opacity="1" fill-rule="nonzero"/><path fill="#17ead9" d="M 85.902344 136.460938 L 80.664062 133.519531 C 79.824219 135.023438 79 136.5625 78.222656 138.097656 L 83.578125 140.816406 C 84.320312 139.355469 85.101562 137.890625 85.902344 136.460938 Z M 85.902344 136.460938 " fill-opacity="1" fill-rule="nonzero"/><path fill="#17ead9" d="M 143.589844 85.320312 L 141.304688 79.765625 C 139.714844 80.417969 138.117188 81.117188 136.554688 81.839844 L 139.074219 87.292969 C 140.558594 86.605469 142.078125 85.941406 143.589844 85.320312 Z M 143.589844 85.320312 " fill-opacity="1" fill-rule="nonzero"/><path fill="#17ead9" d="M 160.144531 79.914062 L 158.710938 74.078125 C 157.042969 74.488281 155.359375 74.941406 153.707031 75.421875 L 155.386719 81.1875 C 156.953125 80.734375 158.554688 80.304688 160.144531 79.914062 Z M 160.144531 79.914062 " fill-opacity="1" fill-rule="nonzero"/><path fill="#17ead9" d="M 135.660156 88.9375 L 132.964844 83.570312 C 131.425781 84.34375 129.886719 85.15625 128.382812 85.992188 L 131.304688 91.242188 C 132.730469 90.449219 134.199219 89.671875 135.660156 88.9375 Z M 135.660156 88.9375 " fill-opacity="1" fill-rule="nonzero"/><path fill="#17ead9" d="M 95.550781 121.925781 L 90.808594 118.242188 C 89.75 119.601562 88.710938 121 87.714844 122.402344 L 92.609375 125.886719 C 93.558594 124.550781 94.546875 123.21875 95.550781 121.925781 Z M 95.550781 121.925781 " fill-opacity="1" fill-rule="nonzero"/><path fill="#17ead9" d="M 151.765625 82.304688 L 149.902344 76.597656 C 148.265625 77.128906 146.621094 77.707031 145.011719 78.308594 L 147.117188 83.933594 C 148.648438 83.363281 150.210938 82.8125 151.765625 82.304688 Z M 151.765625 82.304688 " fill-opacity="1" fill-rule="nonzero"/><path fill="#17ead9" d="M 120.710938 97.898438 L 117.246094 92.988281 C 115.84375 93.980469 114.4375 95.015625 113.074219 96.066406 L 116.738281 100.824219 C 118.035156 99.828125 119.371094 98.84375 120.710938 97.898438 Z M 120.710938 97.898438 " fill-opacity="1" fill-rule="nonzero"/><path fill="#17ead9" d="M 128.019531 93.140625 L 124.929688 87.988281 C 123.453125 88.871094 121.976562 89.796875 120.542969 90.746094 L 123.84375 95.761719 C 125.210938 94.863281 126.613281 93.980469 128.019531 93.140625 Z M 128.019531 93.140625 " fill-opacity="1" fill-rule="nonzero"/><g clip-path="url(#9f1650cd82)"><path fill="#17ead9" d="M 164.566406 78.917969 C 166.574219 83.320312 170.851562 86.476562 175.894531 86.871094 L 175.894531 104.722656 C 175.894531 108.753906 179.175781 112.035156 183.207031 112.035156 L 183.917969 112.035156 C 187.949219 112.035156 191.230469 108.753906 191.230469 104.722656 L 191.230469 86.914062 L 196.675781 86.914062 C 196.785156 86.949219 196.894531 86.980469 197.007812 87.003906 C 205.695312 88.707031 213.75 92.75 220.308594 98.691406 L 223.804688 101.863281 C 224.367188 102.375 225.089844 102.640625 225.820312 102.640625 C 226.234375 102.640625 226.648438 102.558594 227.039062 102.382812 C 228.125 101.902344 228.824219 100.828125 228.824219 99.636719 L 228.832031 81.894531 C 232.386719 80.644531 234.945312 77.253906 234.945312 73.273438 C 234.945312 69.292969 232.386719 65.902344 228.832031 64.652344 L 228.824219 46.820312 C 228.824219 45.632812 228.125 44.554688 227.039062 44.074219 C 225.953125 43.59375 224.683594 43.796875 223.804688 44.59375 L 220.308594 47.765625 C 213.75 53.707031 205.695312 57.75 197.007812 59.457031 C 196.789062 59.5 196.578125 59.566406 196.378906 59.652344 L 176.980469 59.652344 C 169.546875 59.652344 163.484375 65.632812 163.351562 73.035156 C 163.113281 73.085938 162.875 73.132812 162.640625 73.183594 L 163.878906 79.0625 C 164.109375 79.011719 164.335938 78.964844 164.566406 78.917969 Z M 228.8125 72.839844 C 228.828125 72.71875 228.835938 72.597656 228.835938 72.472656 L 228.832031 70.003906 C 229.710938 70.820312 230.261719 71.984375 230.261719 73.273438 C 230.261719 74.5625 229.710938 75.726562 228.832031 76.542969 L 228.832031 73.984375 C 228.832031 73.863281 228.824219 73.742188 228.8125 73.621094 Z M 200.605469 73.984375 L 200.605469 64.8125 C 208.777344 62.816406 216.378906 58.960938 222.820312 53.546875 L 222.824219 72.109375 C 222.8125 72.226562 222.804688 72.351562 222.804688 72.476562 L 222.804688 73.984375 C 222.804688 74.109375 222.8125 74.230469 222.824219 74.351562 L 222.820312 92.914062 C 216.378906 87.496094 208.777344 83.640625 200.605469 81.644531 Z M 185.222656 104.722656 C 185.222656 105.441406 184.636719 106.027344 183.917969 106.027344 L 183.207031 106.027344 C 182.488281 106.027344 181.902344 105.441406 181.902344 104.722656 L 181.902344 86.9375 L 185.222656 86.9375 Z M 176.976562 65.660156 L 194.582031 65.660156 L 194.582031 72.472656 C 194.582031 72.570312 194.589844 72.660156 194.597656 72.753906 L 194.597656 73.707031 C 194.585938 73.796875 194.582031 73.890625 194.582031 73.984375 L 194.582031 80.910156 L 176.976562 80.910156 C 172.773438 80.910156 169.355469 77.488281 169.355469 73.285156 C 169.355469 69.082031 172.773438 65.660156 176.976562 65.660156 Z M 176.976562 65.660156 " fill-opacity="1" fill-rule="nonzero"/></g><path fill="#17ead9" d="M 73.546875 218.332031 L 67.671875 219.582031 C 68.035156 221.289062 68.441406 223.007812 68.875 224.691406 L 74.691406 223.1875 C 74.277344 221.585938 73.894531 219.949219 73.546875 218.332031 Z M 73.546875 218.332031 " fill-opacity="1" fill-rule="nonzero"/><path fill="#17ead9" d="M 81.964844 243.394531 L 76.523438 245.941406 C 77.261719 247.519531 78.042969 249.105469 78.847656 250.648438 L 84.175781 247.871094 C 83.410156 246.402344 82.664062 244.898438 81.964844 243.394531 Z M 81.964844 243.394531 " fill-opacity="1" fill-rule="nonzero"/><path fill="#17ead9" d="M 75.714844 226.890625 L 69.953125 228.585938 C 70.441406 230.257812 70.976562 231.941406 71.539062 233.589844 L 77.226562 231.648438 C 76.691406 230.082031 76.183594 228.480469 75.714844 226.890625 Z M 75.714844 226.890625 " fill-opacity="1" fill-rule="nonzero"/><path fill="#17ead9" d="M 78.527344 235.261719 L 72.90625 237.386719 C 73.523438 239.015625 74.183594 240.65625 74.871094 242.257812 L 80.394531 239.890625 C 79.738281 238.367188 79.113281 236.808594 78.527344 235.261719 Z M 78.527344 235.261719 " fill-opacity="1" fill-rule="nonzero"/><path fill="#17ead9" d="M 90.632812 258.773438 L 85.636719 262.109375 C 86.605469 263.558594 87.613281 265.007812 88.644531 266.414062 L 93.492188 262.867188 C 92.515625 261.527344 91.550781 260.152344 90.632812 258.773438 Z M 90.632812 258.773438 " fill-opacity="1" fill-rule="nonzero"/><path fill="#17ead9" d="M 95.808594 265.929688 L 91.078125 269.632812 C 92.152344 271.003906 93.269531 272.371094 94.398438 273.699219 L 98.96875 269.796875 C 97.894531 268.539062 96.832031 267.238281 95.808594 265.929688 Z M 95.808594 265.929688 " fill-opacity="1" fill-rule="nonzero"/><path fill="#17ead9" d="M 86.007812 251.25 L 80.773438 254.199219 C 81.628906 255.714844 82.527344 257.234375 83.449219 258.714844 L 88.550781 255.542969 C 87.675781 254.136719 86.820312 252.691406 86.007812 251.25 Z M 86.007812 251.25 " fill-opacity="1" fill-rule="nonzero"/><g clip-path="url(#7ab97983f6)"><path fill="#17ead9" d="M 72.597656 213.34375 L 89.027344 213.34375 C 94.515625 213.34375 98.976562 208.878906 98.976562 203.394531 L 98.976562 161.8125 C 98.976562 156.328125 94.515625 151.863281 89.027344 151.863281 L 77.445312 151.863281 L 72.90625 150.144531 C 72.6875 150.710938 72.476562 151.289062 72.269531 151.863281 L 47.449219 151.863281 C 41.960938 151.863281 37.496094 156.328125 37.496094 161.8125 L 37.496094 203.394531 C 37.496094 208.878906 41.960938 213.34375 47.449219 213.34375 L 66.511719 213.34375 C 66.628906 214.101562 66.757812 214.859375 66.894531 215.609375 L 72.808594 214.550781 C 72.734375 214.152344 72.664062 213.75 72.597656 213.34375 Z M 47.449219 207.335938 C 45.273438 207.335938 43.503906 205.566406 43.503906 203.394531 L 43.503906 161.8125 C 43.503906 159.640625 45.273438 157.871094 47.449219 157.871094 L 89.027344 157.871094 C 91.203125 157.871094 92.972656 159.640625 92.972656 161.8125 L 92.972656 161.894531 L 92.820312 161.894531 L 92.820312 166.574219 L 92.972656 166.574219 L 92.972656 198.953125 L 92.820312 198.953125 L 92.820312 203.632812 L 92.960938 203.632812 C 92.835938 205.695312 91.121094 207.335938 89.027344 207.335938 Z M 47.449219 207.335938 " fill-opacity="1" fill-rule="nonzero"/></g><path fill="#17ead9" d="M 188.195312 310.992188 C 187.476562 310.992188 186.746094 310.984375 186.027344 310.972656 L 185.917969 316.976562 C 186.671875 316.992188 187.4375 317 188.195312 317 C 189.199219 317 190.214844 316.984375 191.214844 316.960938 L 191.070312 310.957031 C 190.117188 310.980469 189.152344 310.992188 188.195312 310.992188 Z M 188.195312 310.992188 " fill-opacity="1" fill-rule="nonzero"/><path fill="#17ead9" d="M 212.597656 308.449219 L 213.839844 314.324219 C 215.558594 313.960938 217.292969 313.554688 218.996094 313.117188 L 217.5 307.300781 C 215.878906 307.714844 214.230469 308.101562 212.597656 308.449219 Z M 212.597656 308.449219 " fill-opacity="1" fill-rule="nonzero"/><path fill="#17ead9" d="M 203.816406 309.960938 L 204.609375 315.914062 C 206.351562 315.683594 208.109375 315.410156 209.839844 315.101562 L 208.792969 309.1875 C 207.148438 309.480469 205.472656 309.738281 203.816406 309.960938 Z M 203.816406 309.960938 " fill-opacity="1" fill-rule="nonzero"/><path fill="#17ead9" d="M 167.277344 315.230469 C 169.007812 315.527344 170.769531 315.789062 172.515625 316.011719 L 173.273438 310.050781 C 171.613281 309.839844 169.9375 309.589844 168.289062 309.308594 Z M 167.277344 315.230469 " fill-opacity="1" fill-rule="nonzero"/><path fill="#17ead9" d="M 176.566406 316.457031 C 178.316406 316.621094 180.089844 316.75 181.847656 316.835938 L 182.152344 310.835938 C 180.480469 310.753906 178.789062 310.628906 177.128906 310.472656 Z M 176.566406 316.457031 " fill-opacity="1" fill-rule="nonzero"/><path fill="#17ead9" d="M 158.109375 313.296875 C 159.8125 313.726562 161.550781 314.121094 163.273438 314.476562 L 164.480469 308.589844 C 162.84375 308.253906 161.191406 307.878906 159.570312 307.46875 Z M 158.109375 313.296875 " fill-opacity="1" fill-rule="nonzero"/><path fill="#17ead9" d="M 194.941406 310.800781 L 195.28125 316.796875 C 197.039062 316.699219 198.8125 316.558594 200.5625 316.386719 L 199.964844 310.40625 C 198.304688 310.574219 196.613281 310.707031 194.941406 310.800781 Z M 194.941406 310.800781 " fill-opacity="1" fill-rule="nonzero"/><path fill="#17ead9" d="M 149.113281 310.671875 C 150.78125 311.226562 152.484375 311.757812 154.171875 312.242188 L 155.828125 306.464844 C 154.222656 306.003906 152.601562 305.503906 151.015625 304.972656 Z M 149.113281 310.671875 " fill-opacity="1" fill-rule="nonzero"/><g clip-path="url(#bc3f4f1c01)"><path fill="#17ead9" d="M 145.945312 286.410156 C 145.945312 285.707031 145.664062 285.03125 145.167969 284.535156 L 132.9375 272.304688 C 132.894531 272.265625 132.855469 272.226562 132.8125 272.191406 C 132.800781 272.179688 132.789062 272.171875 132.78125 272.160156 C 132.738281 272.125 132.699219 272.09375 132.65625 272.0625 C 132.652344 272.058594 132.644531 272.054688 132.640625 272.050781 C 132.59375 272.015625 132.546875 271.984375 132.5 271.953125 C 132.488281 271.945312 132.472656 271.9375 132.460938 271.925781 C 132.417969 271.898438 132.371094 271.875 132.328125 271.851562 C 132.320312 271.847656 132.316406 271.84375 132.3125 271.839844 C 132.261719 271.8125 132.210938 271.789062 132.160156 271.765625 C 132.144531 271.761719 132.132812 271.753906 132.117188 271.746094 C 132.066406 271.726562 132.019531 271.707031 131.96875 271.6875 C 131.964844 271.6875 131.960938 271.683594 131.957031 271.683594 C 131.90625 271.664062 131.851562 271.648438 131.796875 271.632812 C 131.78125 271.628906 131.769531 271.625 131.753906 271.621094 C 131.703125 271.605469 131.652344 271.59375 131.597656 271.582031 C 131.59375 271.582031 131.589844 271.578125 131.585938 271.578125 C 131.53125 271.566406 131.472656 271.558594 131.417969 271.550781 C 131.402344 271.546875 131.386719 271.546875 131.375 271.546875 C 131.324219 271.539062 131.273438 271.535156 131.226562 271.53125 C 131.214844 271.53125 131.207031 271.53125 131.199219 271.53125 C 131.152344 271.527344 131.109375 271.527344 131.0625 271.527344 L 99.796875 271.527344 C 98.332031 271.527344 97.144531 272.714844 97.144531 274.179688 L 97.144531 276.65625 L 97.070312 276.726562 C 97.09375 276.753906 97.121094 276.78125 97.144531 276.808594 L 97.144531 328.726562 C 97.144531 330.195312 98.332031 331.382812 99.796875 331.382812 L 143.292969 331.382812 C 144.757812 331.382812 145.945312 330.195312 145.945312 328.726562 L 145.945312 307.507812 L 147.363281 303.683594 C 146.894531 303.507812 146.417969 303.328125 145.945312 303.144531 Z M 133.710938 280.628906 L 136.285156 283.226562 L 133.710938 283.226562 Z M 140.636719 326.078125 L 102.453125 326.078125 L 102.453125 276.832031 L 128.40625 276.832031 L 128.40625 285.878906 C 128.40625 287.34375 129.59375 288.53125 131.0625 288.53125 L 140.640625 288.53125 L 140.640625 326.078125 Z M 140.636719 326.078125 " fill-opacity="1" fill-rule="nonzero"/></g><path fill="#17ead9" d="M 297.027344 237.414062 L 302.601562 239.652344 C 303.273438 237.984375 303.914062 236.277344 304.511719 234.582031 L 298.839844 232.589844 C 298.277344 234.203125 297.664062 235.828125 297.027344 237.414062 Z M 297.027344 237.414062 " fill-opacity="1" fill-rule="nonzero"/><path fill="#17ead9" d="M 288.941406 253.742188 L 294.097656 256.820312 C 295.019531 255.273438 295.921875 253.6875 296.769531 252.105469 L 291.480469 249.257812 C 290.671875 250.761719 289.816406 252.269531 288.941406 253.742188 Z M 288.941406 253.742188 " fill-opacity="1" fill-rule="nonzero"/><path fill="#17ead9" d="M 293.304688 245.734375 L 298.6875 248.402344 C 299.484375 246.789062 300.257812 245.140625 300.984375 243.496094 L 295.488281 241.070312 C 294.796875 242.632812 294.0625 244.203125 293.304688 245.734375 Z M 293.304688 245.734375 " fill-opacity="1" fill-rule="nonzero"/><path fill="#17ead9" d="M 300.089844 228.828125 L 305.824219 230.621094 C 306.359375 228.90625 306.867188 227.152344 307.328125 225.414062 L 301.519531 223.875 C 301.082031 225.53125 300.601562 227.195312 300.089844 228.828125 Z M 300.089844 228.828125 " fill-opacity="1" fill-rule="nonzero"/><path fill="#17ead9" d="M 309.417969 216.058594 L 303.507812 214.980469 C 303.203125 216.664062 302.851562 218.359375 302.472656 220.027344 L 308.328125 221.367188 C 308.726562 219.613281 309.09375 217.828125 309.417969 216.058594 Z M 309.417969 216.058594 " fill-opacity="1" fill-rule="nonzero"/><path fill="#17ead9" d="M 283.96875 261.382812 L 288.871094 264.855469 C 289.910156 263.386719 290.929688 261.875 291.902344 260.363281 L 286.851562 257.113281 C 285.925781 258.550781 284.953125 259.988281 283.96875 261.382812 Z M 283.96875 261.382812 " fill-opacity="1" fill-rule="nonzero"/><path fill="#17ead9" d="M 278.417969 268.617188 L 283.039062 272.457031 C 284.1875 271.074219 285.320312 269.644531 286.40625 268.214844 L 281.621094 264.582031 C 280.589844 265.945312 279.511719 267.300781 278.417969 268.617188 Z M 278.417969 268.617188 " fill-opacity="1" fill-rule="nonzero"/><path fill="#17ead9" d="M 272.324219 275.402344 L 276.632812 279.585938 C 277.886719 278.296875 279.125 276.960938 280.320312 275.617188 L 275.832031 271.625 C 274.695312 272.902344 273.515625 274.175781 272.324219 275.402344 Z M 272.324219 275.402344 " fill-opacity="1" fill-rule="nonzero"/><path fill="#17ead9" d="M 251.632812 88.089844 C 250.890625 87.644531 250.136719 87.199219 249.390625 86.773438 L 246.402344 91.984375 C 247.113281 92.390625 247.832031 92.8125 248.535156 93.238281 Z M 251.632812 88.089844 " fill-opacity="1" fill-rule="nonzero"/><path fill="#17ead9" d="M 287.648438 131.667969 L 292.738281 128.484375 C 291.773438 126.941406 290.761719 125.402344 289.730469 123.902344 L 284.785156 127.3125 C 285.765625 128.738281 286.730469 130.203125 287.648438 131.667969 Z M 287.648438 131.667969 " fill-opacity="1" fill-rule="nonzero"/><path fill="#17ead9" d="M 292.226562 139.671875 L 297.554688 136.894531 C 296.714844 135.285156 295.828125 133.667969 294.914062 132.09375 L 289.714844 135.105469 C 290.582031 136.601562 291.425781 138.136719 292.226562 139.671875 Z M 292.226562 139.671875 " fill-opacity="1" fill-rule="nonzero"/><path fill="#17ead9" d="M 282.453125 124.050781 L 287.28125 120.476562 C 286.199219 119.015625 285.066406 117.558594 283.921875 116.148438 L 279.257812 119.933594 C 280.347656 121.277344 281.421875 122.664062 282.453125 124.050781 Z M 282.453125 124.050781 " fill-opacity="1" fill-rule="nonzero"/><path fill="#17ead9" d="M 296.160156 148.007812 L 301.6875 145.660156 C 300.980469 143.988281 300.222656 142.308594 299.4375 140.664062 L 294.015625 143.257812 C 294.761719 144.820312 295.484375 146.417969 296.160156 148.007812 Z M 296.160156 148.007812 " fill-opacity="1" fill-rule="nonzero"/><path fill="#17ead9" d="M 263.53125 103.945312 L 267.394531 99.34375 C 266.003906 98.175781 264.566406 97.019531 263.121094 95.914062 L 259.464844 100.683594 C 260.839844 101.734375 262.207031 102.832031 263.53125 103.945312 Z M 263.53125 103.945312 " fill-opacity="1" fill-rule="nonzero"/><path fill="#17ead9" d="M 270.359375 110.148438 L 274.570312 105.863281 C 273.273438 104.589844 271.929688 103.324219 270.578125 102.109375 L 266.558594 106.578125 C 267.847656 107.734375 269.125 108.933594 270.359375 110.148438 Z M 270.359375 110.148438 " fill-opacity="1" fill-rule="nonzero"/><path fill="#17ead9" d="M 259.734375 93.40625 C 258.253906 92.351562 256.730469 91.3125 255.207031 90.324219 L 251.933594 95.363281 C 253.386719 96.304688 254.835938 97.289062 256.242188 98.296875 Z M 259.734375 93.40625 " fill-opacity="1" fill-rule="nonzero"/><path fill="#17ead9" d="M 276.675781 116.863281 L 281.210938 112.917969 C 280.015625 111.546875 278.777344 110.183594 277.523438 108.867188 L 273.167969 113.003906 C 274.363281 114.261719 275.542969 115.558594 276.675781 116.863281 Z M 276.675781 116.863281 " fill-opacity="1" fill-rule="nonzero"/><path fill="#17ead9" d="M 220.308594 177.402344 C 221.164062 176.628906 221.441406 175.398438 221 174.332031 L 218.246094 167.683594 C 217.804688 166.617188 216.738281 165.945312 215.585938 166.003906 L 208.226562 166.378906 L 205.9375 164.085938 L 206.3125 156.730469 C 206.371094 155.578125 205.699219 154.511719 204.628906 154.066406 L 197.984375 151.316406 C 196.914062 150.871094 195.683594 151.148438 194.910156 152.007812 L 189.976562 157.476562 L 186.734375 157.476562 L 181.796875 152.007812 C 181.023438 151.148438 179.792969 150.871094 178.726562 151.316406 L 172.078125 154.066406 C 171.011719 154.511719 170.335938 155.578125 170.394531 156.730469 L 170.773438 164.085938 L 168.480469 166.378906 L 161.125 166.003906 C 159.96875 165.945312 158.902344 166.617188 158.460938 167.683594 L 155.707031 174.332031 C 155.265625 175.398438 155.542969 176.628906 156.402344 177.402344 L 161.867188 182.339844 L 161.867188 185.582031 L 156.402344 190.519531 C 155.542969 191.292969 155.265625 192.523438 155.707031 193.589844 L 158.460938 200.238281 C 158.902344 201.304688 159.96875 201.980469 161.125 201.917969 L 168.480469 201.542969 L 170.773438 203.835938 L 170.394531 211.191406 C 170.335938 212.347656 171.011719 213.410156 172.078125 213.855469 L 178.726562 216.609375 C 179.792969 217.050781 181.023438 216.773438 181.796875 215.914062 L 186.734375 210.445312 L 189.976562 210.445312 L 194.910156 215.914062 C 195.441406 216.5 196.179688 216.816406 196.9375 216.816406 C 197.289062 216.816406 197.644531 216.75 197.984375 216.609375 L 204.628906 213.855469 C 205.699219 213.410156 206.371094 212.347656 206.3125 211.191406 L 205.9375 203.835938 L 208.226562 201.542969 L 215.585938 201.917969 C 216.738281 201.980469 217.804688 201.304688 218.246094 200.238281 L 221 193.589844 C 221.441406 192.523438 221.164062 191.292969 220.308594 190.519531 L 214.839844 185.582031 L 214.839844 182.339844 Z M 210.277344 188.824219 L 215.21875 193.28125 L 213.9375 196.367188 L 207.292969 196.027344 C 206.523438 195.988281 205.769531 196.277344 205.222656 196.824219 L 201.214844 200.832031 C 200.671875 201.378906 200.378906 202.132812 200.417969 202.902344 L 200.757812 209.546875 L 197.671875 210.828125 L 193.214844 205.886719 C 192.695312 205.316406 191.957031 204.988281 191.1875 204.988281 L 185.519531 204.988281 C 184.746094 204.988281 184.007812 205.316406 183.492188 205.886719 L 179.03125 210.828125 L 175.945312 209.546875 L 176.285156 202.902344 C 176.324219 202.132812 176.035156 201.378906 175.488281 200.832031 L 171.480469 196.824219 C 170.933594 196.277344 170.179688 195.988281 169.410156 196.027344 L 162.765625 196.367188 L 161.488281 193.28125 L 166.425781 188.824219 C 167 188.304688 167.328125 187.570312 167.328125 186.796875 L 167.328125 181.128906 C 167.328125 180.355469 167 179.621094 166.425781 179.101562 L 161.488281 174.640625 L 162.765625 171.554688 L 169.410156 171.894531 C 170.183594 171.933594 170.933594 171.644531 171.480469 171.097656 L 175.488281 167.089844 C 176.035156 166.542969 176.324219 165.792969 176.285156 165.019531 L 175.945312 158.375 L 179.03125 157.097656 L 183.492188 162.035156 C 184.007812 162.609375 184.746094 162.9375 185.519531 162.9375 L 191.1875 162.9375 C 191.957031 162.9375 192.695312 162.609375 193.214844 162.035156 L 197.671875 157.097656 L 200.757812 158.375 L 200.417969 165.019531 C 200.378906 165.792969 200.667969 166.542969 201.214844 167.089844 L 205.222656 171.097656 C 205.769531 171.644531 206.523438 171.933594 207.292969 171.894531 L 213.9375 171.554688 L 215.21875 174.640625 L 210.277344 179.101562 C 209.703125 179.621094 209.378906 180.355469 209.378906 181.128906 L 209.378906 186.796875 C 209.378906 187.566406 209.707031 188.304688 210.277344 188.824219 Z M 210.277344 188.824219 " fill-opacity="1" fill-rule="nonzero"/><path fill="#17ead9" d="M 188.355469 168.933594 C 180.066406 168.933594 173.324219 175.675781 173.324219 183.960938 C 173.324219 192.25 180.066406 198.992188 188.355469 198.992188 C 196.640625 198.992188 203.382812 192.25 203.382812 183.960938 C 203.382812 175.671875 196.640625 168.933594 188.355469 168.933594 Z M 188.355469 193.53125 C 183.078125 193.53125 178.785156 189.238281 178.785156 183.960938 C 178.785156 178.6875 183.078125 174.394531 188.355469 174.394531 C 193.628906 174.394531 197.921875 178.683594 197.921875 183.960938 C 197.921875 189.238281 193.628906 193.53125 188.355469 193.53125 Z M 188.355469 193.53125 " fill-opacity="1" fill-rule="nonzero"/></svg>