<svg xmlns="http://www.w3.org/2000/svg" xmlns:xlink="http://www.w3.org/1999/xlink" width="3000" zoomAndPan="magnify" viewBox="0 0 2250 2250.000011" height="3000" preserveAspectRatio="xMidYMid meet" version="1.0"><defs><g/><clipPath id="4ad934f1f5"><path d="M 225.398438 348.253906 L 2024.824219 348.253906 L 2024.824219 1612.132812 L 225.398438 1612.132812 Z M 225.398438 348.253906 " clip-rule="nonzero"/></clipPath><clipPath id="946a152011"><path d="M 728.734375 852.5 L 1521.335938 852.5 L 1521.335938 1107.519531 L 728.734375 1107.519531 Z M 728.734375 852.5 " clip-rule="nonzero"/></clipPath></defs><g clip-path="url(#4ad934f1f5)"><path fill="#ff5757" d="M 1568.863281 1365.644531 C 1411.355469 1546.996094 1085.046875 1521.449219 839.957031 1308.53125 C 594.882812 1095.660156 523.882812 776.0625 681.371094 594.710938 C 838.875 413.371094 1165.183594 438.941406 1410.277344 651.832031 C 1655.363281 864.742188 1726.378906 1184.351562 1568.867188 1365.652344 Z M 1125.140625 348.253906 C 628.351562 348.253906 225.65625 631.1875 225.65625 980.203125 C 225.65625 1329.195312 628.359375 1612.148438 1125.140625 1612.148438 C 1621.875 1612.148438 2024.570312 1329.195312 2024.570312 980.203125 C 2024.570312 631.183594 1621.875 348.253906 1125.140625 348.253906 " fill-opacity="1" fill-rule="nonzero"/></g><path fill="#ffffff" d="M 1519.753906 1077.40625 C 1519.753906 1093.253906 1506.910156 1106.09375 1491.058594 1106.09375 L 915.3125 1106.09375 C 899.460938 1106.09375 886.621094 1093.253906 886.621094 1077.40625 C 886.621094 1061.554688 899.460938 1048.71875 915.3125 1048.71875 L 976.34375 1048.71875 C 987.28125 1048.71875 996.15625 1039.839844 996.15625 1028.90625 C 996.15625 1017.96875 987.28125 1008.933594 976.34375 1008.933594 L 759.011719 1008.933594 C 743.160156 1008.777344 730.320312 995.9375 730.320312 980.089844 C 730.320312 964.238281 743.160156 951.402344 759.011719 951.402344 L 1159.59375 951.402344 C 1170.53125 951.402344 1179.40625 942.527344 1179.40625 931.589844 C 1179.40625 920.652344 1170.53125 911.617188 1159.59375 911.617188 L 1090.003906 911.617188 C 1074.148438 911.617188 1061.308594 898.78125 1061.308594 882.929688 C 1061.308594 867.082031 1074.148438 854.242188 1090.003906 854.242188 L 1380.730469 854.242188 C 1396.582031 854.242188 1409.421875 867.082031 1409.421875 882.929688 C 1409.421875 898.78125 1396.582031 911.617188 1380.730469 911.617188 L 1314.46875 911.617188 C 1303.53125 911.617188 1294.652344 920.496094 1294.652344 931.589844 C 1294.652344 942.683594 1303.53125 951.402344 1314.46875 951.402344 L 1380.730469 951.402344 C 1396.582031 951.402344 1409.421875 964.238281 1409.421875 980.089844 C 1409.421875 995.9375 1396.582031 1008.777344 1380.730469 1008.777344 L 1131.21875 1008.777344 C 1120.28125 1008.777344 1111.242188 1017.652344 1111.242188 1028.746094 C 1111.242188 1039.683594 1120.121094 1048.558594 1131.21875 1048.558594 L 1491.058594 1048.558594 C 1506.910156 1048.71875 1519.753906 1061.554688 1519.753906 1077.40625 Z M 1519.753906 1077.40625 " fill-opacity="1" fill-rule="nonzero"/><g clip-path="url(#946a152011)"><path fill="#ffffff" d="M 1491.058594 1046.972656 L 1131.21875 1046.972656 C 1121.074219 1046.972656 1112.988281 1038.730469 1112.988281 1028.746094 C 1112.988281 1018.761719 1121.230469 1010.519531 1131.21875 1010.519531 L 1380.730469 1010.519531 C 1397.53125 1010.519531 1411.007812 996.890625 1411.007812 980.246094 C 1411.007812 963.605469 1397.375 949.976562 1380.730469 949.976562 L 1314.46875 949.976562 C 1304.480469 949.976562 1296.238281 941.734375 1296.238281 931.746094 C 1296.238281 921.761719 1304.480469 913.519531 1314.46875 913.519531 L 1380.730469 913.519531 C 1397.53125 913.519531 1411.007812 899.890625 1411.007812 883.25 C 1411.007812 866.605469 1397.375 852.660156 1380.730469 852.660156 L 1090.003906 852.660156 C 1073.359375 852.660156 1059.726562 866.289062 1059.726562 882.929688 C 1059.726562 899.574219 1073.359375 913.203125 1090.003906 913.203125 L 1159.59375 913.203125 C 1169.578125 913.203125 1177.824219 921.445312 1177.824219 931.429688 C 1177.824219 941.417969 1169.578125 949.65625 1159.59375 949.65625 L 759.011719 949.65625 C 742.367188 949.816406 728.734375 963.445312 728.734375 980.089844 C 728.734375 996.730469 742.367188 1010.363281 759.011719 1010.363281 L 976.34375 1010.363281 C 986.488281 1010.363281 994.574219 1018.601562 994.574219 1028.589844 C 994.574219 1038.730469 986.328125 1046.816406 976.34375 1046.816406 L 915.3125 1046.816406 C 898.507812 1046.816406 885.035156 1060.445312 885.035156 1077.085938 C 885.035156 1093.730469 898.667969 1107.359375 915.3125 1107.359375 L 1490.902344 1107.359375 C 1507.703125 1107.359375 1521.179688 1093.730469 1521.335938 1077.085938 C 1521.335938 1060.605469 1507.703125 1046.972656 1491.058594 1046.972656 Z M 1491.058594 1104.347656 L 915.3125 1104.347656 C 900.410156 1104.347656 888.207031 1092.144531 888.207031 1077.246094 C 888.207031 1062.347656 900.410156 1050.144531 915.3125 1050.144531 L 976.34375 1050.144531 C 988.230469 1050.144531 997.902344 1040.476562 997.902344 1028.589844 C 997.902344 1016.703125 988.230469 1007.03125 976.34375 1007.03125 L 759.011719 1007.03125 C 744.109375 1007.03125 731.902344 994.828125 731.902344 979.929688 C 731.902344 965.03125 744.109375 952.828125 759.011719 952.828125 L 1159.59375 952.828125 C 1171.480469 952.828125 1181.152344 943.160156 1181.152344 931.273438 C 1181.152344 919.386719 1171.480469 909.71875 1159.59375 909.71875 L 1090.003906 909.71875 C 1075.101562 909.71875 1062.894531 897.511719 1062.894531 882.613281 C 1062.894531 867.714844 1075.101562 855.828125 1090.003906 855.828125 L 1380.730469 855.828125 C 1395.628906 855.828125 1407.835938 868.03125 1407.835938 882.929688 C 1407.835938 897.828125 1395.628906 910.035156 1380.730469 910.035156 L 1314.46875 910.035156 C 1302.578125 910.035156 1292.910156 919.703125 1292.910156 931.589844 C 1292.910156 943.476562 1302.578125 953.144531 1314.46875 953.144531 L 1380.730469 953.144531 C 1395.628906 953.144531 1407.835938 965.347656 1407.835938 980.246094 C 1407.835938 995.144531 1395.628906 1007.351562 1380.730469 1007.351562 L 1131.21875 1007.351562 C 1119.328125 1007.351562 1109.660156 1017.019531 1109.660156 1028.90625 C 1109.660156 1040.792969 1119.328125 1050.460938 1131.21875 1050.460938 L 1491.058594 1050.460938 C 1505.960938 1050.460938 1518.167969 1062.664062 1518.167969 1077.5625 C 1518.167969 1092.460938 1505.960938 1104.347656 1491.058594 1104.347656 Z M 1491.058594 1104.347656 " fill-opacity="1" fill-rule="nonzero"/></g><g fill="#ffffff" fill-opacity="1"><g transform="translate(270.482953, 1877.967387)"><g><path d="M 7.183594 -5.441406 C 7.398438 -5.113281 7.835938 -4.898438 8.269531 -4.679688 C 21.980469 1.742188 37.652344 2.9375 52.777344 3.480469 C 69.753906 4.136719 87.167969 4.027344 103.164062 -1.742188 C 107.191406 -3.265625 111.324219 -5.222656 113.828125 -8.707031 C 115.570312 -10.992188 116.441406 -13.820312 117.09375 -16.539062 C 117.855469 -19.589844 118.289062 -22.742188 117.746094 -25.898438 C 116.875 -30.90625 113.175781 -35.148438 108.824219 -37.871094 C 104.359375 -40.480469 99.246094 -41.789062 94.238281 -42.550781 C 74.324219 -45.707031 53.757812 -42.765625 33.953125 -46.574219 C 29.707031 -47.445312 24.703125 -49.40625 24.160156 -53.757812 C 23.832031 -56.261719 25.355469 -58.765625 27.421875 -60.289062 C 29.492188 -61.8125 32.101562 -62.574219 34.605469 -63.117188 C 43.746094 -65.183594 53.214844 -65.835938 62.683594 -65.730469 C 67.359375 -65.730469 72.039062 -65.511719 76.71875 -65.074219 C 78.679688 -64.96875 80.527344 -65.292969 82.378906 -64.96875 C 84.335938 -64.640625 86.1875 -63.988281 88.039062 -63.445312 C 91.191406 -62.789062 94.238281 -61.917969 97.179688 -60.941406 C 102.945312 -58.871094 108.496094 -56.042969 112.847656 -51.691406 C 112.847656 -57.023438 112.957031 -62.355469 113.066406 -67.6875 C 113.066406 -68.558594 113.066406 -69.320312 112.738281 -70.082031 C 112.304688 -70.953125 111.324219 -71.386719 110.453125 -71.824219 C 96.851562 -78.242188 81.289062 -79.113281 66.273438 -79.332031 C 52.125 -79.550781 37.761719 -79.113281 24.160156 -75.414062 C 18.171875 -73.78125 12.296875 -71.386719 8.160156 -66.707031 C 2.9375 -60.722656 1.957031 -51.363281 5.984375 -44.398438 C 8.921875 -39.285156 14.039062 -35.800781 19.480469 -33.84375 C 25.027344 -31.777344 30.90625 -31.230469 36.78125 -30.796875 C 52.453125 -29.816406 68.230469 -30.363281 84.011719 -29.164062 C 87.167969 -28.839844 90.539062 -28.511719 93.261719 -26.878906 C 96.089844 -25.246094 98.15625 -21.980469 97.503906 -18.828125 C 96.527344 -14.910156 92.0625 -13.058594 88.144531 -12.1875 C 80.636719 -10.445312 72.800781 -10.121094 65.074219 -9.902344 C 54.847656 -9.792969 44.507812 -10.011719 34.386719 -11.96875 C 24.265625 -13.929688 14.363281 -17.847656 6.3125 -24.265625 C 6.09375 -18.390625 6.203125 -12.625 6.636719 -6.855469 C 6.746094 -6.421875 6.746094 -5.984375 6.964844 -5.660156 C 7.074219 -5.550781 7.074219 -5.441406 7.183594 -5.441406 Z M 7.183594 -5.441406 "/></g></g></g><g fill="#ffffff" fill-opacity="1"><g transform="translate(392.57224, 1877.967387)"><g><path d="M 3.589844 -37.980469 C 3.265625 -43.421875 4.570312 -49.078125 8.269531 -54.628906 C 17.410156 -68.121094 34.605469 -74 50.058594 -77.046875 C 66.925781 -80.417969 84.554688 -80.09375 101.097656 -76.394531 C 115.351562 -73.238281 129.5 -67.144531 138.640625 -56.042969 C 147.671875 -45.269531 148.214844 -30.90625 139.511719 -19.914062 C 134.941406 -14.039062 128.410156 -9.792969 121.773438 -6.421875 C 107.84375 0.328125 92.28125 3.046875 76.609375 3.589844 C 63.660156 4.027344 50.601562 3.046875 38.304688 -0.980469 C 22.417969 -6.203125 4.789062 -21.21875 3.589844 -37.980469 Z M 23.941406 -37.871094 C 24.375 -28.292969 33.191406 -19.589844 42.765625 -15.777344 C 60.394531 -8.707031 81.941406 -6.855469 100.117188 -13.167969 C 115.242188 -18.5 134.503906 -36.347656 118.726562 -51.800781 C 115.132812 -55.28125 110.5625 -57.675781 105.992188 -59.632812 C 86.1875 -67.6875 63.335938 -67.253906 43.421875 -59.851562 C 37.761719 -57.785156 32.210938 -54.957031 28.511719 -50.382812 C 25.027344 -46.25 23.832031 -42.003906 23.941406 -37.871094 Z M 23.941406 -37.871094 "/></g></g></g><g fill="#ffffff" fill-opacity="1"><g transform="translate(544.585369, 1877.967387)"><g><path d="M 10.992188 -34.824219 C 11.101562 -30.578125 11.644531 -26.335938 13.167969 -22.308594 C 15.453125 -15.886719 20.242188 -10.554688 25.789062 -6.636719 C 31.449219 -2.71875 37.980469 -0.328125 44.617188 1.304688 C 60.503906 5.113281 77.265625 4.136719 93.042969 0.21875 C 101.640625 -1.957031 110.453125 -5.113281 115.894531 -12.078125 C 122.097656 -20.023438 122.425781 -30.90625 122.535156 -41.027344 C 122.644531 -51.039062 122.859375 -61.050781 122.96875 -71.0625 C 122.96875 -72.691406 122.859375 -74.652344 121.445312 -75.632812 C 120.574219 -76.175781 119.488281 -76.175781 118.507812 -76.175781 L 105.667969 -76.175781 C 104.578125 -76.175781 103.382812 -76.066406 102.621094 -75.195312 C 102.074219 -74.542969 102.074219 -73.5625 102.074219 -72.691406 C 102.183594 -61.917969 102.402344 -51.253906 102.511719 -40.480469 C 102.621094 -32.753906 102.402344 -24.160156 97.070312 -18.5 C 93.261719 -14.363281 87.382812 -12.839844 81.835938 -11.96875 C 71.167969 -10.230469 60.289062 -10.445312 49.730469 -12.839844 C 45.707031 -13.710938 41.570312 -15.015625 38.304688 -17.738281 C 34.933594 -20.675781 32.863281 -24.921875 31.992188 -29.382812 C 31.015625 -33.734375 31.015625 -38.304688 31.125 -42.765625 C 31.125 -52.886719 31.230469 -62.898438 31.339844 -73.019531 C 31.339844 -78.679688 26.007812 -75.957031 22.417969 -75.742188 C 19.589844 -75.523438 16.648438 -75.742188 13.820312 -76.285156 C 13.058594 -76.503906 12.296875 -76.609375 11.644531 -76.285156 C 10.554688 -75.742188 10.445312 -74.21875 10.554688 -72.910156 C 11.101562 -63.878906 11.316406 -54.738281 11.101562 -45.597656 C 10.992188 -42.003906 10.882812 -38.414062 10.992188 -34.824219 Z M 10.992188 -34.824219 "/></g></g></g><g fill="#ffffff" fill-opacity="1"><g transform="translate(677.991298, 1877.967387)"><g><path d="M 8.707031 -0.21875 C 6.964844 -2.285156 8.160156 -7.398438 8.160156 -10.121094 C 8.160156 -30.253906 8.160156 -50.382812 8.054688 -70.625 C 8.054688 -72.367188 7.835938 -74.980469 9.46875 -76.175781 C 11.207031 -77.371094 13.601562 -76.609375 15.453125 -76.394531 C 18.28125 -76.066406 21.113281 -75.957031 23.832031 -76.175781 C 25.027344 -76.285156 26.226562 -76.503906 27.3125 -76.394531 C 32.539062 -75.742188 37.871094 -70.082031 42.003906 -67.253906 C 65.511719 -50.820312 89.125 -34.605469 112.738281 -18.390625 C 113.9375 -17.519531 115.242188 -16.648438 116.222656 -15.5625 C 116.875 -14.691406 118.835938 -12.1875 120.03125 -14.039062 C 120.464844 -14.582031 120.359375 -15.34375 120.25 -15.996094 C 120.03125 -16.648438 119.703125 -17.195312 119.597656 -17.847656 C 119.160156 -19.042969 119.160156 -20.351562 119.269531 -21.65625 C 119.8125 -37.871094 119.488281 -54.195312 119.488281 -70.515625 C 119.488281 -74.761719 117.636719 -77.480469 123.730469 -76.503906 C 127.539062 -75.957031 131.457031 -75.847656 135.375 -76.609375 C 139.511719 -77.480469 140.816406 -75.847656 140.054688 -71.824219 C 138.3125 -62.789062 139.511719 -52.671875 139.511719 -43.527344 C 139.617188 -32.648438 139.835938 -21.765625 139.835938 -10.882812 C 139.835938 -8.160156 139.726562 -8.160156 139.726562 -5.441406 C 139.726562 -4.136719 140.816406 -2.613281 140.488281 -1.304688 C 139.617188 2.285156 133.417969 0.21875 130.914062 0.109375 C 125.582031 -0.21875 120.140625 -0.109375 114.808594 0.328125 C 110.019531 0.761719 106.429688 -2.175781 102.621094 -4.679688 C 97.722656 -8.054688 92.824219 -11.425781 87.820312 -14.800781 C 69.644531 -27.207031 51.253906 -39.285156 32.972656 -51.582031 C 31.339844 -52.671875 27.859375 -58.65625 28.183594 -52.34375 C 28.621094 -44.074219 28.730469 -35.695312 28.730469 -27.421875 C 28.839844 -19.695312 27.3125 -10.339844 29.273438 -2.828125 C 29.925781 -0.433594 29.054688 0.433594 26.660156 0.328125 C 21.875 0.21875 16.867188 -0.542969 12.1875 0.542969 C 10.445312 0.871094 9.359375 0.542969 8.707031 -0.21875 Z M 8.707031 -0.21875 "/></g></g></g><g fill="#ffffff" fill-opacity="1"><g transform="translate(825.543079, 1877.967387)"><g><path d="M 10.445312 0.109375 C 8.707031 -1.414062 10.773438 -4.351562 10.992188 -6.3125 C 11.207031 -8.378906 10.445312 -10.339844 10.445312 -12.515625 C 10.445312 -15.996094 10.554688 -19.480469 10.554688 -22.851562 C 10.445312 -29.707031 10.339844 -36.671875 10.339844 -43.527344 L 10.339844 -48.96875 C 10.339844 -55.171875 10.230469 -61.265625 10.230469 -67.46875 C 10.121094 -70.40625 9.359375 -73.890625 12.078125 -75.847656 C 15.886719 -78.679688 22.742188 -76.285156 27.097656 -76.285156 C 46.683594 -76.285156 66.382812 -77.480469 85.96875 -75.847656 C 100.769531 -74.652344 116.65625 -71.0625 128.84375 -62.246094 C 130.371094 -61.050781 132 -60.179688 133.308594 -58.871094 C 141.796875 -50.601562 143.863281 -36.5625 138.09375 -26.117188 C 132.328125 -15.5625 120.683594 -9.03125 109.585938 -5.332031 C 107.84375 -4.789062 105.992188 -4.351562 104.25 -3.917969 C 102.402344 -3.375 100.660156 -3.15625 98.8125 -2.828125 C 71.386719 2.9375 42.003906 -1.632812 14.148438 0.761719 C 13.277344 0.761719 12.296875 0.871094 11.425781 0.542969 C 10.992188 0.433594 10.773438 0.21875 10.445312 0.109375 Z M 30.796875 -14.253906 C 31.558594 -13.492188 32.972656 -13.492188 34.0625 -13.601562 C 57.675781 -15.34375 82.269531 -11.207031 105.011719 -19.914062 C 114.808594 -23.613281 124.167969 -33.410156 120.140625 -44.617188 C 119.597656 -46.359375 118.617188 -47.882812 117.417969 -49.296875 C 113.828125 -53.648438 109.148438 -56.261719 103.816406 -58.003906 C 88.144531 -63.117188 69.863281 -62.136719 53.648438 -62.136719 L 34.386719 -62.136719 C 28.839844 -62.136719 31.015625 -60.394531 31.015625 -56.585938 C 31.015625 -53.976562 30.578125 -53.976562 30.578125 -51.363281 C 30.578125 -48.644531 30.796875 -48.644531 30.796875 -46.03125 C 30.796875 -43.421875 30.796875 -43.421875 30.796875 -40.699219 L 30.796875 -21.546875 C 30.796875 -19.695312 29.382812 -15.777344 30.6875 -14.363281 C 30.6875 -14.253906 30.796875 -14.253906 30.796875 -14.253906 Z M 30.796875 -14.253906 "/></g></g></g><g fill="#ffffff" fill-opacity="1"><g transform="translate(973.094829, 1877.967387)"><g/></g></g><g fill="#ffffff" fill-opacity="1"><g transform="translate(1027.501851, 1877.967387)"><g><path d="M 126.996094 -34.277344 C 124.929688 -37.761719 122.097656 -40.15625 118.398438 -41.898438 C 119.488281 -43.527344 120.464844 -45.378906 121.011719 -47.554688 C 122.535156 -53.214844 121.882812 -59.632812 118.941406 -64.75 C 117.964844 -66.492188 116.65625 -67.796875 115.242188 -69.101562 C 108.496094 -75.085938 98.8125 -76.503906 90.105469 -76.394531 C 74.542969 -76.175781 59.089844 -76.066406 43.636719 -76.066406 C 40.808594 -76.066406 40.808594 -76.285156 38.085938 -76.285156 C 35.367188 -76.285156 35.367188 -76.285156 32.648438 -76.285156 L 28.511719 -76.285156 C 27.421875 -76.285156 25.355469 -76.394531 21.765625 -76.394531 C 19.371094 -76.394531 13.058594 -77.589844 11.425781 -76.503906 C 9.03125 -75.085938 10.773438 -70.734375 10.773438 -70.734375 C 10.773438 -58.328125 10.882812 -45.921875 10.992188 -33.515625 C 10.992188 -27.097656 10.992188 -20.566406 10.882812 -14.148438 C 10.882812 -10.992188 7.835938 -0.871094 11.753906 0.542969 C 12.839844 0.871094 14.148438 0.652344 15.234375 0.433594 C 26.226562 -1.414062 38.085938 0 49.1875 0 C 60.832031 0.109375 72.585938 0.21875 84.226562 0 C 94.347656 -0.109375 105.230469 0.652344 114.917969 -2.828125 C 127.648438 -7.292969 133.742188 -22.417969 126.996094 -34.277344 Z M 31.339844 -61.703125 C 31.558594 -62.027344 31.777344 -62.136719 31.886719 -62.246094 C 32.648438 -62.464844 33.300781 -62.355469 33.953125 -62.355469 C 40.699219 -61.59375 47.335938 -62.027344 53.976562 -62.027344 C 55.824219 -62.027344 57.785156 -62.136719 59.632812 -62.136719 C 67.359375 -62.136719 74.980469 -61.8125 82.597656 -61.8125 C 85.753906 -61.8125 87.820312 -61.703125 88.253906 -61.703125 C 90.324219 -61.703125 92.28125 -61.917969 94.132812 -61.59375 C 96.199219 -61.15625 97.832031 -60.179688 99.136719 -58.871094 C 102.074219 -55.824219 101.964844 -51.363281 99.027344 -48.316406 C 95.871094 -44.945312 90.429688 -45.378906 86.296875 -45.269531 C 72.910156 -45.050781 59.417969 -44.726562 46.140625 -45.378906 C 43.855469 -45.488281 41.570312 -45.597656 39.285156 -45.488281 C 37.109375 -45.269531 34.605469 -44.074219 32.539062 -44.289062 C 28.511719 -44.617188 29.816406 -59.199219 31.339844 -61.703125 Z M 106.863281 -18.28125 C 101.203125 -13.058594 92.28125 -14.039062 85.207031 -14.148438 L 85.316406 -14.363281 C 82.597656 -14.363281 82.597656 -14.253906 79.875 -14.253906 L 55.5 -14.253906 C 49.078125 -14.363281 40.480469 -15.996094 34.277344 -13.929688 C 27.640625 -11.644531 31.558594 -20.785156 30.796875 -23.832031 C 30.363281 -25.683594 29.054688 -28.511719 30.363281 -30.363281 C 31.992188 -32.753906 34.171875 -31.015625 36.457031 -31.015625 C 45.488281 -31.015625 54.519531 -30.796875 63.550781 -30.796875 C 71.929688 -30.796875 80.3125 -30.90625 88.691406 -31.125 C 100.117188 -31.125 115.242188 -30.035156 106.863281 -18.28125 Z M 106.863281 -18.28125 "/></g></g></g><g fill="#ffffff" fill-opacity="1"><g transform="translate(1162.648811, 1877.967387)"><g><path d="M 122.425781 -4.351562 C 118.179688 -8.597656 113.9375 -12.839844 109.910156 -17.195312 C 107.84375 -19.261719 105.992188 -21.4375 104.035156 -23.503906 C 102.074219 -25.355469 99.679688 -26.769531 98.050781 -28.945312 C 97.832031 -29.273438 97.613281 -29.601562 97.722656 -29.925781 C 97.832031 -31.015625 102.945312 -31.339844 103.925781 -31.558594 C 106.210938 -32.210938 108.605469 -32.972656 110.671875 -34.277344 C 112.304688 -35.257812 113.9375 -36.457031 115.351562 -37.871094 C 116.113281 -38.742188 118.941406 -41.136719 118.941406 -42.441406 C 123.296875 -49.839844 122.96875 -59.960938 117.417969 -66.597656 C 114.046875 -70.625 108.929688 -73.128906 103.816406 -74.433594 C 98.59375 -75.742188 93.152344 -75.847656 87.820312 -75.957031 C 63.007812 -76.609375 38.085938 -76.609375 13.277344 -76.066406 C 12.515625 -76.066406 11.753906 -76.066406 11.316406 -75.523438 C 10.882812 -75.085938 10.882812 -74.324219 10.882812 -73.78125 L 10.882812 -34.714844 C 10.882812 -28.183594 10.882812 -21.65625 10.882812 -15.234375 L 10.882812 -5.441406 C 10.882812 -3.480469 9.359375 -0.21875 12.078125 0.542969 C 13.277344 0.871094 14.363281 0.542969 15.5625 0.328125 C 19.589844 -0.542969 23.832031 -0.433594 27.859375 0.433594 C 28.621094 0.652344 29.382812 0.871094 30.035156 0.652344 C 31.449219 0.109375 31.667969 -1.742188 31.558594 -3.15625 C 31.558594 -7.617188 31.449219 -12.078125 31.339844 -16.433594 C 31.230469 -18.71875 31.230469 -21.003906 31.125 -23.289062 C 31.125 -24.8125 31.125 -26.226562 31.015625 -27.75 C 31.015625 -28.183594 31.015625 -28.730469 31.339844 -29.054688 C 32.320312 -30.035156 36.347656 -29.273438 37.761719 -29.273438 C 40.265625 -29.273438 42.660156 -29.382812 45.160156 -29.382812 C 49.730469 -29.382812 54.300781 -29.382812 58.765625 -29.492188 L 67.253906 -29.492188 C 69.429688 -29.601562 71.605469 -29.601562 73.78125 -28.839844 C 76.9375 -27.859375 79.332031 -25.246094 81.507812 -22.742188 L 98.484375 -4.351562 C 99.898438 -2.828125 101.3125 -1.195312 103.273438 -0.433594 C 104.90625 0.21875 106.753906 0.21875 108.605469 0.21875 L 124.820312 0.21875 C 125.253906 0.21875 125.796875 0.109375 125.90625 -0.21875 C 126.015625 -0.652344 125.691406 -0.871094 125.472656 -1.195312 C 124.492188 -2.285156 123.40625 -3.265625 122.425781 -4.351562 Z M 66.382812 -43.527344 L 61.484375 -43.527344 C 52.234375 -43.636719 42.984375 -43.636719 33.734375 -43.636719 C 32.429688 -43.636719 31.339844 -43.964844 31.339844 -45.378906 C 31.339844 -48.753906 31.339844 -52.015625 31.230469 -55.390625 C 31.230469 -56.804688 30.253906 -60.941406 31.667969 -61.8125 C 32.320312 -62.355469 33.734375 -62.027344 34.605469 -62.027344 C 35.910156 -62.027344 37.21875 -61.8125 38.632812 -61.917969 L 44.289062 -61.917969 C 53.867188 -62.027344 63.335938 -61.917969 72.910156 -61.917969 C 78.894531 -61.917969 84.882812 -62.027344 90.867188 -61.050781 C 93.476562 -60.613281 96.199219 -59.960938 98.375 -58.328125 C 100.550781 -56.804688 102.074219 -53.976562 101.421875 -51.363281 C 101.097656 -49.621094 99.679688 -48.097656 98.15625 -47.121094 C 96.527344 -46.140625 94.785156 -45.597656 92.933594 -45.160156 C 84.445312 -43.203125 75.304688 -43.3125 66.382812 -43.527344 Z M 66.382812 -43.527344 "/></g></g></g><g fill="#ffffff" fill-opacity="1"><g transform="translate(1294.204938, 1877.967387)"><g><path d="M 10.882812 0 C 10.554688 -0.542969 10.445312 -1.195312 10.339844 -1.742188 C 9.683594 -5.984375 10.882812 -10.011719 10.882812 -14.253906 C 10.992188 -20.675781 10.992188 -27.097656 10.992188 -33.625 C 10.992188 -42.875 10.992188 -52.125 10.882812 -61.375 C 10.882812 -65.292969 8.160156 -76.394531 13.820312 -76.394531 L 117.964844 -76.066406 C 119.378906 -76.066406 120.902344 -75.957031 121.773438 -74.871094 C 122.316406 -74.109375 122.425781 -73.128906 122.425781 -72.148438 L 122.75 -64.421875 C 122.75 -63.117188 122.75 -61.59375 121.664062 -60.722656 C 119.703125 -59.089844 116.65625 -59.742188 114.371094 -59.960938 C 111.214844 -60.179688 107.953125 -60.070312 104.6875 -60.070312 C 96.960938 -60.179688 89.125 -60.179688 81.398438 -60.289062 C 65.945312 -60.394531 50.601562 -60.394531 35.257812 -60.503906 C 28.511719 -60.503906 30.46875 -53.324219 30.363281 -48.207031 C 30.253906 -46.574219 31.015625 -44.617188 32.648438 -44.289062 C 35.039062 -43.746094 39.71875 -44.726562 42.550781 -44.726562 C 56.914062 -44.726562 71.277344 -44.835938 85.644531 -44.835938 C 92.824219 -44.945312 100.007812 -44.945312 107.191406 -45.050781 C 111.324219 -45.050781 123.40625 -47.773438 122.644531 -40.808594 L 121.664062 -31.777344 C 121.664062 -31.230469 121.554688 -30.6875 121.226562 -30.363281 C 120.792969 -29.925781 120.140625 -29.925781 119.597656 -29.925781 C 93.914062 -29.816406 68.121094 -29.816406 42.550781 -29.816406 C 39.9375 -29.816406 37.761719 -29.707031 35.257812 -30.46875 C 33.625 -30.90625 31.558594 -31.015625 30.6875 -29.601562 C 29.382812 -27.207031 30.035156 -23.832031 30.363281 -21.328125 C 30.6875 -18.5 30.363281 -15.671875 33.953125 -15.671875 C 62.027344 -15.777344 90.105469 -15.886719 118.179688 -16.105469 C 123.730469 -16.105469 122.425781 -14.039062 122.425781 -10.011719 C 122.316406 -7.398438 124.167969 -3.15625 122.644531 -0.761719 C 121.011719 2.066406 118.835938 -0.109375 116.441406 -0.109375 C 113.71875 -0.109375 113.71875 -0.21875 110.890625 -0.21875 C 80.636719 -0.21875 50.382812 0.542969 20.132812 -0.109375 C 18.609375 -0.21875 16.976562 -0.21875 15.453125 0.21875 C 14.039062 0.542969 12.1875 1.304688 11.101562 0.21875 Z M 10.882812 0 "/></g></g></g><g fill="#ffffff" fill-opacity="1"><g transform="translate(1427.066738, 1877.967387)"><g><path d="M 3.15625 -0.109375 C 3.589844 0.328125 4.136719 0.328125 4.679688 0.433594 C 10.121094 0.652344 16.105469 1.957031 21.328125 0.21875 C 27.75 -1.742188 26.445312 -12.078125 33.953125 -12.078125 C 45.8125 -12.078125 57.675781 -11.863281 69.539062 -11.863281 C 75.414062 -11.863281 81.398438 -11.863281 87.277344 -12.078125 C 91.953125 -12.1875 97.832031 -13.492188 102.402344 -12.515625 C 107.191406 -11.425781 107.296875 -4.351562 110.671875 -1.523438 C 113.066406 0.652344 116.765625 0.652344 120.03125 0.652344 C 123.296875 0.542969 126.667969 0.433594 129.933594 0.433594 C 130.371094 0.433594 130.804688 0.433594 131.132812 0.21875 C 132 -0.433594 131.347656 -1.851562 130.695312 -2.71875 C 114.699219 -24.265625 99.679688 -46.574219 85.859375 -69.644531 C 84.121094 -72.691406 81.941406 -75.957031 78.570312 -76.9375 C 76.9375 -77.480469 75.085938 -77.265625 73.347656 -77.15625 C 67.253906 -76.609375 55.0625 -78.132812 51.363281 -72.585938 C 37.433594 -51.582031 23.398438 -30.578125 9.46875 -9.683594 C 8.378906 -8.160156 1.414062 -2.175781 3.15625 -0.109375 Z M 42.660156 -28.183594 C 42.441406 -28.621094 42.332031 -28.945312 42.332031 -29.382812 C 42.441406 -30.253906 42.984375 -30.90625 43.527344 -31.667969 C 47.664062 -36.890625 51.691406 -42.332031 55.5 -47.992188 C 57.457031 -50.929688 59.308594 -53.867188 61.15625 -56.804688 C 62.136719 -58.328125 64.859375 -65.074219 66.382812 -65.621094 C 69.863281 -66.925781 76.066406 -52.886719 77.808594 -50.058594 C 82.160156 -43.527344 86.730469 -37.109375 91.519531 -30.90625 C 92.0625 -30.253906 92.609375 -29.382812 92.5 -28.621094 C 91.738281 -24.921875 80.527344 -27.859375 78.027344 -27.96875 C 68.121094 -28.839844 57.894531 -28.074219 47.992188 -26.769531 C 46.792969 -26.660156 45.597656 -26.445312 44.507812 -26.878906 C 43.746094 -27.097656 42.984375 -27.53125 42.660156 -28.183594 Z M 42.660156 -28.183594 "/></g></g></g><g fill="#ffffff" fill-opacity="1"><g transform="translate(1561.452061, 1877.967387)"><g><path d="M 11.207031 -0.109375 C 10.339844 -1.304688 10.554688 -3.265625 10.664062 -4.570312 C 11.207031 -13.929688 10.882812 -23.289062 10.882812 -32.648438 C 10.882812 -35.367188 11.207031 -35.367188 11.207031 -38.085938 C 11.207031 -40.808594 10.773438 -40.808594 10.773438 -43.527344 C 10.773438 -46.140625 11.207031 -48.425781 10.992188 -51.039062 C 10.664062 -55.71875 10.773438 -60.613281 10.773438 -65.292969 C 10.773438 -67.46875 11.207031 -69.644531 10.882812 -71.824219 C 10.445312 -74.980469 10.664062 -77.371094 14.691406 -76.71875 C 18.5 -75.957031 22.308594 -76.066406 26.226562 -76.066406 C 28.730469 -76.066406 29.492188 -78.027344 31.230469 -76.175781 C 33.082031 -74.324219 31.339844 -69.972656 31.230469 -67.796875 C 30.90625 -63.335938 31.667969 -59.089844 30.90625 -54.519531 C 30.253906 -51.148438 30.90625 -49.296875 34.496094 -51.253906 C 41.570312 -54.957031 49.296875 -57.023438 56.914062 -59.199219 C 64.96875 -61.375 72.800781 -64.207031 80.636719 -67.035156 C 85.753906 -68.777344 90.976562 -70.625 96.089844 -72.476562 C 100.335938 -73.890625 105.011719 -75.523438 109.585938 -76.066406 C 121.988281 -77.589844 134.722656 -75.195312 147.128906 -76.503906 C 147.671875 -76.503906 148.214844 -76.609375 148.652344 -76.394531 C 148.761719 -75.195312 146.800781 -74.542969 145.605469 -74.21875 C 143.535156 -73.5625 141.25 -73.347656 139.183594 -72.691406 C 134.941406 -71.386719 130.804688 -69.863281 126.777344 -68.339844 C 124.058594 -67.359375 124.058594 -67.359375 121.335938 -66.382812 C 112.304688 -63.007812 103.382812 -59.742188 94.347656 -56.480469 L 88.90625 -54.519531 C 86.296875 -53.539062 83.792969 -52.34375 81.074219 -51.363281 C 78.894531 -50.601562 74.871094 -50.710938 73.128906 -49.296875 C 69.863281 -46.792969 78.027344 -44.726562 79.332031 -43.964844 C 91.085938 -37.109375 102.511719 -29.707031 113.9375 -22.199219 C 119.597656 -18.390625 125.253906 -14.691406 131.023438 -10.882812 C 135.703125 -7.835938 140.488281 -3.808594 145.929688 -2.175781 C 146.582031 -1.957031 147.34375 -1.742188 147.890625 -1.304688 C 148.433594 -0.871094 148.761719 -0.652344 148.652344 0.109375 C 148.542969 1.089844 125.035156 0.109375 122.644531 0.328125 C 113.609375 0.761719 105.882812 -6.203125 99.136719 -11.101562 C 91.953125 -16.324219 84.335938 -21.003906 76.71875 -25.789062 C 72.691406 -28.402344 68.667969 -31.125 64.640625 -33.84375 C 62.574219 -35.257812 60.503906 -36.671875 58.546875 -38.085938 C 56.480469 -39.503906 54.628906 -41.460938 52.015625 -41.027344 C 48.644531 -40.589844 45.488281 -38.085938 42.332031 -36.890625 C 40.265625 -36.238281 38.304688 -35.148438 36.238281 -34.714844 C 34.277344 -34.277344 31.667969 -34.496094 31.125 -32.101562 C 30.796875 -30.90625 31.125 -29.601562 31.339844 -28.292969 C 31.558594 -26.550781 31.339844 -24.8125 31.339844 -22.960938 C 31.125 -18.71875 31.230469 -14.363281 31.449219 -10.121094 C 31.558594 -6.636719 34.386719 2.175781 27.859375 0.21875 C 25.789062 -0.433594 23.613281 0.109375 21.546875 0.109375 C 20.023438 0 18.390625 -0.542969 16.867188 -0.21875 C 15.5625 0 13.167969 1.195312 11.753906 0.433594 C 11.535156 0.328125 11.316406 0.109375 11.207031 -0.109375 Z M 11.207031 -0.109375 "/></g></g></g><g fill="#ffffff" fill-opacity="1"><g transform="translate(1715.097405, 1877.967387)"><g><path d="M 10.882812 0 C 10.554688 -0.542969 10.445312 -1.195312 10.339844 -1.742188 C 9.683594 -5.984375 10.882812 -10.011719 10.882812 -14.253906 C 10.992188 -20.675781 10.992188 -27.097656 10.992188 -33.625 C 10.992188 -42.875 10.992188 -52.125 10.882812 -61.375 C 10.882812 -65.292969 8.160156 -76.394531 13.820312 -76.394531 L 117.964844 -76.066406 C 119.378906 -76.066406 120.902344 -75.957031 121.773438 -74.871094 C 122.316406 -74.109375 122.425781 -73.128906 122.425781 -72.148438 L 122.75 -64.421875 C 122.75 -63.117188 122.75 -61.59375 121.664062 -60.722656 C 119.703125 -59.089844 116.65625 -59.742188 114.371094 -59.960938 C 111.214844 -60.179688 107.953125 -60.070312 104.6875 -60.070312 C 96.960938 -60.179688 89.125 -60.179688 81.398438 -60.289062 C 65.945312 -60.394531 50.601562 -60.394531 35.257812 -60.503906 C 28.511719 -60.503906 30.46875 -53.324219 30.363281 -48.207031 C 30.253906 -46.574219 31.015625 -44.617188 32.648438 -44.289062 C 35.039062 -43.746094 39.71875 -44.726562 42.550781 -44.726562 C 56.914062 -44.726562 71.277344 -44.835938 85.644531 -44.835938 C 92.824219 -44.945312 100.007812 -44.945312 107.191406 -45.050781 C 111.324219 -45.050781 123.40625 -47.773438 122.644531 -40.808594 L 121.664062 -31.777344 C 121.664062 -31.230469 121.554688 -30.6875 121.226562 -30.363281 C 120.792969 -29.925781 120.140625 -29.925781 119.597656 -29.925781 C 93.914062 -29.816406 68.121094 -29.816406 42.550781 -29.816406 C 39.9375 -29.816406 37.761719 -29.707031 35.257812 -30.46875 C 33.625 -30.90625 31.558594 -31.015625 30.6875 -29.601562 C 29.382812 -27.207031 30.035156 -23.832031 30.363281 -21.328125 C 30.6875 -18.5 30.363281 -15.671875 33.953125 -15.671875 C 62.027344 -15.777344 90.105469 -15.886719 118.179688 -16.105469 C 123.730469 -16.105469 122.425781 -14.039062 122.425781 -10.011719 C 122.316406 -7.398438 124.167969 -3.15625 122.644531 -0.761719 C 121.011719 2.066406 118.835938 -0.109375 116.441406 -0.109375 C 113.71875 -0.109375 113.71875 -0.21875 110.890625 -0.21875 C 80.636719 -0.21875 50.382812 0.542969 20.132812 -0.109375 C 18.609375 -0.21875 16.976562 -0.21875 15.453125 0.21875 C 14.039062 0.542969 12.1875 1.304688 11.101562 0.21875 Z M 10.882812 0 "/></g></g></g><g fill="#ffffff" fill-opacity="1"><g transform="translate(1847.959329, 1877.967387)"><g><path d="M 122.425781 -4.351562 C 118.179688 -8.597656 113.9375 -12.839844 109.910156 -17.195312 C 107.84375 -19.261719 105.992188 -21.4375 104.035156 -23.503906 C 102.074219 -25.355469 99.679688 -26.769531 98.050781 -28.945312 C 97.832031 -29.273438 97.613281 -29.601562 97.722656 -29.925781 C 97.832031 -31.015625 102.945312 -31.339844 103.925781 -31.558594 C 106.210938 -32.210938 108.605469 -32.972656 110.671875 -34.277344 C 112.304688 -35.257812 113.9375 -36.457031 115.351562 -37.871094 C 116.113281 -38.742188 118.941406 -41.136719 118.941406 -42.441406 C 123.296875 -49.839844 122.96875 -59.960938 117.417969 -66.597656 C 114.046875 -70.625 108.929688 -73.128906 103.816406 -74.433594 C 98.59375 -75.742188 93.152344 -75.847656 87.820312 -75.957031 C 63.007812 -76.609375 38.085938 -76.609375 13.277344 -76.066406 C 12.515625 -76.066406 11.753906 -76.066406 11.316406 -75.523438 C 10.882812 -75.085938 10.882812 -74.324219 10.882812 -73.78125 L 10.882812 -34.714844 C 10.882812 -28.183594 10.882812 -21.65625 10.882812 -15.234375 L 10.882812 -5.441406 C 10.882812 -3.480469 9.359375 -0.21875 12.078125 0.542969 C 13.277344 0.871094 14.363281 0.542969 15.5625 0.328125 C 19.589844 -0.542969 23.832031 -0.433594 27.859375 0.433594 C 28.621094 0.652344 29.382812 0.871094 30.035156 0.652344 C 31.449219 0.109375 31.667969 -1.742188 31.558594 -3.15625 C 31.558594 -7.617188 31.449219 -12.078125 31.339844 -16.433594 C 31.230469 -18.71875 31.230469 -21.003906 31.125 -23.289062 C 31.125 -24.8125 31.125 -26.226562 31.015625 -27.75 C 31.015625 -28.183594 31.015625 -28.730469 31.339844 -29.054688 C 32.320312 -30.035156 36.347656 -29.273438 37.761719 -29.273438 C 40.265625 -29.273438 42.660156 -29.382812 45.160156 -29.382812 C 49.730469 -29.382812 54.300781 -29.382812 58.765625 -29.492188 L 67.253906 -29.492188 C 69.429688 -29.601562 71.605469 -29.601562 73.78125 -28.839844 C 76.9375 -27.859375 79.332031 -25.246094 81.507812 -22.742188 L 98.484375 -4.351562 C 99.898438 -2.828125 101.3125 -1.195312 103.273438 -0.433594 C 104.90625 0.21875 106.753906 0.21875 108.605469 0.21875 L 124.820312 0.21875 C 125.253906 0.21875 125.796875 0.109375 125.90625 -0.21875 C 126.015625 -0.652344 125.691406 -0.871094 125.472656 -1.195312 C 124.492188 -2.285156 123.40625 -3.265625 122.425781 -4.351562 Z M 66.382812 -43.527344 L 61.484375 -43.527344 C 52.234375 -43.636719 42.984375 -43.636719 33.734375 -43.636719 C 32.429688 -43.636719 31.339844 -43.964844 31.339844 -45.378906 C 31.339844 -48.753906 31.339844 -52.015625 31.230469 -55.390625 C 31.230469 -56.804688 30.253906 -60.941406 31.667969 -61.8125 C 32.320312 -62.355469 33.734375 -62.027344 34.605469 -62.027344 C 35.910156 -62.027344 37.21875 -61.8125 38.632812 -61.917969 L 44.289062 -61.917969 C 53.867188 -62.027344 63.335938 -61.917969 72.910156 -61.917969 C 78.894531 -61.917969 84.882812 -62.027344 90.867188 -61.050781 C 93.476562 -60.613281 96.199219 -59.960938 98.375 -58.328125 C 100.550781 -56.804688 102.074219 -53.976562 101.421875 -51.363281 C 101.097656 -49.621094 99.679688 -48.097656 98.15625 -47.121094 C 96.527344 -46.140625 94.785156 -45.597656 92.933594 -45.160156 C 84.445312 -43.203125 75.304688 -43.3125 66.382812 -43.527344 Z M 66.382812 -43.527344 "/></g></g></g></svg>