<svg xmlns="http://www.w3.org/2000/svg" xmlns:xlink="http://www.w3.org/1999/xlink" width="3000" zoomAndPan="magnify" viewBox="0 0 2250 2250.000011" height="3000" preserveAspectRatio="xMidYMid meet" version="1.0"><defs><g/><clipPath id="869675da42"><path d="M 308 617 L 1134 617 L 1134 1558 L 308 1558 Z M 308 617 " clip-rule="nonzero"/></clipPath><clipPath id="17abf86ea8"><path d="M 488.71875 505.457031 L 1135.078125 1558.660156 L 953.535156 1670.074219 L 307.179688 616.871094 Z M 488.71875 505.457031 " clip-rule="nonzero"/></clipPath><clipPath id="b2587367dd"><path d="M 488.71875 505.457031 L 1135.078125 1558.660156 L 953.535156 1670.074219 L 307.179688 616.871094 Z M 488.71875 505.457031 " clip-rule="nonzero"/></clipPath><clipPath id="90c0061abc"><path d="M 225 862 L 814 862 L 814 1558 L 225 1558 Z M 225 862 " clip-rule="nonzero"/></clipPath><clipPath id="5b13b1f44e"><path d="M 359.25 782.675781 L 814.550781 1558.863281 L 680.371094 1637.570312 L 225.070312 861.382812 Z M 359.25 782.675781 " clip-rule="nonzero"/></clipPath><clipPath id="b2c957858d"><path d="M 359.25 782.675781 L 814.550781 1558.863281 L 680.371094 1637.570312 L 225.070312 861.382812 Z M 359.25 782.675781 " clip-rule="nonzero"/></clipPath><clipPath id="45a43afca8"><path d="M 1423 868 L 2024 868 L 2024 1554 L 1423 1554 Z M 1423 868 " clip-rule="nonzero"/></clipPath><clipPath id="506eb07974"><path d="M 2024.589844 867.730469 L 1555.199219 1635.480469 L 1422.476562 1554.335938 L 1891.867188 786.585938 Z M 2024.589844 867.730469 " clip-rule="nonzero"/></clipPath><clipPath id="44787f5161"><path d="M 1555.328125 1635.265625 L 2024.71875 867.519531 L 1892 786.375 L 1422.605469 1554.121094 Z M 1555.328125 1635.265625 " clip-rule="nonzero"/></clipPath><clipPath id="dac30fae50"><path d="M 736 494 L 1337 494 L 1337 1528 L 736 1528 Z M 736 494 " clip-rule="nonzero"/></clipPath><clipPath id="d2b4cafd78"><path d="M 731.417969 466.410156 L 1352.664062 1549.359375 L 1341.589844 1555.710938 L 720.347656 472.761719 Z M 731.417969 466.410156 " clip-rule="nonzero"/></clipPath><clipPath id="e906355619"><path d="M 731.417969 466.410156 L 1352.664062 1549.359375 L 1341.589844 1555.710938 L 720.347656 472.761719 Z M 731.417969 466.410156 " clip-rule="nonzero"/></clipPath><clipPath id="c31088ef87"><path d="M 1165 791 L 1598 791 L 1598 1536 L 1165 1536 Z M 1165 791 " clip-rule="nonzero"/></clipPath><clipPath id="9e7590ec44"><path d="M 1161.113281 770.964844 L 1608.886719 1551.519531 L 1601.273438 1555.886719 L 1153.5 775.332031 Z M 1161.113281 770.964844 " clip-rule="nonzero"/></clipPath><clipPath id="3a85f4d533"><path d="M 1161.113281 770.964844 L 1608.886719 1551.519531 L 1601.273438 1555.886719 L 1153.5 775.332031 Z M 1161.113281 770.964844 " clip-rule="nonzero"/></clipPath></defs><g fill="#ffffff" fill-opacity="1"><g transform="translate(329.348956, 1762.869554)"><g><path d="M 164.425781 -65.675781 C 163.105469 -65.015625 162.351562 -63.699219 161.597656 -62.378906 L 139.832031 -24.5 C 138.515625 -22.238281 134.179688 -11.308594 131.164062 -12.910156 C 128.335938 -14.511719 126.074219 -21.011719 124.664062 -23.746094 C 122.402344 -28.457031 120.046875 -33.074219 117.691406 -37.691406 C 115.335938 -42.496094 113.074219 -47.394531 110.621094 -52.203125 C 109.492188 -54.558594 108.265625 -57.007812 106.949219 -59.363281 C 106.003906 -61.152344 105.15625 -63.792969 103.460938 -64.921875 C 102.238281 -65.769531 100.632812 -65.863281 99.125 -65.960938 C 96.582031 -65.960938 93.851562 -66.148438 91.210938 -66.148438 C 89.042969 -66.242188 85.277344 -66.996094 83.296875 -65.769531 C 82.542969 -65.300781 82.167969 -64.546875 81.695312 -63.699219 C 77.171875 -54.746094 72.648438 -45.699219 68.03125 -36.65625 C 65.769531 -32.226562 63.507812 -27.796875 61.246094 -23.367188 L 57.855469 -16.773438 C 57.382812 -15.832031 56.253906 -11.402344 54.558594 -12.15625 C 54.085938 -12.4375 53.804688 -12.816406 53.519531 -13.285156 C 43.4375 -30.058594 33.167969 -46.832031 23.273438 -63.886719 C 22.898438 -64.546875 22.425781 -65.300781 21.765625 -65.769531 C 21.105469 -66.054688 20.257812 -66.054688 19.503906 -66.054688 L 6.40625 -66.054688 C 6.03125 -66.054688 5.652344 -65.960938 5.371094 -65.675781 C 4.898438 -65.300781 5.183594 -64.546875 5.558594 -63.980469 L 24.027344 -32.792969 C 26.855469 -28.078125 29.679688 -23.273438 32.695312 -18.65625 C 34.296875 -16.300781 35.617188 -13.570312 37.03125 -11.117188 C 38.066406 -9.421875 41.367188 -5.464844 41.367188 -3.488281 C 42.214844 -2.074219 43.15625 -0.566406 44.570312 0.09375 C 45.792969 0.660156 47.113281 0.566406 48.433594 0.566406 C 53.050781 0.28125 57.667969 0.09375 62.285156 -0.1875 C 63.792969 -0.28125 65.394531 -0.375 66.523438 -1.128906 C 67.65625 -1.882812 68.316406 -3.109375 68.878906 -4.335938 L 80.847656 -27.515625 C 82.917969 -31.566406 85.085938 -35.429688 86.972656 -39.480469 C 87.820312 -41.269531 88.574219 -43.15625 89.421875 -44.945312 C 90.082031 -46.453125 91.023438 -49.1875 92.4375 -50.128906 C 94.039062 -51.257812 97.335938 -43.4375 97.808594 -42.496094 C 100.164062 -37.503906 102.707031 -32.601562 105.25 -27.609375 L 106.476562 -25.347656 C 108.738281 -20.917969 111 -16.582031 113.355469 -12.15625 L 116.746094 -5.652344 C 117.59375 -4.050781 118.347656 -1.789062 119.855469 -0.753906 C 122.117188 0.753906 126.265625 -0.09375 128.808594 0 C 132.484375 0 138.609375 1.414062 142 -0.28125 C 143.132812 -0.847656 143.789062 -1.980469 144.449219 -3.015625 C 156.980469 -23.933594 169.421875 -44.851562 181.859375 -65.863281 C 177.148438 -66.335938 172.4375 -66.429688 167.722656 -66.335938 C 166.6875 -66.335938 165.558594 -66.242188 164.613281 -65.769531 C 164.519531 -65.769531 164.425781 -65.769531 164.425781 -65.675781 Z M 164.425781 -65.675781 "/></g></g></g><g fill="#ffffff" fill-opacity="1"><g transform="translate(516.092766, 1762.869554)"><g><path d="M 9.234375 -66.148438 C 9.328125 -66.242188 9.421875 -66.429688 9.609375 -66.523438 C 11.589844 -67.9375 15.925781 -65.960938 18.1875 -65.960938 C 19.410156 -65.960938 20.730469 -65.769531 21.953125 -65.863281 C 23.746094 -65.960938 26.007812 -67.464844 27.230469 -65.488281 C 28.363281 -63.507812 26.949219 -58.796875 26.855469 -56.535156 C 26.382812 -46.640625 26.476562 -36.65625 26.667969 -26.761719 L 26.949219 -11.871094 C 26.949219 -9.421875 26.761719 -6.785156 27.042969 -4.429688 C 27.136719 -3.296875 27.796875 -1.507812 27.136719 -0.375 C 26.007812 1.507812 22.238281 0.566406 20.542969 0.375 C 18.46875 0.09375 16.207031 -0.09375 14.132812 0.09375 C 12.625 0.28125 9.894531 1.414062 9.140625 -0.472656 C 8.761719 -1.320312 8.953125 -2.261719 9.046875 -3.109375 C 10.082031 -10.929688 9.707031 -18.75 9.515625 -26.570312 C 9.328125 -32.695312 9.328125 -38.726562 9.328125 -44.851562 C 9.421875 -48.714844 9.800781 -52.578125 9.707031 -56.347656 C 9.707031 -58.515625 7.820312 -64.546875 9.234375 -66.148438 Z M 9.234375 -66.148438 "/></g></g></g><g fill="#ffffff" fill-opacity="1"><g transform="translate(552.461646, 1762.869554)"><g><path d="M 9.234375 0 C 8.292969 -0.847656 8.574219 -1.882812 8.855469 -3.109375 C 9.421875 -5.183594 9.234375 -7.445312 9.234375 -9.609375 C 9.328125 -18.46875 9.328125 -27.421875 9.328125 -36.371094 C 9.328125 -41.367188 9.515625 -46.265625 9.515625 -51.164062 C 9.515625 -53.710938 9.515625 -56.253906 9.328125 -58.796875 C 9.234375 -60.777344 8.105469 -63.320312 8.761719 -65.300781 C 9.421875 -67.089844 11.496094 -66.617188 12.910156 -66.335938 C 15.640625 -65.960938 18.375 -65.769531 21.105469 -65.960938 C 22.238281 -65.960938 23.367188 -66.148438 24.5 -66.429688 C 25.628906 -66.710938 26.949219 -66.335938 27.324219 -65.109375 C 27.421875 -64.453125 27.324219 -63.792969 27.230469 -63.132812 C 26.667969 -60.023438 26.667969 -56.914062 26.667969 -53.710938 C 26.570312 -47.492188 26.667969 -41.082031 26.761719 -34.769531 C 26.855469 -31.566406 26.855469 -28.269531 26.855469 -24.96875 C 26.855469 -21.953125 26.476562 -19.035156 26.289062 -16.019531 C 26.195312 -15.171875 26.195312 -14.226562 26.855469 -13.570312 C 28.078125 -12.4375 29.964844 -13.472656 31.285156 -13.757812 C 33.167969 -14.132812 35.148438 -13.757812 37.03125 -13.757812 C 44.570312 -13.472656 52.109375 -13.757812 59.644531 -13.757812 C 67.464844 -13.757812 75.289062 -13.757812 83.109375 -13.851562 C 85.652344 -13.851562 88.195312 -13.945312 90.742188 -13.945312 C 93.191406 -13.945312 93.191406 -13.570312 95.640625 -13.570312 C 97.148438 -13.570312 98.65625 -14.605469 100.070312 -14.226562 C 101.765625 -13.757812 101.484375 -11.308594 101.292969 -10.082031 C 100.917969 -7.726562 100.257812 -5.558594 100.824219 -3.203125 C 101.011719 -2.636719 101.199219 -2.074219 101.199219 -1.414062 C 101.292969 0.472656 99.316406 0.660156 97.902344 0.472656 C 91.589844 -0.472656 85.371094 -0.1875 79.054688 0 C 63.601562 0.375 48.054688 0 32.601562 0 C 27.421875 0.09375 22.144531 0 16.960938 -0.1875 C 15.078125 -0.28125 13.378906 0.847656 11.496094 0.847656 C 10.742188 0.847656 9.894531 0.566406 9.234375 0 Z M 9.234375 0 "/></g></g></g><g fill="#ffffff" fill-opacity="1"><g transform="translate(657.893698, 1762.869554)"><g><path d="M 9.046875 0.09375 C 7.539062 -1.226562 9.328125 -3.769531 9.515625 -5.464844 C 9.707031 -7.253906 9.046875 -8.953125 9.046875 -10.835938 C 9.046875 -13.851562 9.140625 -16.867188 9.140625 -19.789062 C 9.046875 -25.722656 8.953125 -31.753906 8.953125 -37.691406 L 8.953125 -42.402344 C 8.953125 -47.773438 8.855469 -53.050781 8.855469 -58.421875 C 8.761719 -60.964844 8.105469 -63.980469 10.460938 -65.675781 C 13.757812 -68.125 19.695312 -66.054688 23.460938 -66.054688 C 40.421875 -66.054688 57.480469 -67.089844 74.4375 -65.675781 C 87.253906 -64.640625 101.011719 -61.53125 111.566406 -53.898438 C 112.882812 -52.863281 114.296875 -52.109375 115.429688 -50.976562 C 122.777344 -43.816406 124.566406 -31.660156 119.574219 -22.613281 C 114.582031 -13.472656 104.496094 -7.820312 94.886719 -4.617188 C 93.378906 -4.144531 91.777344 -3.769531 90.269531 -3.390625 C 88.667969 -2.921875 87.160156 -2.734375 85.558594 -2.449219 C 61.8125 2.542969 36.371094 -1.414062 12.25 0.660156 C 11.496094 0.660156 10.648438 0.753906 9.894531 0.472656 C 9.515625 0.375 9.328125 0.1875 9.046875 0.09375 Z M 26.667969 -12.34375 C 27.324219 -11.683594 28.550781 -11.683594 29.492188 -11.777344 C 49.941406 -13.285156 71.234375 -9.707031 90.929688 -17.242188 C 99.410156 -20.449219 107.511719 -28.925781 104.027344 -38.632812 C 103.554688 -40.140625 102.707031 -41.460938 101.671875 -42.683594 C 98.5625 -46.453125 94.511719 -48.714844 89.894531 -50.222656 C 76.324219 -54.652344 60.492188 -53.804688 46.453125 -53.804688 L 29.777344 -53.804688 C 24.96875 -53.804688 26.855469 -52.296875 26.855469 -49 C 26.855469 -46.738281 26.476562 -46.738281 26.476562 -44.476562 C 26.476562 -42.121094 26.667969 -42.121094 26.667969 -39.859375 C 26.667969 -37.597656 26.667969 -37.597656 26.667969 -35.242188 L 26.667969 -18.65625 C 26.667969 -17.054688 25.441406 -13.664062 26.570312 -12.4375 C 26.570312 -12.34375 26.667969 -12.34375 26.667969 -12.34375 Z M 26.667969 -12.34375 "/></g></g></g><g fill="#ffffff" fill-opacity="1"><g transform="translate(785.655863, 1762.869554)"><g/></g></g><g fill="#ffffff" fill-opacity="1"><g transform="translate(832.765836, 1762.869554)"><g><path d="M 103.367188 -45.792969 C 104.121094 -46.078125 104.59375 -46.925781 104.496094 -48.902344 C 104.402344 -52.296875 104.214844 -55.59375 104.121094 -58.984375 C 104.121094 -59.738281 104.027344 -60.492188 103.742188 -61.152344 C 103.085938 -62.378906 100.445312 -62.945312 99.316406 -63.320312 C 97.808594 -63.886719 96.207031 -64.261719 94.605469 -64.734375 C 93.097656 -65.207031 91.496094 -65.394531 89.894531 -65.863281 C 85.085938 -66.996094 80.375 -67.9375 75.476562 -68.316406 C 73.875 -68.503906 72.273438 -68.410156 70.574219 -68.503906 C 68.972656 -68.597656 67.371094 -68.878906 65.675781 -68.878906 C 64.074219 -68.878906 62.472656 -68.691406 60.871094 -68.597656 C 48.148438 -68.03125 34.769531 -65.488281 23.558594 -59.269531 C 19.410156 -57.007812 15.359375 -53.710938 12.15625 -50.316406 C 11.023438 -49.09375 10.082031 -47.773438 9.140625 -46.546875 C 5.652344 -41.367188 3.582031 -34.488281 4.992188 -28.078125 C 5.371094 -26.570312 6.03125 -25.0625 6.691406 -23.558594 C 12.15625 -11.308594 24.875 -4.992188 37.03125 -1.226562 C 38.539062 -0.753906 40.046875 -0.28125 41.648438 0.09375 C 43.25 0.472656 44.851562 0.753906 46.453125 1.035156 C 56.066406 2.921875 65.675781 3.296875 75.476562 2.449219 C 77.078125 2.261719 78.773438 2.355469 80.375 2.167969 C 84.804688 1.507812 89.140625 0.472656 93.378906 -0.847656 C 95.828125 -1.601562 102.046875 -2.542969 103.460938 -4.804688 C 103.742188 -5.183594 103.839844 -5.652344 103.839844 -6.125 C 104.121094 -10.742188 104.875 -16.207031 104.027344 -20.730469 C 102.519531 -20.351562 101.199219 -18.84375 99.785156 -17.902344 C 98.46875 -16.960938 97.148438 -15.925781 95.546875 -15.171875 C 85.277344 -9.800781 73.308594 -7.914062 61.8125 -8.574219 C 49 -9.328125 33.542969 -12.71875 25.628906 -23.839844 C 21.484375 -29.585938 21.390625 -36.371094 25.535156 -42.121094 C 37.03125 -58.328125 63.601562 -59.269531 81.035156 -55.78125 C 86.03125 -54.746094 91.117188 -53.144531 95.546875 -50.789062 C 97.054688 -49.941406 101.292969 -45.324219 103.367188 -45.792969 Z M 103.367188 -45.792969 "/></g></g></g><g fill="#ffffff" fill-opacity="1"><g transform="translate(941.307146, 1762.869554)"><g><path d="M 2.734375 -0.09375 C 3.109375 0.28125 3.582031 0.28125 4.050781 0.375 C 8.761719 0.566406 13.945312 1.695312 18.46875 0.1875 C 24.027344 -1.507812 22.898438 -10.460938 29.398438 -10.460938 C 39.667969 -10.460938 49.941406 -10.269531 60.210938 -10.269531 C 65.300781 -10.269531 70.480469 -10.269531 75.570312 -10.460938 C 79.621094 -10.554688 84.710938 -11.683594 88.667969 -10.835938 C 92.8125 -9.894531 92.90625 -3.769531 95.828125 -1.320312 C 97.902344 0.566406 101.105469 0.566406 103.933594 0.566406 C 106.757812 0.472656 109.679688 0.375 112.507812 0.375 C 112.882812 0.375 113.261719 0.375 113.542969 0.1875 C 114.296875 -0.375 113.730469 -1.601562 113.167969 -2.355469 C 99.316406 -21.011719 86.3125 -40.328125 74.34375 -60.304688 C 72.835938 -62.945312 70.953125 -65.769531 68.03125 -66.617188 C 66.617188 -67.089844 65.015625 -66.902344 63.507812 -66.808594 C 58.230469 -66.335938 47.679688 -67.65625 44.476562 -62.847656 C 32.414062 -44.664062 20.257812 -26.476562 8.199219 -8.386719 C 7.253906 -7.066406 1.226562 -1.882812 2.734375 -0.09375 Z M 36.9375 -24.40625 C 36.75 -24.78125 36.65625 -25.0625 36.65625 -25.441406 C 36.75 -26.195312 37.21875 -26.761719 37.691406 -27.421875 C 41.269531 -31.941406 44.757812 -36.65625 48.054688 -41.554688 C 49.75 -44.097656 51.355469 -46.640625 52.957031 -49.1875 C 53.804688 -50.503906 56.160156 -56.347656 57.480469 -56.820312 C 60.492188 -57.949219 65.863281 -45.792969 67.371094 -43.34375 C 71.140625 -37.691406 75.097656 -32.132812 79.246094 -26.761719 C 79.714844 -26.195312 80.1875 -25.441406 80.09375 -24.78125 C 79.433594 -21.578125 69.726562 -24.121094 67.5625 -24.214844 C 58.984375 -24.96875 50.128906 -24.3125 41.554688 -23.179688 C 40.519531 -23.085938 39.480469 -22.898438 38.539062 -23.273438 C 37.878906 -23.460938 37.21875 -23.839844 36.9375 -24.40625 Z M 36.9375 -24.40625 "/></g></g></g><g fill="#ffffff" fill-opacity="1"><g transform="translate(1057.668706, 1762.869554)"><g><path d="M 106.003906 -3.769531 C 102.332031 -7.445312 98.65625 -11.117188 95.167969 -14.886719 C 93.378906 -16.679688 91.777344 -18.5625 90.082031 -20.351562 C 88.386719 -21.953125 86.3125 -23.179688 84.898438 -25.0625 C 84.710938 -25.347656 84.523438 -25.628906 84.617188 -25.914062 C 84.710938 -26.855469 89.140625 -27.136719 89.988281 -27.324219 C 91.964844 -27.890625 94.039062 -28.550781 95.828125 -29.679688 C 97.242188 -30.53125 98.65625 -31.566406 99.878906 -32.792969 C 100.539062 -33.542969 102.992188 -35.617188 102.992188 -36.75 C 106.757812 -43.15625 106.476562 -51.917969 101.671875 -57.667969 C 98.75 -61.152344 94.320312 -63.320312 89.894531 -64.453125 C 85.371094 -65.582031 80.660156 -65.675781 76.042969 -65.769531 C 54.558594 -66.335938 32.980469 -66.335938 11.496094 -65.863281 C 10.835938 -65.863281 10.175781 -65.863281 9.800781 -65.394531 C 9.421875 -65.015625 9.421875 -64.355469 9.421875 -63.886719 L 9.421875 -30.058594 C 9.421875 -24.40625 9.421875 -18.75 9.421875 -13.191406 L 9.421875 -4.710938 C 9.421875 -3.015625 8.105469 -0.1875 10.460938 0.472656 C 11.496094 0.753906 12.4375 0.472656 13.472656 0.28125 C 16.960938 -0.472656 20.636719 -0.375 24.121094 0.375 C 24.78125 0.566406 25.441406 0.753906 26.007812 0.566406 C 27.230469 0.09375 27.421875 -1.507812 27.324219 -2.734375 C 27.324219 -6.597656 27.230469 -10.460938 27.136719 -14.226562 C 27.042969 -16.207031 27.042969 -18.1875 26.949219 -20.164062 C 26.949219 -21.484375 26.949219 -22.707031 26.855469 -24.027344 C 26.855469 -24.40625 26.855469 -24.875 27.136719 -25.160156 C 27.984375 -26.007812 31.472656 -25.347656 32.695312 -25.347656 C 34.863281 -25.347656 36.9375 -25.441406 39.105469 -25.441406 C 43.0625 -25.441406 47.019531 -25.441406 50.882812 -25.535156 L 58.230469 -25.535156 C 60.117188 -25.628906 62 -25.628906 63.886719 -24.96875 C 66.617188 -24.121094 68.691406 -21.859375 70.574219 -19.695312 L 85.277344 -3.769531 C 86.5 -2.449219 87.726562 -1.035156 89.421875 -0.375 C 90.835938 0.1875 92.4375 0.1875 94.039062 0.1875 L 108.078125 0.1875 C 108.457031 0.1875 108.925781 0.09375 109.019531 -0.1875 C 109.113281 -0.566406 108.832031 -0.753906 108.644531 -1.035156 C 107.796875 -1.980469 106.855469 -2.828125 106.003906 -3.769531 Z M 57.480469 -37.691406 L 53.238281 -37.691406 C 45.230469 -37.785156 37.21875 -37.785156 29.210938 -37.785156 C 28.078125 -37.785156 27.136719 -38.066406 27.136719 -39.292969 C 27.136719 -42.214844 27.136719 -45.039062 27.042969 -47.960938 C 27.042969 -49.1875 26.195312 -52.765625 27.421875 -53.519531 C 27.984375 -53.992188 29.210938 -53.710938 29.964844 -53.710938 C 31.09375 -53.710938 32.226562 -53.519531 33.449219 -53.617188 L 38.351562 -53.617188 C 46.640625 -53.710938 54.839844 -53.617188 63.132812 -53.617188 C 68.316406 -53.617188 73.496094 -53.710938 78.679688 -52.863281 C 80.941406 -52.484375 83.296875 -51.917969 85.179688 -50.503906 C 87.066406 -49.1875 88.386719 -46.738281 87.820312 -44.476562 C 87.535156 -42.96875 86.3125 -41.648438 84.992188 -40.800781 C 83.578125 -39.953125 82.070312 -39.480469 80.46875 -39.105469 C 73.121094 -37.40625 65.207031 -37.503906 57.480469 -37.691406 Z M 57.480469 -37.691406 "/></g></g></g><g fill="#ffffff" fill-opacity="1"><g transform="translate(1171.580522, 1762.869554)"><g><path d="M 9.046875 0.09375 C 7.539062 -1.226562 9.328125 -3.769531 9.515625 -5.464844 C 9.707031 -7.253906 9.046875 -8.953125 9.046875 -10.835938 C 9.046875 -13.851562 9.140625 -16.867188 9.140625 -19.789062 C 9.046875 -25.722656 8.953125 -31.753906 8.953125 -37.691406 L 8.953125 -42.402344 C 8.953125 -47.773438 8.855469 -53.050781 8.855469 -58.421875 C 8.761719 -60.964844 8.105469 -63.980469 10.460938 -65.675781 C 13.757812 -68.125 19.695312 -66.054688 23.460938 -66.054688 C 40.421875 -66.054688 57.480469 -67.089844 74.4375 -65.675781 C 87.253906 -64.640625 101.011719 -61.53125 111.566406 -53.898438 C 112.882812 -52.863281 114.296875 -52.109375 115.429688 -50.976562 C 122.777344 -43.816406 124.566406 -31.660156 119.574219 -22.613281 C 114.582031 -13.472656 104.496094 -7.820312 94.886719 -4.617188 C 93.378906 -4.144531 91.777344 -3.769531 90.269531 -3.390625 C 88.667969 -2.921875 87.160156 -2.734375 85.558594 -2.449219 C 61.8125 2.542969 36.371094 -1.414062 12.25 0.660156 C 11.496094 0.660156 10.648438 0.753906 9.894531 0.472656 C 9.515625 0.375 9.328125 0.1875 9.046875 0.09375 Z M 26.667969 -12.34375 C 27.324219 -11.683594 28.550781 -11.683594 29.492188 -11.777344 C 49.941406 -13.285156 71.234375 -9.707031 90.929688 -17.242188 C 99.410156 -20.449219 107.511719 -28.925781 104.027344 -38.632812 C 103.554688 -40.140625 102.707031 -41.460938 101.671875 -42.683594 C 98.5625 -46.453125 94.511719 -48.714844 89.894531 -50.222656 C 76.324219 -54.652344 60.492188 -53.804688 46.453125 -53.804688 L 29.777344 -53.804688 C 24.96875 -53.804688 26.855469 -52.296875 26.855469 -49 C 26.855469 -46.738281 26.476562 -46.738281 26.476562 -44.476562 C 26.476562 -42.121094 26.667969 -42.121094 26.667969 -39.859375 C 26.667969 -37.597656 26.667969 -37.597656 26.667969 -35.242188 L 26.667969 -18.65625 C 26.667969 -17.054688 25.441406 -13.664062 26.570312 -12.4375 C 26.570312 -12.34375 26.667969 -12.34375 26.667969 -12.34375 Z M 26.667969 -12.34375 "/></g></g></g><g fill="#ffffff" fill-opacity="1"><g transform="translate(1299.342688, 1762.869554)"><g/></g></g><g fill="#ffffff" fill-opacity="1"><g transform="translate(1346.452661, 1762.869554)"><g><path d="M 6.21875 -4.710938 C 6.40625 -4.429688 6.785156 -4.238281 7.160156 -4.050781 C 19.035156 1.507812 32.601562 2.542969 45.699219 3.015625 C 60.398438 3.582031 75.476562 3.488281 89.328125 -1.507812 C 92.8125 -2.828125 96.394531 -4.523438 98.5625 -7.539062 C 100.070312 -9.515625 100.824219 -11.96875 101.386719 -14.324219 C 102.046875 -16.960938 102.425781 -19.695312 101.953125 -22.425781 C 101.199219 -26.761719 97.996094 -30.433594 94.226562 -32.792969 C 90.363281 -35.050781 85.933594 -36.183594 81.601562 -36.84375 C 64.355469 -39.574219 46.546875 -37.03125 29.398438 -40.328125 C 25.722656 -41.082031 21.390625 -42.777344 20.917969 -46.546875 C 20.636719 -48.714844 21.953125 -50.882812 23.746094 -52.203125 C 25.535156 -53.519531 27.796875 -54.179688 29.964844 -54.652344 C 37.878906 -56.441406 46.078125 -57.007812 54.273438 -56.914062 C 58.328125 -56.914062 62.378906 -56.726562 66.429688 -56.347656 C 68.125 -56.253906 69.726562 -56.535156 71.328125 -56.253906 C 73.027344 -55.972656 74.628906 -55.40625 76.230469 -54.933594 C 78.960938 -54.367188 81.601562 -53.617188 84.144531 -52.765625 C 89.140625 -50.976562 93.945312 -48.527344 97.714844 -44.757812 C 97.714844 -49.375 97.808594 -53.992188 97.902344 -58.609375 C 97.902344 -59.363281 97.902344 -60.023438 97.621094 -60.683594 C 97.242188 -61.4375 96.394531 -61.8125 95.640625 -62.191406 C 83.863281 -67.75 70.386719 -68.503906 57.382812 -68.691406 C 45.136719 -68.878906 32.695312 -68.503906 20.917969 -65.300781 C 15.734375 -63.886719 10.648438 -61.8125 7.066406 -57.761719 C 2.542969 -52.578125 1.695312 -44.476562 5.183594 -38.445312 C 7.726562 -34.015625 12.15625 -31 16.867188 -29.304688 C 21.671875 -27.515625 26.761719 -27.042969 31.847656 -26.667969 C 45.417969 -25.816406 59.082031 -26.289062 72.742188 -25.253906 C 75.476562 -24.96875 78.398438 -24.6875 80.753906 -23.273438 C 83.203125 -21.859375 84.992188 -19.035156 84.425781 -16.300781 C 83.578125 -12.910156 79.714844 -11.308594 76.324219 -10.554688 C 69.824219 -9.046875 63.039062 -8.761719 56.347656 -8.574219 C 47.492188 -8.480469 38.539062 -8.667969 29.777344 -10.363281 C 21.011719 -12.0625 12.4375 -15.453125 5.464844 -21.011719 C 5.277344 -15.925781 5.371094 -10.929688 5.746094 -5.9375 C 5.84375 -5.558594 5.84375 -5.183594 6.03125 -4.898438 C 6.125 -4.804688 6.125 -4.710938 6.21875 -4.710938 Z M 6.21875 -4.710938 "/></g></g></g><g fill="#ffffff" fill-opacity="1"><g transform="translate(1452.167392, 1762.869554)"><g><path d="M 3.109375 -32.886719 C 2.828125 -37.597656 3.957031 -42.496094 7.160156 -47.300781 C 15.078125 -58.984375 29.964844 -64.074219 43.34375 -66.710938 C 57.949219 -69.632812 73.214844 -69.351562 87.535156 -66.148438 C 99.878906 -63.414062 112.128906 -58.136719 120.046875 -48.527344 C 127.867188 -39.199219 128.335938 -26.761719 120.800781 -17.242188 C 116.839844 -12.15625 111.1875 -8.480469 105.441406 -5.558594 C 93.378906 0.28125 79.90625 2.636719 66.335938 3.109375 C 55.121094 3.488281 43.816406 2.636719 33.167969 -0.847656 C 19.410156 -5.371094 4.144531 -18.375 3.109375 -32.886719 Z M 20.730469 -32.792969 C 21.105469 -24.5 28.738281 -16.960938 37.03125 -13.664062 C 52.296875 -7.539062 70.953125 -5.9375 86.6875 -11.402344 C 99.785156 -16.019531 116.464844 -31.472656 102.800781 -44.851562 C 99.691406 -47.867188 95.734375 -49.941406 91.777344 -51.636719 C 74.628906 -58.609375 54.839844 -58.230469 37.597656 -51.824219 C 32.695312 -50.035156 27.890625 -47.585938 24.6875 -43.628906 C 21.671875 -40.046875 20.636719 -36.371094 20.730469 -32.792969 Z M 20.730469 -32.792969 "/></g></g></g><g fill="#ffffff" fill-opacity="1"><g transform="translate(1583.792565, 1762.869554)"><g><path d="M 9.515625 -30.152344 C 9.609375 -26.476562 10.082031 -22.804688 11.402344 -19.316406 C 13.378906 -13.757812 17.527344 -9.140625 22.332031 -5.746094 C 27.230469 -2.355469 32.886719 -0.28125 38.632812 1.128906 C 52.390625 4.429688 66.902344 3.582031 80.5625 0.1875 C 88.007812 -1.695312 95.640625 -4.429688 100.351562 -10.460938 C 105.722656 -17.335938 106.003906 -26.761719 106.101562 -35.523438 C 106.195312 -44.191406 106.382812 -52.863281 106.476562 -61.53125 C 106.476562 -62.945312 106.382812 -64.640625 105.15625 -65.488281 C 104.402344 -65.960938 103.460938 -65.960938 102.613281 -65.960938 L 91.496094 -65.960938 C 90.550781 -65.960938 89.515625 -65.863281 88.855469 -65.109375 C 88.386719 -64.546875 88.386719 -63.699219 88.386719 -62.945312 C 88.480469 -53.617188 88.667969 -44.382812 88.761719 -35.050781 C 88.855469 -28.363281 88.667969 -20.917969 84.050781 -16.019531 C 80.753906 -12.4375 75.664062 -11.117188 70.859375 -10.363281 C 61.625 -8.855469 52.203125 -9.046875 43.0625 -11.117188 C 39.574219 -11.871094 35.996094 -13.003906 33.167969 -15.359375 C 30.246094 -17.902344 28.457031 -21.578125 27.703125 -25.441406 C 26.855469 -29.210938 26.855469 -33.167969 26.949219 -37.03125 C 26.949219 -45.792969 27.042969 -54.464844 27.136719 -63.226562 C 27.136719 -68.125 22.519531 -65.769531 19.410156 -65.582031 C 16.960938 -65.394531 14.417969 -65.582031 11.96875 -66.054688 C 11.308594 -66.242188 10.648438 -66.335938 10.082031 -66.054688 C 9.140625 -65.582031 9.046875 -64.261719 9.140625 -63.132812 C 9.609375 -55.3125 9.800781 -47.394531 9.609375 -39.480469 C 9.515625 -36.371094 9.421875 -33.261719 9.515625 -30.152344 Z M 9.515625 -30.152344 "/></g></g></g><g fill="#ffffff" fill-opacity="1"><g transform="translate(1699.306167, 1762.869554)"><g><path d="M 7.539062 -0.1875 C 6.03125 -1.980469 7.066406 -6.40625 7.066406 -8.761719 C 7.066406 -26.195312 7.066406 -43.628906 6.972656 -61.152344 C 6.972656 -62.660156 6.785156 -64.921875 8.199219 -65.960938 C 9.707031 -66.996094 11.777344 -66.335938 13.378906 -66.148438 C 15.832031 -65.863281 18.28125 -65.769531 20.636719 -65.960938 C 21.671875 -66.054688 22.707031 -66.242188 23.652344 -66.148438 C 28.175781 -65.582031 32.792969 -60.683594 36.371094 -58.230469 C 56.726562 -44.003906 77.171875 -29.964844 97.621094 -15.925781 C 98.65625 -15.171875 99.785156 -14.417969 100.632812 -13.472656 C 101.199219 -12.71875 102.894531 -10.554688 103.933594 -12.15625 C 104.308594 -12.625 104.214844 -13.285156 104.121094 -13.851562 C 103.933594 -14.417969 103.648438 -14.886719 103.554688 -15.453125 C 103.179688 -16.488281 103.179688 -17.621094 103.273438 -18.75 C 103.742188 -32.792969 103.460938 -46.925781 103.460938 -61.058594 C 103.460938 -64.734375 101.859375 -67.089844 107.136719 -66.242188 C 110.433594 -65.769531 113.828125 -65.675781 117.21875 -66.335938 C 120.800781 -67.089844 121.929688 -65.675781 121.269531 -62.191406 C 119.761719 -54.367188 120.800781 -45.605469 120.800781 -37.691406 C 120.894531 -28.269531 121.082031 -18.84375 121.082031 -9.421875 C 121.082031 -7.066406 120.988281 -7.066406 120.988281 -4.710938 C 120.988281 -3.582031 121.929688 -2.261719 121.648438 -1.128906 C 120.894531 1.980469 115.523438 0.1875 113.355469 0.09375 C 108.738281 -0.1875 104.027344 -0.09375 99.410156 0.28125 C 95.261719 0.660156 92.152344 -1.882812 88.855469 -4.050781 C 84.617188 -6.972656 80.375 -9.894531 76.042969 -12.816406 C 60.304688 -23.558594 44.382812 -34.015625 28.550781 -44.664062 C 27.136719 -45.605469 24.121094 -50.789062 24.40625 -45.324219 C 24.78125 -38.160156 24.875 -30.90625 24.875 -23.746094 C 24.96875 -17.054688 23.652344 -8.953125 25.347656 -2.449219 C 25.914062 -0.375 25.160156 0.375 23.085938 0.28125 C 18.941406 0.1875 14.605469 -0.472656 10.554688 0.472656 C 9.046875 0.753906 8.105469 0.472656 7.539062 -0.1875 Z M 7.539062 -0.1875 "/></g></g></g><g fill="#ffffff" fill-opacity="1"><g transform="translate(1827.068333, 1762.869554)"><g><path d="M 9.046875 0.09375 C 7.539062 -1.226562 9.328125 -3.769531 9.515625 -5.464844 C 9.707031 -7.253906 9.046875 -8.953125 9.046875 -10.835938 C 9.046875 -13.851562 9.140625 -16.867188 9.140625 -19.789062 C 9.046875 -25.722656 8.953125 -31.753906 8.953125 -37.691406 L 8.953125 -42.402344 C 8.953125 -47.773438 8.855469 -53.050781 8.855469 -58.421875 C 8.761719 -60.964844 8.105469 -63.980469 10.460938 -65.675781 C 13.757812 -68.125 19.695312 -66.054688 23.460938 -66.054688 C 40.421875 -66.054688 57.480469 -67.089844 74.4375 -65.675781 C 87.253906 -64.640625 101.011719 -61.53125 111.566406 -53.898438 C 112.882812 -52.863281 114.296875 -52.109375 115.429688 -50.976562 C 122.777344 -43.816406 124.566406 -31.660156 119.574219 -22.613281 C 114.582031 -13.472656 104.496094 -7.820312 94.886719 -4.617188 C 93.378906 -4.144531 91.777344 -3.769531 90.269531 -3.390625 C 88.667969 -2.921875 87.160156 -2.734375 85.558594 -2.449219 C 61.8125 2.542969 36.371094 -1.414062 12.25 0.660156 C 11.496094 0.660156 10.648438 0.753906 9.894531 0.472656 C 9.515625 0.375 9.328125 0.1875 9.046875 0.09375 Z M 26.667969 -12.34375 C 27.324219 -11.683594 28.550781 -11.683594 29.492188 -11.777344 C 49.941406 -13.285156 71.234375 -9.707031 90.929688 -17.242188 C 99.410156 -20.449219 107.511719 -28.925781 104.027344 -38.632812 C 103.554688 -40.140625 102.707031 -41.460938 101.671875 -42.683594 C 98.5625 -46.453125 94.511719 -48.714844 89.894531 -50.222656 C 76.324219 -54.652344 60.492188 -53.804688 46.453125 -53.804688 L 29.777344 -53.804688 C 24.96875 -53.804688 26.855469 -52.296875 26.855469 -49 C 26.855469 -46.738281 26.476562 -46.738281 26.476562 -44.476562 C 26.476562 -42.121094 26.667969 -42.121094 26.667969 -39.859375 C 26.667969 -37.597656 26.667969 -37.597656 26.667969 -35.242188 L 26.667969 -18.65625 C 26.667969 -17.054688 25.441406 -13.664062 26.570312 -12.4375 C 26.570312 -12.34375 26.667969 -12.34375 26.667969 -12.34375 Z M 26.667969 -12.34375 "/></g></g></g><g clip-path="url(#869675da42)"><g clip-path="url(#17abf86ea8)"><g clip-path="url(#b2587367dd)"><path fill="#d62283" d="M 308.308594 618.710938 L 557.511719 617.550781 L 1133.945312 1556.820312 L 884.746094 1557.980469 Z M 308.308594 618.710938 " fill-opacity="1" fill-rule="nonzero"/></g></g></g><g clip-path="url(#90c0061abc)"><g clip-path="url(#5b13b1f44e)"><g clip-path="url(#b2c957858d)"><path fill="#ffffff" d="M 225.875 862.757812 L 407.714844 865.300781 L 813.742188 1557.488281 L 631.902344 1554.945312 Z M 225.875 862.757812 " fill-opacity="1" fill-rule="nonzero"/></g></g></g><g clip-path="url(#45a43afca8)"><g clip-path="url(#506eb07974)"><g clip-path="url(#44787f5161)"><path fill="#ffde00" d="M 1423.4375 1552.761719 L 1605.292969 1553.539062 L 2023.886719 868.878906 L 1842.03125 868.101562 Z M 1423.4375 1552.761719 " fill-opacity="1" fill-rule="nonzero"/></g></g></g><g clip-path="url(#dac30fae50)"><g clip-path="url(#d2b4cafd78)"><g clip-path="url(#e906355619)"><path fill="#17ead9" d="M 1325.535156 1527.523438 L 736.574219 500.851562 L 747.59375 494.527344 L 1336.554688 1521.199219 L 1325.535156 1527.523438 " fill-opacity="1" fill-rule="nonzero"/></g></g></g><g clip-path="url(#c31088ef87)"><g clip-path="url(#9e7590ec44)"><g clip-path="url(#3a85f4d533)"><path fill="#ffffff" d="M 1589.652344 1535.492188 L 1165.238281 795.65625 L 1172.816406 791.308594 L 1597.230469 1531.148438 L 1589.652344 1535.492188 " fill-opacity="1" fill-rule="nonzero"/></g></g></g></svg>