<svg xmlns="http://www.w3.org/2000/svg" xmlns:xlink="http://www.w3.org/1999/xlink" width="289.376" height="85.844" viewBox="0 0 289.376 85.844">
  <defs>
    <clipPath id="clip-path">
      <path id="Path_657" data-name="Path 657" d="M37.5,181.684H93.383V193.41H37.5Zm0,0"/>
    </clipPath>
    <clipPath id="clip-path-2">
      <path id="Path_659" data-name="Path 659" d="M65.414,163.434h34.3v11.383h-34.3Zm0,0"/>
    </clipPath>
    <clipPath id="clip-path-3">
      <path id="Path_661" data-name="Path 661" d="M65.414,200.109h34.3v11.383h-34.3Zm0,0"/>
    </clipPath>
    <clipPath id="clip-path-4">
      <path id="Path_663" data-name="Path 663" d="M107.508,145h5.52v85.844h-5.52Zm0,0" fill="#fff"/>
    </clipPath>
    <clipPath id="clip-path-5">
      <path id="Path_665" data-name="Path 665" d="M145.984,181.328H162.2V211.34H145.984Zm0,0"/>
    </clipPath>
    <clipPath id="clip-path-6">
      <path id="Path_667" data-name="Path 667" d="M120.617,163.391h15.867V211.34H120.617Zm0,0"/>
    </clipPath>
    <clipPath id="clip-path-7">
      <path id="Path_669" data-name="Path 669" d="M171.574,163.391h15.867V211.34H171.574Zm0,0"/>
    </clipPath>
    <clipPath id="clip-path-8">
      <path id="Path_697" data-name="Path 697" d="M292.5,189.75h9.313v9.313H292.5Zm0,0" fill="#fff"/>
    </clipPath>
  </defs>
  <g id="Group_505" data-name="Group 505" transform="translate(-1769 -2483)">
    <g id="Group_419" data-name="Group 419" transform="translate(1731.5 2338)" clip-path="url(#clip-path)">
      <path id="Path_656" data-name="Path 656" d="M43.406,181.684h57.18a5.658,5.658,0,0,1,1.145.113,5.73,5.73,0,0,1,1.1.332,5.9,5.9,0,0,1,1.016.543,6.1,6.1,0,0,1,.887.727,5.909,5.909,0,0,1,.73.891A5.74,5.74,0,0,1,106,185.3a5.658,5.658,0,0,1,.336,1.1,5.838,5.838,0,0,1,0,2.289,5.779,5.779,0,0,1-.336,1.1,5.844,5.844,0,0,1-.539,1.012,5.909,5.909,0,0,1-.73.891,6.1,6.1,0,0,1-.887.727,5.9,5.9,0,0,1-1.016.543,5.73,5.73,0,0,1-1.1.332,5.658,5.658,0,0,1-1.145.113H43.406a5.658,5.658,0,0,1-1.145-.113,5.73,5.73,0,0,1-1.1-.332,5.887,5.887,0,0,1-3.176-3.172,6.061,6.061,0,0,1-.332-1.1,5.877,5.877,0,0,1,.332-3.387,5.758,5.758,0,0,1,.543-1.016,5.868,5.868,0,0,1,2.633-2.16,5.73,5.73,0,0,1,1.1-.332A5.658,5.658,0,0,1,43.406,181.684Zm0,0" fill="#ffa048"/>
    </g>
    <g id="Group_420" data-name="Group 420" transform="translate(1731.5 2338)" clip-path="url(#clip-path-2)">
      <path id="Path_658" data-name="Path 658" d="M38.215,163.434H93.957a5.6,5.6,0,0,1,1.113.109,5.407,5.407,0,0,1,1.074.324A5.619,5.619,0,0,1,98,165.1a5.771,5.771,0,0,1,.711.859,5.964,5.964,0,0,1,.527.984,5.728,5.728,0,0,1,.324,1.07,5.536,5.536,0,0,1,.109,1.109,5.671,5.671,0,0,1-.434,2.176,5.666,5.666,0,0,1-.527.984,5.8,5.8,0,0,1-.711.863,5.576,5.576,0,0,1-.867.707,5.848,5.848,0,0,1-.988.527,5.679,5.679,0,0,1-1.074.324,5.6,5.6,0,0,1-1.113.109H38.215a5.6,5.6,0,0,1-1.113-.109,5.679,5.679,0,0,1-1.074-.324,5.848,5.848,0,0,1-.988-.527,5.576,5.576,0,0,1-.867-.707,5.8,5.8,0,0,1-.711-.863,5.666,5.666,0,0,1-.527-.984,5.671,5.671,0,0,1-.434-2.176,5.536,5.536,0,0,1,.109-1.109,5.728,5.728,0,0,1,.324-1.07,5.964,5.964,0,0,1,.527-.984,5.771,5.771,0,0,1,.711-.859,5.619,5.619,0,0,1,1.855-1.234,5.407,5.407,0,0,1,1.074-.324A5.6,5.6,0,0,1,38.215,163.434Zm0,0" fill="#ffde00"/>
    </g>
    <g id="Group_421" data-name="Group 421" transform="translate(1731.5 2338)" clip-path="url(#clip-path-3)">
      <path id="Path_660" data-name="Path 660" d="M38.215,200.109H93.957a5.6,5.6,0,0,1,1.113.109,5.679,5.679,0,0,1,1.074.324,5.562,5.562,0,0,1,.988.523,5.834,5.834,0,0,1,.867.711,5.771,5.771,0,0,1,.711.859,5.964,5.964,0,0,1,.527.984,5.728,5.728,0,0,1,.324,1.07,5.681,5.681,0,0,1,0,2.219,5.607,5.607,0,0,1-.852,2.051,5.663,5.663,0,0,1-1.578,1.57,5.337,5.337,0,0,1-.988.527,5.679,5.679,0,0,1-1.074.324,5.6,5.6,0,0,1-1.113.109H38.215a5.6,5.6,0,0,1-1.113-.109,5.679,5.679,0,0,1-1.074-.324,5.337,5.337,0,0,1-.988-.527,5.663,5.663,0,0,1-1.578-1.57,5.607,5.607,0,0,1-.852-2.051,5.681,5.681,0,0,1,0-2.219,5.728,5.728,0,0,1,.324-1.07,5.964,5.964,0,0,1,.527-.984,5.771,5.771,0,0,1,.711-.859,5.834,5.834,0,0,1,.867-.711,5.562,5.562,0,0,1,.988-.523,5.679,5.679,0,0,1,1.074-.324A5.6,5.6,0,0,1,38.215,200.109Zm0,0" fill="#ff5757"/>
    </g>
    <g id="Group_422" data-name="Group 422" transform="translate(1731.5 2338)" clip-path="url(#clip-path-4)">
      <path id="Path_662" data-name="Path 662" d="M113.027,227.215V147.887a2.761,2.761,0,1,0-5.52,0v79.328a2.761,2.761,0,1,0,5.52,0Zm0,0" fill="#fff"/>
    </g>
    <g id="Group_423" data-name="Group 423" transform="translate(1731.5 2338)" clip-path="url(#clip-path-5)">
      <path id="Path_664" data-name="Path 664" d="M145.984,250.734V171.262a8.037,8.037,0,0,1,.156-1.59,8.334,8.334,0,0,1,.461-1.531,8.1,8.1,0,0,1,.75-1.406,8.1,8.1,0,0,1,3.637-3,8.125,8.125,0,0,1,6.207,0,8.079,8.079,0,0,1,3.637,3,8.1,8.1,0,0,1,.75,1.406,8.234,8.234,0,0,1,.617,3.121v79.473a8.234,8.234,0,0,1-.617,3.121,8.1,8.1,0,0,1-.75,1.406,8.276,8.276,0,0,1-1.008,1.234,8.06,8.06,0,0,1-1.23,1.016,8.322,8.322,0,0,1-1.4.754,8.125,8.125,0,0,1-6.207,0,8.358,8.358,0,0,1-1.4-.754,8.03,8.03,0,0,1-1.227-1.016,8.276,8.276,0,0,1-1.008-1.234,8.1,8.1,0,0,1-.75-1.406,8.334,8.334,0,0,1-.461-1.531A8.037,8.037,0,0,1,145.984,250.734Zm0,0" fill="#5271ff"/>
    </g>
    <g id="Group_424" data-name="Group 424" transform="translate(1731.5 2338)" clip-path="url(#clip-path-6)">
      <path id="Path_666" data-name="Path 666" d="M120.617,249.113V171.359a8.019,8.019,0,0,1,1.336-4.43,8.2,8.2,0,0,1,.988-1.211,7.884,7.884,0,0,1,2.574-1.727,7.833,7.833,0,0,1,4.586-.453,7.778,7.778,0,0,1,1.488.453,7.977,7.977,0,0,1,1.371.734,7.9,7.9,0,0,1,1.2.992,7.736,7.736,0,0,1,.988,1.211,7.994,7.994,0,0,1,1.336,4.43v77.754a7.928,7.928,0,0,1-1.336,4.43,7.736,7.736,0,0,1-.988,1.211,8.133,8.133,0,0,1-1.2.992,7.977,7.977,0,0,1-1.371.734,8.066,8.066,0,0,1-1.488.453,7.926,7.926,0,0,1-5.957-1.187,7.95,7.95,0,0,1-2.191-2.2,7.994,7.994,0,0,1-1.336-4.43Zm0,0" fill="#17ead9"/>
    </g>
    <g id="Group_425" data-name="Group 425" transform="translate(1731.5 2338)" clip-path="url(#clip-path-7)">
      <path id="Path_668" data-name="Path 668" d="M171.574,249.113V171.359a7.992,7.992,0,0,1,2.324-5.641,7.884,7.884,0,0,1,2.574-1.727,7.9,7.9,0,0,1,6.07,0,7.87,7.87,0,0,1,1.375.734,8.091,8.091,0,0,1,1.2.992,7.736,7.736,0,0,1,.988,1.211,7.994,7.994,0,0,1,1.336,4.43v77.754a7.928,7.928,0,0,1-1.336,4.43,7.736,7.736,0,0,1-.988,1.211,8.341,8.341,0,0,1-1.2.992,7.914,7.914,0,0,1-7.445.734,7.977,7.977,0,0,1-1.371-.734,8.165,8.165,0,0,1-1.2-.992,7.965,7.965,0,0,1-1.719-2.586,7.969,7.969,0,0,1-.605-3.055Zm0,0" fill="#d62283"/>
    </g>
    <g id="Group_428" data-name="Group 428" transform="translate(1731.5 2338)">
      <g id="Group_427" data-name="Group 427" transform="translate(191.548 183.75)">
        <g id="Group_426" data-name="Group 426">
          <path id="Path_670" data-name="Path 670" d="M8.766,0H.984V-7H8.766v1.109H2.094v1.828H7.969v1.125H2.094v1.828H8.766Zm0,0" fill="#fff"/>
        </g>
      </g>
    </g>
    <g id="Group_431" data-name="Group 431" transform="translate(1731.5 2338)">
      <g id="Group_430" data-name="Group 430" transform="translate(201.042 183.75)">
        <g id="Group_429" data-name="Group 429">
          <path id="Path_671" data-name="Path 671" d="M10.609,0H9.5V-4.734L6.078,0H5.516L2.094-4.734V0H.984V-7h.828L5.8-1.5,9.766-7h.844Zm0,0" fill="#fff"/>
        </g>
      </g>
    </g>
    <g id="Group_434" data-name="Group 434" transform="translate(1731.5 2338)">
      <g id="Group_433" data-name="Group 433" transform="translate(212.624 183.75)">
        <g id="Group_432" data-name="Group 432">
          <path id="Path_672" data-name="Path 672" d="M8.766,0H.984V-7H8.766v1.109H2.094v1.828H7.969v1.125H2.094v1.828H8.766Zm0,0" fill="#fff"/>
        </g>
      </g>
    </g>
    <g id="Group_437" data-name="Group 437" transform="translate(1731.5 2338)">
      <g id="Group_436" data-name="Group 436" transform="translate(222.117 183.75)">
        <g id="Group_435" data-name="Group 435">
          <path id="Path_673" data-name="Path 673" d="M9.328,0H8.2V-1.969a.512.512,0,0,0-.172-.391.5.5,0,0,0-.375-.172H2.094V0H.984V-7H7.656a1.611,1.611,0,0,1,1.172.484,1.58,1.58,0,0,1,.5,1.172V-4.2a1.578,1.578,0,0,1-.437,1.109,1.643,1.643,0,0,1,.438,1.125ZM7.656-3.641A.511.511,0,0,0,8.031-3.8.558.558,0,0,0,8.2-4.2V-5.344a.5.5,0,0,0-.172-.375.5.5,0,0,0-.375-.172H2.094v2.25Zm0,0" fill="#fff"/>
        </g>
      </g>
    </g>
    <g id="Group_440" data-name="Group 440" transform="translate(1731.5 2338)">
      <g id="Group_439" data-name="Group 439" transform="translate(232.167 183.75)">
        <g id="Group_438" data-name="Group 438">
          <path id="Path_674" data-name="Path 674" d="M6.844,0A2.192,2.192,0,0,0,8.422-.656a2.242,2.242,0,0,0,.656-1.578v-.7A.767.767,0,0,0,8.844-3.5a.767.767,0,0,0-.562-.234H4.906v1.109H7.969v.391a1.11,1.11,0,0,1-.328.8,1.124,1.124,0,0,1-.8.328H2.953a1.063,1.063,0,0,1-.781-.328,1.085,1.085,0,0,1-.328-.8V-4.781a1.069,1.069,0,0,1,.328-.781,1.063,1.063,0,0,1,.781-.328H6.844a1.085,1.085,0,0,1,.8.328,1.069,1.069,0,0,1,.328.781H9.078a2.107,2.107,0,0,0-.656-1.562A2.123,2.123,0,0,0,6.844-7H2.953a2.147,2.147,0,0,0-1.578.656A2.122,2.122,0,0,0,.734-4.781v2.547A2.186,2.186,0,0,0,1.375-.641,2.164,2.164,0,0,0,2.953,0Zm0,0" fill="#fff"/>
        </g>
      </g>
    </g>
    <g id="Group_443" data-name="Group 443" transform="translate(1731.5 2338)">
      <g id="Group_442" data-name="Group 442" transform="translate(241.973 183.75)">
        <g id="Group_441" data-name="Group 441">
          <path id="Path_675" data-name="Path 675" d="M8.766,0H.984V-7H8.766v1.109H2.094v1.828H7.969v1.125H2.094v1.828H8.766Zm0,0" fill="#fff"/>
        </g>
      </g>
    </g>
    <g id="Group_446" data-name="Group 446" transform="translate(1731.5 2338)">
      <g id="Group_445" data-name="Group 445" transform="translate(251.466 183.75)">
        <g id="Group_444" data-name="Group 444">
          <path id="Path_676" data-name="Path 676" d="M9.328,0H8.563L2.094-5.281V0H.984V-7h.75L8.2-1.734V-7H9.328Zm0,0" fill="#fff"/>
        </g>
      </g>
    </g>
    <g id="Group_449" data-name="Group 449" transform="translate(1731.5 2338)">
      <g id="Group_448" data-name="Group 448" transform="translate(261.76 183.75)">
        <g id="Group_447" data-name="Group 447">
          <path id="Path_677" data-name="Path 677" d="M6.844,0A2.139,2.139,0,0,0,8.422-.641a2.17,2.17,0,0,0,.656-1.594H7.969a1.085,1.085,0,0,1-.328.8,1.085,1.085,0,0,1-.8.328H2.953a1.063,1.063,0,0,1-.781-.328,1.085,1.085,0,0,1-.328-.8V-4.781a1.069,1.069,0,0,1,.328-.781,1.063,1.063,0,0,1,.781-.328H6.844a1.085,1.085,0,0,1,.8.328,1.069,1.069,0,0,1,.328.781H9.078a2.107,2.107,0,0,0-.656-1.562A2.123,2.123,0,0,0,6.844-7H2.953a2.147,2.147,0,0,0-1.578.656A2.122,2.122,0,0,0,.734-4.781v2.547A2.186,2.186,0,0,0,1.375-.641,2.164,2.164,0,0,0,2.953,0Zm0,0" fill="#fff"/>
        </g>
      </g>
    </g>
    <g id="Group_452" data-name="Group 452" transform="translate(1731.5 2338)">
      <g id="Group_451" data-name="Group 451" transform="translate(271.566 183.75)">
        <g id="Group_450" data-name="Group 450">
          <path id="Path_678" data-name="Path 678" d="M8.766,0H.984V-7H8.766v1.109H2.094v1.828H7.969v1.125H2.094v1.828H8.766Zm0,0" fill="#fff"/>
        </g>
      </g>
    </g>
    <g id="Group_455" data-name="Group 455" transform="translate(1731.5 2338)">
      <g id="Group_454" data-name="Group 454" transform="translate(283.539 183.75)">
        <g id="Group_453" data-name="Group 453">
          <path id="Path_679" data-name="Path 679" d="M10.609,0H9.5V-4.734L6.078,0H5.516L2.094-4.734V0H.984V-7h.828L5.8-1.5,9.766-7h.844Zm0,0" fill="#fff"/>
        </g>
      </g>
    </g>
    <g id="Group_458" data-name="Group 458" transform="translate(1731.5 2338)">
      <g id="Group_457" data-name="Group 457" transform="translate(295.121 183.75)">
        <g id="Group_456" data-name="Group 456">
          <path id="Path_680" data-name="Path 680" d="M6.844,0A2.139,2.139,0,0,0,8.422-.641a2.17,2.17,0,0,0,.656-1.594V-7H7.969v4.766a1.085,1.085,0,0,1-.328.8,1.085,1.085,0,0,1-.8.328H2.953a1.063,1.063,0,0,1-.781-.328,1.085,1.085,0,0,1-.328-.8V-7H.734v4.766A2.186,2.186,0,0,0,1.375-.641,2.164,2.164,0,0,0,2.953,0Zm0,0" fill="#fff"/>
        </g>
      </g>
    </g>
    <g id="Group_461" data-name="Group 461" transform="translate(1731.5 2338)">
      <g id="Group_460" data-name="Group 460" transform="translate(304.927 183.75)">
        <g id="Group_459" data-name="Group 459">
          <path id="Path_681" data-name="Path 681" d="M7.406,0h-5A1.606,1.606,0,0,1,1.219-.484,1.637,1.637,0,0,1,.734-1.672H1.844A.576.576,0,0,0,2-1.266a.576.576,0,0,0,.406.156h5A.527.527,0,0,0,7.8-1.266a.558.558,0,0,0,.172-.406v-.719A.512.512,0,0,0,7.8-2.781a.542.542,0,0,0-.391-.156h-5a1.606,1.606,0,0,1-1.187-.484A1.637,1.637,0,0,1,.734-4.609v-.734a1.6,1.6,0,0,1,.484-1.172A1.621,1.621,0,0,1,2.406-7h5a1.611,1.611,0,0,1,1.172.484,1.58,1.58,0,0,1,.5,1.172H7.969A.5.5,0,0,0,7.8-5.719a.512.512,0,0,0-.391-.172h-5A.558.558,0,0,0,2-5.719a.511.511,0,0,0-.156.375v.734A.552.552,0,0,0,2-4.219a.576.576,0,0,0,.406.156h5a1.58,1.58,0,0,1,1.172.5,1.58,1.58,0,0,1,.5,1.172v.719a1.621,1.621,0,0,1-.5,1.188A1.6,1.6,0,0,1,7.406,0Zm0,0" fill="#fff"/>
        </g>
      </g>
    </g>
    <g id="Group_464" data-name="Group 464" transform="translate(1731.5 2338)">
      <g id="Group_463" data-name="Group 463" transform="translate(314.733 183.75)">
        <g id="Group_462" data-name="Group 462">
          <path id="Path_682" data-name="Path 682" d="M2.094,0V-7H.984V0Zm0,0" fill="#fff"/>
        </g>
      </g>
    </g>
    <g id="Group_467" data-name="Group 467" transform="translate(1731.5 2338)">
      <g id="Group_466" data-name="Group 466" transform="translate(317.798 183.75)">
        <g id="Group_465" data-name="Group 465">
          <path id="Path_683" data-name="Path 683" d="M6.844,0A2.139,2.139,0,0,0,8.422-.641a2.17,2.17,0,0,0,.656-1.594H7.969a1.085,1.085,0,0,1-.328.8,1.085,1.085,0,0,1-.8.328H2.953a1.063,1.063,0,0,1-.781-.328,1.085,1.085,0,0,1-.328-.8V-4.781a1.069,1.069,0,0,1,.328-.781,1.063,1.063,0,0,1,.781-.328H6.844a1.085,1.085,0,0,1,.8.328,1.069,1.069,0,0,1,.328.781H9.078a2.107,2.107,0,0,0-.656-1.562A2.123,2.123,0,0,0,6.844-7H2.953a2.147,2.147,0,0,0-1.578.656A2.122,2.122,0,0,0,.734-4.781v2.547A2.186,2.186,0,0,0,1.375-.641,2.164,2.164,0,0,0,2.953,0Zm0,0" fill="#fff"/>
        </g>
      </g>
    </g>
    <g id="Group_470" data-name="Group 470" transform="translate(1731.5 2338)">
      <g id="Group_469" data-name="Group 469" transform="translate(191.548 197.25)">
        <g id="Group_468" data-name="Group 468">
          <path id="Path_684" data-name="Path 684" d="M7.094,0A2.17,2.17,0,0,0,8.672-.641a2.17,2.17,0,0,0,.656-1.594V-4.781a2.107,2.107,0,0,0-.656-1.562A2.154,2.154,0,0,0,7.094-7H.984V0Zm0-1.109h-5V-5.891h5a1.069,1.069,0,0,1,.781.328,1.069,1.069,0,0,1,.328.781v2.547a1.085,1.085,0,0,1-.328.8A1.069,1.069,0,0,1,7.094-1.109Zm0,0" fill="#fff"/>
        </g>
      </g>
    </g>
    <g id="Group_473" data-name="Group 473" transform="translate(1731.5 2338)">
      <g id="Group_472" data-name="Group 472" transform="translate(201.598 197.25)">
        <g id="Group_471" data-name="Group 471">
          <path id="Path_685" data-name="Path 685" d="M2.094,0V-7H.984V0Zm0,0" fill="#fff"/>
        </g>
      </g>
    </g>
    <g id="Group_476" data-name="Group 476" transform="translate(1731.5 2338)">
      <g id="Group_475" data-name="Group 475" transform="translate(204.663 197.25)">
        <g id="Group_474" data-name="Group 474">
          <path id="Path_686" data-name="Path 686" d="M7.406,0h-5A1.606,1.606,0,0,1,1.219-.484,1.637,1.637,0,0,1,.734-1.672H1.844A.576.576,0,0,0,2-1.266a.576.576,0,0,0,.406.156h5A.527.527,0,0,0,7.8-1.266a.558.558,0,0,0,.172-.406v-.719A.512.512,0,0,0,7.8-2.781a.542.542,0,0,0-.391-.156h-5a1.606,1.606,0,0,1-1.187-.484A1.637,1.637,0,0,1,.734-4.609v-.734a1.6,1.6,0,0,1,.484-1.172A1.621,1.621,0,0,1,2.406-7h5a1.611,1.611,0,0,1,1.172.484,1.58,1.58,0,0,1,.5,1.172H7.969A.5.5,0,0,0,7.8-5.719a.512.512,0,0,0-.391-.172h-5A.558.558,0,0,0,2-5.719a.511.511,0,0,0-.156.375v.734A.552.552,0,0,0,2-4.219a.576.576,0,0,0,.406.156h5a1.58,1.58,0,0,1,1.172.5,1.58,1.58,0,0,1,.5,1.172v.719a1.621,1.621,0,0,1-.5,1.188A1.6,1.6,0,0,1,7.406,0Zm0,0" fill="#fff"/>
        </g>
      </g>
    </g>
    <g id="Group_479" data-name="Group 479" transform="translate(1731.5 2338)">
      <g id="Group_478" data-name="Group 478" transform="translate(214.469 197.25)">
        <g id="Group_477" data-name="Group 477">
          <path id="Path_687" data-name="Path 687" d="M4.422,0H3.313V-5.891H.141V-7H7.609v1.109H4.422Zm0,0" fill="#fff"/>
        </g>
      </g>
    </g>
    <g id="Group_482" data-name="Group 482" transform="translate(1731.5 2338)">
      <g id="Group_481" data-name="Group 481" transform="translate(222.215 197.25)">
        <g id="Group_480" data-name="Group 480">
          <path id="Path_688" data-name="Path 688" d="M9.328,0H8.2V-1.969a.512.512,0,0,0-.172-.391.5.5,0,0,0-.375-.172H2.094V0H.984V-7H7.656a1.611,1.611,0,0,1,1.172.484,1.58,1.58,0,0,1,.5,1.172V-4.2a1.578,1.578,0,0,1-.437,1.109,1.643,1.643,0,0,1,.438,1.125ZM7.656-3.641A.511.511,0,0,0,8.031-3.8.558.558,0,0,0,8.2-4.2V-5.344a.5.5,0,0,0-.172-.375.5.5,0,0,0-.375-.172H2.094v2.25Zm0,0" fill="#fff"/>
        </g>
      </g>
    </g>
    <g id="Group_485" data-name="Group 485" transform="translate(1731.5 2338)">
      <g id="Group_484" data-name="Group 484" transform="translate(232.265 197.25)">
        <g id="Group_483" data-name="Group 483">
          <path id="Path_689" data-name="Path 689" d="M2.094,0V-7H.984V0Zm0,0" fill="#fff"/>
        </g>
      </g>
    </g>
    <g id="Group_488" data-name="Group 488" transform="translate(1731.5 2338)">
      <g id="Group_487" data-name="Group 487" transform="translate(235.33 197.25)">
        <g id="Group_486" data-name="Group 486">
          <path id="Path_690" data-name="Path 690" d="M7.656,0H.984V-7H7.656a1.611,1.611,0,0,1,1.172.484,1.58,1.58,0,0,1,.5,1.172v.734A1.578,1.578,0,0,1,8.891-3.5a1.585,1.585,0,0,1,.438,1.109v.719a1.621,1.621,0,0,1-.5,1.188A1.6,1.6,0,0,1,7.656,0Zm.016-4.062a.56.56,0,0,0,.375-.172A.513.513,0,0,0,8.2-4.609v-.734a.5.5,0,0,0-.172-.375.5.5,0,0,0-.375-.172H2.094v1.828ZM7.656-1.109a.511.511,0,0,0,.375-.156A.558.558,0,0,0,8.2-1.672v-.719a.542.542,0,0,0-.156-.391.526.526,0,0,0-.375-.156H2.094v1.828Zm0,0" fill="#fff"/>
        </g>
      </g>
    </g>
    <g id="Group_491" data-name="Group 491" transform="translate(1731.5 2338)">
      <g id="Group_490" data-name="Group 490" transform="translate(245.38 197.25)">
        <g id="Group_489" data-name="Group 489">
          <path id="Path_691" data-name="Path 691" d="M6.844,0A2.139,2.139,0,0,0,8.422-.641a2.17,2.17,0,0,0,.656-1.594V-7H7.969v4.766a1.085,1.085,0,0,1-.328.8,1.085,1.085,0,0,1-.8.328H2.953a1.063,1.063,0,0,1-.781-.328,1.085,1.085,0,0,1-.328-.8V-7H.734v4.766A2.186,2.186,0,0,0,1.375-.641,2.164,2.164,0,0,0,2.953,0Zm0,0" fill="#fff"/>
        </g>
      </g>
    </g>
    <g id="Group_494" data-name="Group 494" transform="translate(1731.5 2338)">
      <g id="Group_493" data-name="Group 493" transform="translate(255.185 197.25)">
        <g id="Group_492" data-name="Group 492">
          <path id="Path_692" data-name="Path 692" d="M4.422,0H3.313V-5.891H.141V-7H7.609v1.109H4.422Zm0,0" fill="#fff"/>
        </g>
      </g>
    </g>
    <g id="Group_497" data-name="Group 497" transform="translate(1731.5 2338)">
      <g id="Group_496" data-name="Group 496" transform="translate(262.931 197.25)">
        <g id="Group_495" data-name="Group 495">
          <path id="Path_693" data-name="Path 693" d="M2.094,0V-7H.984V0Zm0,0" fill="#fff"/>
        </g>
      </g>
    </g>
    <g id="Group_500" data-name="Group 500" transform="translate(1731.5 2338)">
      <g id="Group_499" data-name="Group 499" transform="translate(265.997 197.25)">
        <g id="Group_498" data-name="Group 498">
          <path id="Path_694" data-name="Path 694" d="M6.844,0A2.139,2.139,0,0,0,8.422-.641a2.17,2.17,0,0,0,.656-1.594V-4.781a2.107,2.107,0,0,0-.656-1.562A2.123,2.123,0,0,0,6.844-7H2.953a2.147,2.147,0,0,0-1.578.656A2.122,2.122,0,0,0,.734-4.781v2.547A2.186,2.186,0,0,0,1.375-.641,2.164,2.164,0,0,0,2.953,0Zm0-1.109H2.953a1.063,1.063,0,0,1-.781-.328,1.085,1.085,0,0,1-.328-.8V-4.781a1.069,1.069,0,0,1,.328-.781,1.063,1.063,0,0,1,.781-.328H6.844a1.085,1.085,0,0,1,.8.328,1.069,1.069,0,0,1,.328.781v2.547a1.085,1.085,0,0,1-.328.8A1.085,1.085,0,0,1,6.844-1.109Zm0,0" fill="#fff"/>
        </g>
      </g>
    </g>
    <g id="Group_503" data-name="Group 503" transform="translate(1731.5 2338)">
      <g id="Group_502" data-name="Group 502" transform="translate(275.802 197.25)">
        <g id="Group_501" data-name="Group 501">
          <path id="Path_695" data-name="Path 695" d="M9.328,0H8.563L2.094-5.281V0H.984V-7h.75L8.2-1.734V-7H9.328Zm0,0" fill="#fff"/>
        </g>
      </g>
    </g>
    <g id="Group_504" data-name="Group 504" transform="translate(1731.5 2338)" clip-path="url(#clip-path-8)">
      <path id="Path_696" data-name="Path 696" d="M297.156,190.324a4.082,4.082,0,1,0,4.082,4.082A4.088,4.088,0,0,0,297.156,190.324Zm0,8.738a4.656,4.656,0,1,1,4.656-4.656,4.663,4.663,0,0,1-4.656,4.656" fill="#fff"/>
    </g>
    <path id="Path_698" data-name="Path 698" d="M296.34,194.285h.875a.958.958,0,0,0,.676-.219.757.757,0,0,0,.242-.594.811.811,0,0,0-.223-.609.958.958,0,0,0-.672-.223h-.9Zm.949.688h-.949v1.887h-.852v-4.906h1.727a2.01,2.01,0,0,1,1.309.383,1.343,1.343,0,0,1,.461,1.1,1.371,1.371,0,0,1-.238.824,1.511,1.511,0,0,1-.66.512l1.1,2.043v.043h-.914l-.984-1.887" transform="translate(1731.5 2338)" fill="#fff"/>
  </g>
</svg>
