<svg xmlns="http://www.w3.org/2000/svg" xmlns:xlink="http://www.w3.org/1999/xlink" width="500" zoomAndPan="magnify" viewBox="0 0 375 374.999991" height="500" preserveAspectRatio="xMidYMid meet" version="1.0"><defs><clipPath id="352c72f291"><path d="M 119 48.375 L 256 48.375 L 256 163 L 119 163 Z M 119 48.375 " clip-rule="nonzero"/></clipPath><clipPath id="5507823426"><path d="M 37.5 114 L 116 114 L 116 194 L 37.5 194 Z M 37.5 114 " clip-rule="nonzero"/></clipPath><clipPath id="545920f718"><path d="M 259 114 L 337.5 114 L 337.5 194 L 259 194 Z M 259 114 " clip-rule="nonzero"/></clipPath><clipPath id="f32e20ad5e"><path d="M 234 214 L 337.5 214 L 337.5 326.625 L 234 326.625 Z M 234 214 " clip-rule="nonzero"/></clipPath></defs><g clip-path="url(#352c72f291)"><path fill="#17ead9" d="M 141.765625 58.59375 L 233.324219 58.59375 C 240.125 58.59375 245.414062 63.914062 245.414062 70.75 L 245.414062 117.640625 C 245.414062 124.472656 240.128906 129.796875 233.324219 129.796875 L 218.097656 129.796875 C 215.410156 129.796875 213.246094 131.988281 213.246094 134.671875 L 213.246094 149.992188 C 213.246094 152.949219 211.097656 152.71875 209.96875 151.152344 L 196.207031 131.863281 C 195.3125 130.550781 193.835938 129.800781 192.246094 129.800781 L 141.785156 129.800781 C 135.007812 129.800781 129.683594 124.476562 129.683594 117.644531 L 129.683594 70.753906 C 129.683594 63.914062 134.988281 58.59375 141.765625 58.59375 Z M 141.765625 48.859375 C 129.722656 48.859375 119.917969 58.699219 119.917969 70.753906 L 119.917969 117.644531 C 119.917969 129.683594 129.773438 139.539062 141.785156 139.539062 L 189.738281 139.539062 L 202.027344 156.816406 C 205.25 161.367188 210.464844 163.554688 215.027344 162.425781 C 219.597656 161.261719 222.980469 156.78125 222.980469 151.75 L 222.980469 139.542969 L 233.320312 139.542969 C 245.359375 139.542969 255.1875 129.6875 255.1875 117.648438 L 255.1875 70.757812 C 255.1875 58.703125 245.359375 48.863281 233.320312 48.863281 L 141.765625 48.863281 Z M 141.765625 48.859375 " fill-opacity="1" fill-rule="evenodd"/></g><g clip-path="url(#5507823426)"><path fill="#17ead9" d="M 115.890625 153.789062 C 115.890625 175.484375 98.363281 193.085938 76.71875 193.085938 C 55.074219 193.085938 37.523438 175.484375 37.523438 153.789062 C 37.523438 143.363281 41.644531 133.359375 49.003906 125.996094 C 56.351562 118.625 66.304688 114.484375 76.71875 114.484375 C 87.101562 114.484375 97.070312 118.625 104.433594 125.996094 C 111.773438 133.359375 115.890625 143.363281 115.890625 153.789062 Z M 115.890625 153.789062 " fill-opacity="1" fill-rule="evenodd"/></g><g clip-path="url(#545920f718)"><path fill="#17ead9" d="M 337.59375 153.789062 C 337.59375 175.484375 320.042969 193.085938 298.402344 193.085938 C 288.007812 193.085938 278.027344 188.949219 270.683594 181.578125 C 263.347656 174.214844 259.199219 164.210938 259.199219 153.789062 C 259.199219 143.363281 263.347656 133.359375 270.683594 125.996094 C 278.027344 118.625 288.007812 114.484375 298.402344 114.484375 C 320.042969 114.484375 337.59375 132.082031 337.59375 153.789062 Z M 337.59375 153.789062 " fill-opacity="1" fill-rule="evenodd"/></g><g clip-path="url(#f32e20ad5e)"><path fill="#17ead9" d="M 298.375 214.816406 C 319.890625 214.816406 337.101562 231.902344 337.101562 253.191406 L 337.101562 309.863281 C 337.101562 319.183594 329.667969 326.585938 320.339844 326.585938 L 242.609375 326.585938 C 239.855469 326.585938 237.84375 325.613281 236.496094 323.707031 C 233.027344 318.757812 233.660156 313.902344 236.074219 309.21875 C 237.167969 307.042969 239.542969 305.886719 242.832031 305.589844 L 295.253906 300.765625 C 300.074219 300.3125 303.542969 298.632812 305.488281 295.902344 C 307.460938 293.191406 307.746094 289.96875 307.746094 286.929688 L 307.746094 250.882812 C 307.945312 247.054688 303.738281 247.054688 303.941406 250.882812 L 302.285156 286.929688 C 302.015625 292.671875 299.082031 294.890625 294.738281 295.296875 L 263.804688 298.160156 C 260.890625 298.429688 259.683594 296.640625 259.683594 294.398438 L 259.683594 253.191406 C 259.695312 231.898438 276.886719 214.816406 298.375 214.816406 Z M 298.375 214.816406 " fill-opacity="1" fill-rule="evenodd"/></g><path fill="#17ead9" d="M 76.71875 214.816406 C 98.210938 214.816406 115.402344 231.902344 115.402344 253.191406 L 115.402344 272.214844 C 115.402344 280.542969 104.296875 283.503906 99.867188 276.78125 L 83.523438 252.113281 C 81.617188 249.207031 78.820312 250.96875 80.457031 253.855469 L 95.097656 279.496094 C 96.617188 282.136719 98.523438 284.757812 101.566406 286.125 C 104.632812 287.460938 108.417969 287.191406 112.800781 285.253906 L 153.902344 267.121094 C 156.945312 265.769531 159.445312 265.96875 161.691406 266.953125 C 163.929688 267.96875 165.875 269.941406 167.132812 272.289062 C 168.386719 274.632812 168.902344 277.328125 168.542969 279.601562 C 168.164062 281.890625 167.066406 283.792969 164.691406 285.160156 L 137.761719 300.714844 L 137.65625 300.765625 C 137.519531 300.824219 137.40625 300.890625 137.269531 300.984375 L 104.117188 320.117188 C 96.039062 324.769531 85.855469 322.082031 81.21875 314.007812 L 55.945312 270.757812 C 54.246094 267.171875 50.128906 269.4375 52.386719 272.703125 L 76.453125 316.742188 C 78.421875 320.367188 77.238281 322.375 72.335938 322.375 L 38.015625 322.375 L 38.015625 253.191406 C 38.015625 231.898438 55.230469 214.816406 76.71875 214.816406 Z M 76.71875 214.816406 " fill-opacity="1" fill-rule="evenodd"/><path fill="#17ead9" d="M 155.492188 228.566406 L 191.042969 228.566406 C 194.667969 228.566406 196.390625 231.226562 195.945312 234.316406 L 184.328125 314.796875 C 183.882812 317.863281 182.847656 318.84375 178.417969 318.84375 L 143.273438 318.84375 C 140.496094 318.84375 139.585938 317.496094 139.917969 315.167969 L 141.101562 306.890625 C 141.414062 304.6875 141.710938 304.742188 143.117188 303.910156 L 167.429688 289.898438 C 171.1875 287.726562 173.339844 284.167969 173.945312 280.496094 C 174.523438 276.804688 173.71875 273.027344 171.949219 269.707031 C 170.199219 266.394531 167.472656 263.527344 163.9375 261.957031 C 160.378906 260.371094 156.039062 260.195312 151.714844 262.089844 L 149.742188 262.964844 C 147.820312 263.8125 147.570312 262.277344 147.683594 261.394531 L 152.007812 231.425781 C 152.265625 229.617188 152.511719 228.566406 155.492188 228.566406 Z M 155.492188 228.566406 " fill-opacity="1" fill-rule="evenodd"/></svg>