<svg xmlns="http://www.w3.org/2000/svg" xmlns:xlink="http://www.w3.org/1999/xlink" width="500" zoomAndPan="magnify" viewBox="0 0 375 374.999991" height="500" preserveAspectRatio="xMidYMid meet" version="1.0"><defs><clipPath id="217afc7138"><path d="M 39 37.5 L 287 37.5 L 287 337.5 L 39 337.5 Z M 39 37.5 " clip-rule="nonzero"/></clipPath></defs><g clip-path="url(#217afc7138)"><path fill="#17ead9" d="M 39.75 63.109375 C 39.75 48.964844 51.835938 37.5 66.742188 37.5 L 259.265625 37.5 C 274.171875 37.5 286.253906 48.964844 286.253906 63.109375 L 286.253906 92.378906 C 286.253906 98.441406 281.074219 103.355469 274.6875 103.355469 C 268.300781 103.355469 263.121094 98.441406 263.121094 92.378906 L 263.121094 63.109375 C 263.121094 61.089844 261.394531 59.449219 259.265625 59.449219 L 66.742188 59.449219 C 64.609375 59.449219 62.882812 61.089844 62.882812 63.109375 L 62.882812 311.890625 C 62.882812 313.910156 64.609375 315.550781 66.742188 315.550781 L 259.265625 315.550781 C 261.394531 315.550781 263.121094 313.910156 263.121094 311.890625 L 263.121094 267.988281 C 263.121094 261.925781 268.300781 257.011719 274.6875 257.011719 C 281.074219 257.011719 286.253906 261.925781 286.253906 267.988281 L 286.253906 311.890625 C 286.253906 326.035156 274.171875 337.5 259.265625 337.5 L 66.742188 337.5 C 51.835938 337.5 39.75 326.035156 39.75 311.890625 Z M 39.75 63.109375 " fill-opacity="1" fill-rule="evenodd"/></g><path fill="#17ead9" d="M 87.5625 92.378906 C 87.5625 86.316406 92.738281 81.402344 99.121094 81.402344 L 226.621094 81.402344 C 233.003906 81.402344 238.175781 86.316406 238.175781 92.378906 C 238.175781 98.441406 233.003906 103.351562 226.621094 103.351562 L 99.121094 103.351562 C 92.738281 103.351562 87.5625 98.441406 87.5625 92.378906 Z M 87.5625 92.378906 " fill-opacity="1" fill-rule="evenodd"/><path fill="#17ead9" d="M 87.5625 143.597656 C 87.5625 137.535156 92.738281 132.621094 99.121094 132.621094 L 226.621094 132.621094 C 233.003906 132.621094 238.175781 137.535156 238.175781 143.597656 C 238.175781 149.660156 233.003906 154.574219 226.621094 154.574219 L 99.121094 154.574219 C 92.738281 154.574219 87.5625 149.660156 87.5625 143.597656 Z M 87.5625 143.597656 " fill-opacity="1" fill-rule="evenodd"/><path fill="#17ead9" d="M 87.5625 194.816406 C 87.5625 188.753906 92.738281 183.839844 99.121094 183.839844 L 194.746094 183.839844 C 201.128906 183.839844 206.300781 188.753906 206.300781 194.816406 C 206.300781 200.878906 201.128906 205.792969 194.746094 205.792969 L 99.121094 205.792969 C 92.738281 205.792969 87.5625 200.878906 87.5625 194.816406 Z M 87.5625 194.816406 " fill-opacity="1" fill-rule="evenodd"/><path fill="#17ead9" d="M 140.1875 284.199219 C 132.691406 276.507812 119.828125 276.703125 112.59375 284.617188 L 107.84375 289.816406 C 103.660156 294.394531 96.363281 294.882812 91.542969 290.910156 C 86.722656 286.9375 86.207031 280.003906 90.390625 275.425781 L 95.144531 270.226562 C 111.394531 252.445312 140.300781 252.007812 157.144531 269.28125 C 163.992188 276.308594 175.492188 276.847656 183.03125 270.496094 L 187.082031 267.089844 C 191.859375 263.070312 199.160156 263.488281 203.394531 268.027344 C 207.625 272.5625 207.183594 279.5 202.410156 283.519531 L 198.359375 286.925781 C 181.410156 301.191406 155.570312 299.980469 140.1875 284.199219 Z M 140.1875 284.199219 " fill-opacity="1" fill-rule="evenodd"/><path fill="#17ead9" d="M 320.570312 92.503906 C 312.328125 88.390625 300.582031 94.230469 294.328125 105.539062 L 229.75 222.347656 L 219.542969 266.4375 C 218.65625 270.269531 219.796875 273.644531 222.421875 274.953125 C 225.046875 276.261719 228.617188 275.238281 231.433594 272.371094 L 263.851562 239.359375 L 328.429688 122.550781 C 334.679688 111.238281 333.070312 98.738281 324.832031 94.628906 Z M 320.570312 92.503906 " fill-opacity="1" fill-rule="evenodd"/></svg>