<svg xmlns="http://www.w3.org/2000/svg" xmlns:xlink="http://www.w3.org/1999/xlink" width="500" zoomAndPan="magnify" viewBox="0 0 375 374.999991" height="500" preserveAspectRatio="xMidYMid meet" version="1.0"><defs><clipPath id="4b0b4c5f8a"><path d="M 144 208 L 231 208 L 231 337.5 L 144 337.5 Z M 144 208 " clip-rule="nonzero"/></clipPath><clipPath id="04d32a086d"><path d="M 59.585938 37.5 L 315.335938 37.5 L 315.335938 229 L 59.585938 229 Z M 59.585938 37.5 " clip-rule="nonzero"/></clipPath></defs><g clip-path="url(#4b0b4c5f8a)"><path fill="#17ead9" d="M 227.90625 250.234375 L 194.5 212.117188 C 192.976562 209.886719 190.414062 208.421875 187.496094 208.421875 C 184.417969 208.421875 181.730469 210.058594 180.246094 212.519531 L 147.621094 249.726562 C 145.535156 251.273438 144.179688 253.75 144.179688 256.550781 C 144.179688 261.230469 147.972656 265.023438 152.65625 265.023438 C 153.238281 265.023438 153.808594 264.96875 154.359375 264.855469 L 168.839844 264.855469 L 168.839844 319.570312 C 168.839844 329.417969 176.890625 337.472656 186.726562 337.472656 C 196.566406 337.472656 204.617188 329.417969 204.617188 319.570312 L 204.617188 264.855469 L 220.550781 264.855469 C 221.101562 264.96875 221.675781 265.023438 222.257812 265.023438 C 226.933594 265.023438 230.738281 261.230469 230.738281 256.550781 C 230.738281 254.035156 229.640625 251.785156 227.90625 250.234375 " fill-opacity="1" fill-rule="nonzero"/></g><g clip-path="url(#04d32a086d)"><path fill="#17ead9" d="M 224.636719 109.808594 L 224.636719 175.050781 L 224.621094 175.050781 C 224.628906 175.253906 224.636719 175.453125 224.636719 175.644531 C 224.636719 184.488281 215.585938 191.65625 204.410156 191.65625 C 193.242188 191.65625 184.191406 184.488281 184.191406 175.644531 C 184.191406 166.808594 193.242188 159.640625 204.410156 159.640625 C 206.914062 159.640625 209.308594 159.992188 211.519531 160.652344 L 211.519531 115.308594 L 167.792969 133.648438 L 167.792969 190.367188 L 167.773438 190.367188 C 167.78125 190.558594 167.792969 190.757812 167.792969 190.960938 C 167.792969 199.792969 158.738281 206.972656 147.570312 206.972656 C 136.402344 206.972656 127.347656 199.792969 127.347656 190.960938 C 127.347656 182.113281 136.402344 174.945312 147.570312 174.945312 C 150.070312 174.945312 152.464844 175.308594 154.675781 175.96875 L 154.675781 139.148438 L 154.671875 139.15625 L 154.671875 119.261719 C 154.671875 119.261719 154.675781 118.816406 154.671875 118.597656 L 154.671875 118.167969 C 154.765625 114.660156 156.929688 111.664062 159.988281 110.371094 L 160.40625 110.207031 C 160.503906 110.167969 160.605469 110.132812 160.710938 110.097656 L 160.710938 110.082031 L 161.332031 109.835938 L 213.234375 89.261719 L 213.242188 89.261719 C 214.1875 88.882812 215.222656 88.675781 216.308594 88.675781 C 220.75 88.675781 224.382812 92.144531 224.636719 96.519531 Z M 253.183594 94.726562 C 249.117188 62.472656 221.589844 37.527344 188.230469 37.527344 C 154.910156 37.527344 127.40625 62.421875 123.285156 94.628906 C 87.816406 96.359375 59.585938 125.675781 59.585938 161.585938 C 59.585938 198.613281 89.59375 228.625 126.605469 228.625 C 129.621094 228.625 132.585938 228.417969 135.496094 228.035156 L 159.808594 228.035156 L 176.121094 209.429688 C 178.625 205.628906 182.933594 203.28125 187.496094 203.28125 C 191.878906 203.28125 195.984375 205.390625 198.539062 208.945312 L 215.28125 228.035156 L 239.425781 228.035156 C 242.332031 228.417969 245.304688 228.625 248.316406 228.625 C 285.335938 228.625 315.339844 198.613281 315.339844 161.585938 C 315.339844 126.203125 287.925781 97.222656 253.183594 94.726562 " fill-opacity="1" fill-rule="nonzero"/></g></svg>