<svg xmlns="http://www.w3.org/2000/svg" xmlns:xlink="http://www.w3.org/1999/xlink" width="500" zoomAndPan="magnify" viewBox="0 0 375 374.999991" height="500" preserveAspectRatio="xMidYMid meet" version="1.0"><defs><clipPath id="52af86a820"><path d="M 64.3125 37.5 L 311 37.5 L 311 337.5 L 64.3125 337.5 Z M 64.3125 37.5 " clip-rule="nonzero"/></clipPath></defs><g clip-path="url(#52af86a820)"><path fill="#17ead9" d="M 101.234375 37.5 C 80.828125 37.5 64.386719 53.914062 64.386719 74.292969 L 64.386719 300.707031 C 64.386719 321.085938 80.828125 337.5 101.234375 337.5 L 274.140625 337.5 C 294.546875 337.5 310.988281 321.085938 310.988281 300.707031 L 310.988281 74.292969 C 310.988281 53.914062 294.546875 37.5 274.140625 37.5 Z M 101.234375 54.480469 L 274.140625 54.480469 C 285.195312 54.480469 293.980469 63.253906 293.980469 74.292969 L 293.980469 300.707031 C 293.980469 311.746094 285.195312 320.519531 274.140625 320.519531 L 101.234375 320.519531 C 90.179688 320.519531 81.394531 311.746094 81.394531 300.707031 L 81.394531 74.292969 C 81.394531 63.253906 90.179688 54.480469 101.234375 54.480469 Z M 101.234375 74.292969 L 101.234375 116.746094 L 274.140625 116.746094 L 274.140625 74.292969 Z M 112.574219 156.367188 C 107.753906 156.367188 104.070312 160.046875 104.070312 164.859375 C 104.070312 169.667969 107.753906 173.347656 112.574219 173.347656 L 257.132812 173.347656 C 261.953125 173.347656 265.636719 169.667969 265.636719 164.859375 C 265.636719 160.046875 261.953125 156.367188 257.132812 156.367188 Z M 112.574219 198.820312 C 107.753906 198.820312 104.070312 202.5 104.070312 207.3125 C 104.070312 212.121094 107.753906 215.800781 112.574219 215.800781 L 257.132812 215.800781 C 261.953125 215.800781 265.636719 212.121094 265.636719 207.3125 C 265.636719 202.5 261.953125 198.820312 257.132812 198.820312 Z M 112.574219 241.273438 C 107.753906 241.273438 104.070312 244.953125 104.070312 249.765625 C 104.070312 254.574219 107.753906 258.253906 112.574219 258.253906 L 187.6875 258.253906 C 192.507812 258.253906 196.191406 254.574219 196.191406 249.765625 C 196.191406 244.953125 192.507812 241.273438 187.6875 241.273438 Z M 112.574219 241.273438 " fill-opacity="1" fill-rule="nonzero"/></g></svg>