<svg xmlns="http://www.w3.org/2000/svg" xmlns:xlink="http://www.w3.org/1999/xlink" width="500" zoomAndPan="magnify" viewBox="0 0 375 374.999991" height="500" preserveAspectRatio="xMidYMid meet" version="1.0"><defs><clipPath id="18d60e6fa2"><path d="M 37.5 304 L 335 304 L 335 337.5 L 37.5 337.5 Z M 37.5 304 " clip-rule="nonzero"/></clipPath></defs><g clip-path="url(#18d60e6fa2)"><path fill="#17ead9" d="M 211.25 312.875 C 211.25 308.28125 207.5 304.507812 202.882812 304.507812 L 169.414062 304.507812 C 164.796875 304.507812 161.046875 308.28125 161.046875 312.875 L 37.5 312.875 C 37.5 326.46875 48.53125 337.5 62.125 337.5 L 310.171875 337.5 C 323.765625 337.5 334.796875 326.46875 334.796875 312.875 L 211.25 312.875 " fill-opacity="1" fill-rule="nonzero"/></g><path fill="#17ead9" d="M 314.921875 102.492188 L 301.117188 121.496094 L 301.117188 270.0625 C 301.117188 273.207031 298.558594 275.765625 295.390625 275.765625 L 76.90625 275.765625 C 73.738281 275.765625 71.179688 273.207031 71.179688 270.0625 L 71.179688 116.929688 C 71.179688 113.789062 73.738281 111.226562 76.90625 111.226562 L 263.140625 111.226562 L 272.457031 92.648438 L 76.90625 92.648438 C 63.523438 92.648438 52.597656 103.519531 52.597656 116.929688 L 52.597656 270.0625 C 52.597656 283.472656 63.523438 294.347656 76.90625 294.347656 L 295.390625 294.347656 C 308.800781 294.347656 319.699219 283.472656 319.699219 270.0625 L 319.699219 116.929688 C 319.699219 111.542969 317.878906 106.53125 314.921875 102.492188 " fill-opacity="1" fill-rule="nonzero"/><path fill="#17ead9" d="M 132.621094 140.894531 L 200.746094 140.894531 L 200.746094 209.015625 L 132.621094 209.015625 L 132.621094 140.894531 " fill-opacity="1" fill-rule="nonzero"/><path fill="#17ead9" d="M 125.65625 172.59375 C 108.5 175.867188 95.539062 190.910156 95.539062 209.015625 C 95.539062 229.496094 112.140625 246.097656 132.621094 246.097656 C 150.726562 246.097656 165.773438 233.140625 169.046875 215.984375 L 125.65625 215.984375 L 125.65625 172.59375 " fill-opacity="1" fill-rule="nonzero"/><path fill="#17ead9" d="M 214.890625 191.964844 C 211.273438 187.875 212.886719 181.433594 217.980469 179.507812 C 224.261719 177.160156 231.359375 172.488281 231.230469 163.460938 C 230.964844 143.691406 250.65625 141.84375 258.230469 144.378906 C 267.386719 147.441406 283.988281 164.832031 265.699219 187.03125 C 261.132812 192.574219 255.0625 196.691406 248.199219 198.828125 C 238.832031 201.757812 224.867188 203.289062 214.890625 191.964844 " fill-opacity="1" fill-rule="nonzero"/><path fill="#17ead9" d="M 332.949219 65.410156 C 332.527344 66.253906 332 67.125 331.472656 67.835938 L 273.695312 147.441406 C 269.683594 142.53125 264.722656 139.179688 260.445312 137.78125 C 259.65625 137.515625 258.835938 137.277344 257.9375 137.144531 L 301.777344 49.808594 C 306.160156 41.179688 316.558594 37.722656 325.164062 42.101562 C 333.792969 46.378906 337.226562 56.832031 332.949219 65.410156 " fill-opacity="1" fill-rule="nonzero"/></svg>