<svg xmlns="http://www.w3.org/2000/svg" xmlns:xlink="http://www.w3.org/1999/xlink" width="500" zoomAndPan="magnify" viewBox="0 0 375 374.999991" height="500" preserveAspectRatio="xMidYMid meet" version="1.0"><defs><clipPath id="d6b899c0d7"><path d="M 98 37.5 L 277 37.5 L 277 86 L 98 86 Z M 98 37.5 " clip-rule="nonzero"/></clipPath><clipPath id="cf2917b9df"><path d="M 99 289 L 277 289 L 277 337.5 L 99 337.5 Z M 99 289 " clip-rule="nonzero"/></clipPath><clipPath id="7e3a83ce46"><path d="M 57.9375 207 L 168 207 L 168 311 L 57.9375 311 Z M 57.9375 207 " clip-rule="nonzero"/></clipPath><clipPath id="4319c117cf"><path d="M 208 150 L 317.4375 150 L 317.4375 253 L 208 253 Z M 208 150 " clip-rule="nonzero"/></clipPath><clipPath id="fb42829f94"><path d="M 57.9375 92 L 168 92 L 168 195 L 57.9375 195 Z M 57.9375 92 " clip-rule="nonzero"/></clipPath></defs><g clip-path="url(#d6b899c0d7)"><path fill="#17ead9" d="M 242.3125 37.5 L 133.0625 37.5 C 131.945312 37.5 130.832031 37.558594 129.71875 37.667969 C 128.605469 37.777344 127.5 37.941406 126.40625 38.160156 C 125.308594 38.378906 124.226562 38.652344 123.15625 38.976562 C 122.089844 39.300781 121.035156 39.679688 120.003906 40.105469 C 118.972656 40.535156 117.964844 41.011719 116.976562 41.539062 C 115.992188 42.0625 115.035156 42.636719 114.105469 43.257812 C 113.175781 43.878906 112.28125 44.542969 111.414062 45.25 C 110.550781 45.960938 109.726562 46.707031 108.933594 47.496094 C 108.144531 48.285156 107.394531 49.113281 106.683594 49.976562 C 105.976562 50.835938 105.308594 51.734375 104.6875 52.660156 C 104.066406 53.589844 103.492188 54.542969 102.964844 55.527344 C 102.4375 56.511719 101.960938 57.519531 101.53125 58.550781 C 101.105469 59.582031 100.726562 60.632812 100.402344 61.699219 C 100.078125 62.765625 99.804688 63.847656 99.585938 64.941406 C 99.367188 66.039062 99.203125 67.140625 99.089844 68.25 C 98.980469 69.363281 98.925781 70.476562 98.921875 71.589844 L 98.921875 78.410156 L 146.71875 78.410156 C 150.378906 78.421875 153.941406 79.007812 157.410156 80.175781 C 160.878906 81.339844 164.070312 83.027344 166.992188 85.226562 L 276.453125 85.226562 L 276.453125 71.589844 C 276.449219 70.476562 276.394531 69.363281 276.285156 68.25 C 276.171875 67.140625 276.007812 66.039062 275.789062 64.941406 C 275.570312 63.847656 275.296875 62.765625 274.972656 61.699219 C 274.648438 60.632812 274.269531 59.582031 273.84375 58.550781 C 273.414062 57.519531 272.9375 56.511719 272.410156 55.527344 C 271.882812 54.542969 271.308594 53.589844 270.6875 52.660156 C 270.066406 51.734375 269.398438 50.835938 268.691406 49.976562 C 267.980469 49.113281 267.230469 48.285156 266.441406 47.496094 C 265.648438 46.707031 264.824219 45.960938 263.960938 45.25 C 263.09375 44.542969 262.199219 43.878906 261.269531 43.257812 C 260.339844 42.636719 259.382812 42.0625 258.398438 41.539062 C 257.410156 41.011719 256.402344 40.535156 255.371094 40.105469 C 254.339844 39.679688 253.289062 39.300781 252.21875 38.976562 C 251.148438 38.652344 250.066406 38.378906 248.96875 38.160156 C 247.875 37.941406 246.769531 37.777344 245.65625 37.667969 C 244.542969 37.558594 243.429688 37.5 242.3125 37.5 Z M 194.515625 71.589844 L 153.546875 71.589844 C 153.097656 71.589844 152.65625 71.546875 152.214844 71.460938 C 151.777344 71.371094 151.347656 71.242188 150.933594 71.070312 C 150.519531 70.902344 150.125 70.691406 149.753906 70.441406 C 149.382812 70.191406 149.035156 69.910156 148.71875 69.59375 C 148.402344 69.277344 148.117188 68.933594 147.871094 68.5625 C 147.621094 68.1875 147.410156 67.796875 147.238281 67.382812 C 147.066406 66.96875 146.9375 66.542969 146.851562 66.101562 C 146.761719 65.664062 146.71875 65.21875 146.71875 64.773438 C 146.71875 64.324219 146.761719 63.882812 146.851562 63.441406 C 146.9375 63.003906 147.066406 62.578125 147.238281 62.164062 C 147.410156 61.75 147.621094 61.355469 147.871094 60.984375 C 148.117188 60.613281 148.402344 60.269531 148.71875 59.953125 C 149.035156 59.636719 149.382812 59.351562 149.753906 59.105469 C 150.125 58.855469 150.519531 58.644531 150.933594 58.472656 C 151.347656 58.300781 151.777344 58.171875 152.214844 58.085938 C 152.65625 58 153.097656 57.953125 153.546875 57.953125 L 194.515625 57.953125 C 194.964844 57.953125 195.40625 58 195.847656 58.085938 C 196.289062 58.171875 196.714844 58.300781 197.128906 58.472656 C 197.542969 58.644531 197.9375 58.855469 198.308594 59.105469 C 198.683594 59.351562 199.027344 59.636719 199.34375 59.953125 C 199.660156 60.269531 199.945312 60.613281 200.191406 60.984375 C 200.441406 61.355469 200.652344 61.75 200.824219 62.164062 C 200.996094 62.578125 201.125 63.003906 201.210938 63.441406 C 201.300781 63.882812 201.34375 64.324219 201.34375 64.773438 C 201.34375 65.21875 201.300781 65.664062 201.210938 66.101562 C 201.125 66.542969 200.996094 66.96875 200.824219 67.382812 C 200.652344 67.796875 200.441406 68.1875 200.191406 68.5625 C 199.945312 68.933594 199.660156 69.277344 199.34375 69.59375 C 199.027344 69.910156 198.683594 70.191406 198.308594 70.441406 C 197.9375 70.691406 197.542969 70.902344 197.128906 71.070312 C 196.714844 71.242188 196.289062 71.371094 195.847656 71.460938 C 195.40625 71.546875 194.964844 71.589844 194.515625 71.589844 Z M 221.828125 71.589844 C 221.378906 71.589844 220.933594 71.546875 220.496094 71.460938 C 220.054688 71.371094 219.628906 71.242188 219.214844 71.070312 C 218.800781 70.902344 218.40625 70.691406 218.035156 70.441406 C 217.660156 70.191406 217.316406 69.910156 217 69.59375 C 216.683594 69.277344 216.398438 68.933594 216.152344 68.5625 C 215.902344 68.1875 215.691406 67.796875 215.519531 67.382812 C 215.347656 66.96875 215.21875 66.542969 215.132812 66.101562 C 215.042969 65.664062 215 65.21875 215 64.773438 C 215 64.324219 215.042969 63.882812 215.132812 63.441406 C 215.21875 63.003906 215.347656 62.578125 215.519531 62.164062 C 215.691406 61.75 215.902344 61.355469 216.152344 60.984375 C 216.398438 60.613281 216.683594 60.269531 217 59.953125 C 217.316406 59.636719 217.660156 59.351562 218.035156 59.105469 C 218.40625 58.855469 218.800781 58.644531 219.214844 58.472656 C 219.628906 58.300781 220.054688 58.171875 220.496094 58.085938 C 220.933594 58 221.378906 57.953125 221.828125 57.953125 C 222.277344 57.953125 222.71875 58 223.160156 58.085938 C 223.597656 58.171875 224.027344 58.300781 224.441406 58.472656 C 224.855469 58.644531 225.25 58.855469 225.621094 59.105469 C 225.992188 59.351562 226.339844 59.636719 226.65625 59.953125 C 226.972656 60.269531 227.257812 60.613281 227.503906 60.984375 C 227.753906 61.355469 227.964844 61.75 228.136719 62.164062 C 228.308594 62.578125 228.4375 63.003906 228.523438 63.441406 C 228.613281 63.882812 228.65625 64.324219 228.65625 64.773438 C 228.65625 65.21875 228.613281 65.664062 228.523438 66.101562 C 228.4375 66.542969 228.308594 66.96875 228.136719 67.382812 C 227.964844 67.796875 227.753906 68.1875 227.503906 68.5625 C 227.257812 68.933594 226.972656 69.277344 226.65625 69.59375 C 226.339844 69.910156 225.992188 70.191406 225.621094 70.441406 C 225.25 70.691406 224.855469 70.902344 224.441406 71.070312 C 224.027344 71.242188 223.597656 71.371094 223.160156 71.460938 C 222.71875 71.546875 222.277344 71.589844 221.828125 71.589844 Z M 221.828125 71.589844 " fill-opacity="1" fill-rule="nonzero"/></g><path fill="#17ead9" d="M 228.65625 136.363281 L 276.453125 136.363281 L 276.453125 98.863281 L 177.964844 98.863281 C 179.890625 103.207031 180.855469 107.75 180.859375 112.5 L 180.859375 187.5 C 180.863281 189.230469 180.648438 190.933594 180.214844 192.609375 C 179.78125 194.289062 179.144531 195.882812 178.304688 197.398438 C 177.464844 198.910156 176.445312 200.296875 175.25 201.550781 C 174.058594 202.804688 172.722656 203.890625 171.253906 204.804688 C 172.777344 206.371094 174.136719 208.066406 175.332031 209.894531 C 176.527344 211.722656 177.535156 213.648438 178.359375 215.671875 C 179.183594 217.695312 179.804688 219.777344 180.226562 221.921875 C 180.644531 224.0625 180.855469 226.226562 180.859375 228.410156 L 180.859375 276.136719 L 276.453125 276.136719 L 276.453125 252.273438 L 239.867188 252.273438 C 238.953125 252.28125 238.078125 252.460938 237.238281 252.816406 C 236.394531 253.167969 235.65625 253.671875 235.011719 254.316406 L 229.613281 259.773438 C 228.902344 260.492188 228.144531 261.15625 227.339844 261.765625 C 226.53125 262.371094 225.683594 262.917969 224.796875 263.402344 C 223.910156 263.882812 222.992188 264.296875 222.042969 264.644531 C 221.09375 264.992188 220.125 265.269531 219.132812 265.472656 C 218.144531 265.675781 217.144531 265.804688 216.132812 265.859375 C 215.125 265.917969 214.117188 265.898438 213.109375 265.804688 C 212.105469 265.710938 211.109375 265.546875 210.128906 265.304688 C 209.148438 265.066406 208.1875 264.753906 207.253906 264.371094 C 206.316406 263.992188 205.414062 263.542969 204.546875 263.027344 C 203.675781 262.511719 202.847656 261.9375 202.066406 261.300781 C 201.28125 260.660156 200.550781 259.96875 199.867188 259.222656 C 199.1875 258.480469 198.5625 257.6875 198 256.851562 C 197.4375 256.011719 196.9375 255.136719 196.503906 254.226562 C 196.070312 253.316406 195.703125 252.375 195.410156 251.410156 C 195.113281 250.445312 194.890625 249.464844 194.742188 248.464844 C 194.589844 247.46875 194.515625 246.464844 194.515625 245.453125 L 194.515625 170.453125 C 194.515625 169.339844 194.574219 168.226562 194.683594 167.113281 C 194.792969 166.003906 194.960938 164.902344 195.179688 163.804688 C 195.398438 162.710938 195.667969 161.632812 195.996094 160.5625 C 196.320312 159.496094 196.695312 158.445312 197.125 157.414062 C 197.554688 156.382812 198.03125 155.375 198.558594 154.390625 C 199.085938 153.40625 199.660156 152.453125 200.28125 151.523438 C 200.902344 150.597656 201.566406 149.699219 202.277344 148.839844 C 202.988281 147.976562 203.738281 147.148438 204.527344 146.359375 C 205.316406 145.570312 206.144531 144.824219 207.007812 144.113281 C 207.871094 143.40625 208.769531 142.742188 209.699219 142.121094 C 210.628906 141.5 211.585938 140.925781 212.570312 140.402344 C 213.554688 139.875 214.566406 139.398438 215.597656 138.96875 C 216.628906 138.542969 217.679688 138.164062 218.75 137.839844 C 219.820312 137.515625 220.902344 137.246094 222 137.027344 C 223.09375 136.808594 224.199219 136.640625 225.3125 136.53125 C 226.421875 136.421875 227.539062 136.363281 228.65625 136.363281 Z M 228.65625 136.363281 " fill-opacity="1" fill-rule="nonzero"/><g clip-path="url(#cf2917b9df)"><path fill="#17ead9" d="M 180.859375 289.773438 L 180.859375 303.410156 C 180.859375 304.417969 180.785156 305.421875 180.632812 306.421875 C 180.484375 307.417969 180.261719 308.398438 179.964844 309.367188 C 179.671875 310.332031 179.304688 311.269531 178.871094 312.179688 C 178.4375 313.09375 177.9375 313.964844 177.375 314.804688 C 176.8125 315.640625 176.1875 316.433594 175.507812 317.179688 C 174.824219 317.925781 174.09375 318.617188 173.308594 319.253906 C 172.527344 319.890625 171.699219 320.46875 170.828125 320.980469 C 169.960938 321.496094 169.058594 321.945312 168.121094 322.328125 C 167.1875 322.710938 166.226562 323.019531 165.246094 323.261719 C 164.265625 323.5 163.269531 323.667969 162.265625 323.757812 C 161.257812 323.851562 160.25 323.871094 159.242188 323.816406 C 158.230469 323.757812 157.230469 323.628906 156.242188 323.425781 C 155.25 323.222656 154.28125 322.945312 153.332031 322.601562 C 152.382812 322.253906 151.464844 321.839844 150.578125 321.355469 C 149.691406 320.871094 148.84375 320.328125 148.035156 319.71875 C 147.230469 319.109375 146.472656 318.445312 145.761719 317.726562 L 140.375 312.273438 C 139.730469 311.625 138.988281 311.125 138.144531 310.769531 C 137.300781 310.417969 136.421875 310.234375 135.507812 310.226562 L 99.605469 310.226562 C 99.800781 311.179688 100.039062 312.125 100.316406 313.054688 C 100.59375 313.988281 100.910156 314.910156 101.265625 315.8125 C 101.621094 316.71875 102.015625 317.609375 102.445312 318.480469 C 102.878906 319.355469 103.347656 320.207031 103.851562 321.039062 C 104.355469 321.871094 104.894531 322.679688 105.46875 323.464844 C 106.042969 324.253906 106.648438 325.011719 107.289062 325.746094 C 107.925781 326.480469 108.597656 327.1875 109.296875 327.863281 C 109.996094 328.542969 110.722656 329.1875 111.476562 329.804688 C 112.234375 330.417969 113.011719 331 113.816406 331.550781 C 114.621094 332.097656 115.449219 332.613281 116.296875 333.089844 C 117.144531 333.570312 118.011719 334.011719 118.898438 334.414062 C 119.785156 334.820312 120.6875 335.183594 121.605469 335.511719 C 122.523438 335.839844 123.453125 336.125 124.394531 336.375 C 125.339844 336.621094 126.289062 336.828125 127.25 336.996094 C 128.210938 337.160156 129.175781 337.289062 130.144531 337.371094 C 131.117188 337.457031 132.089844 337.5 133.0625 337.5 L 242.3125 337.5 C 243.429688 337.5 244.542969 337.441406 245.65625 337.332031 C 246.769531 337.222656 247.875 337.058594 248.96875 336.839844 C 250.066406 336.621094 251.148438 336.347656 252.21875 336.023438 C 253.289062 335.699219 254.339844 335.320312 255.371094 334.894531 C 256.402344 334.464844 257.410156 333.988281 258.398438 333.460938 C 259.382812 332.9375 260.339844 332.363281 261.269531 331.742188 C 262.199219 331.121094 263.09375 330.457031 263.960938 329.75 C 264.824219 329.039062 265.648438 328.292969 266.441406 327.503906 C 267.230469 326.714844 267.980469 325.886719 268.691406 325.023438 C 269.398438 324.164062 270.066406 323.265625 270.6875 322.339844 C 271.308594 321.410156 271.882812 320.457031 272.410156 319.472656 C 272.9375 318.488281 273.414062 317.480469 273.84375 316.449219 C 274.269531 315.417969 274.648438 314.367188 274.972656 313.300781 C 275.296875 312.234375 275.570312 311.152344 275.789062 310.058594 C 276.007812 308.960938 276.171875 307.859375 276.285156 306.75 C 276.394531 305.636719 276.449219 304.523438 276.453125 303.410156 L 276.453125 289.773438 Z M 180.859375 289.773438 " fill-opacity="1" fill-rule="nonzero"/></g><g clip-path="url(#7e3a83ce46)"><path fill="#17ead9" d="M 146.71875 207.953125 L 78.4375 207.953125 C 77.769531 207.953125 77.097656 207.988281 76.429688 208.054688 C 75.761719 208.117188 75.101562 208.21875 74.441406 208.347656 C 73.785156 208.476562 73.132812 208.640625 72.492188 208.835938 C 71.851562 209.03125 71.21875 209.253906 70.601562 209.511719 C 69.980469 209.769531 69.375 210.054688 68.78125 210.371094 C 68.191406 210.6875 67.617188 211.03125 67.058594 211.402344 C 66.5 211.773438 65.960938 212.171875 65.445312 212.597656 C 64.925781 213.023438 64.429688 213.472656 63.953125 213.945312 C 63.480469 214.417969 63.03125 214.914062 62.605469 215.433594 C 62.179688 215.949219 61.78125 216.488281 61.40625 217.046875 C 61.035156 217.601562 60.691406 218.175781 60.375 218.765625 C 60.058594 219.359375 59.769531 219.960938 59.515625 220.582031 C 59.257812 221.199219 59.03125 221.832031 58.835938 222.472656 C 58.640625 223.113281 58.480469 223.761719 58.347656 224.417969 C 58.21875 225.074219 58.117188 225.738281 58.054688 226.402344 C 57.988281 227.070312 57.953125 227.738281 57.953125 228.410156 L 57.953125 276.136719 C 57.953125 276.804688 57.988281 277.472656 58.054688 278.140625 C 58.117188 278.808594 58.21875 279.46875 58.347656 280.125 C 58.480469 280.785156 58.640625 281.433594 58.835938 282.074219 C 59.03125 282.714844 59.257812 283.34375 59.515625 283.964844 C 59.769531 284.582031 60.058594 285.1875 60.375 285.777344 C 60.691406 286.371094 61.035156 286.941406 61.40625 287.5 C 61.78125 288.058594 62.179688 288.59375 62.605469 289.113281 C 63.03125 289.628906 63.480469 290.125 63.953125 290.601562 C 64.429688 291.074219 64.925781 291.523438 65.445312 291.949219 C 65.960938 292.371094 66.5 292.769531 67.058594 293.144531 C 67.617188 293.515625 68.191406 293.859375 68.78125 294.175781 C 69.375 294.492188 69.980469 294.777344 70.601562 295.035156 C 71.21875 295.289062 71.851562 295.515625 72.492188 295.710938 C 73.132812 295.90625 73.785156 296.066406 74.441406 296.199219 C 75.101562 296.328125 75.761719 296.425781 76.429688 296.492188 C 77.097656 296.558594 77.769531 296.589844 78.4375 296.589844 L 135.507812 296.589844 C 136.867188 296.59375 138.214844 296.730469 139.546875 297.003906 C 140.882812 297.273438 142.175781 297.671875 143.429688 298.199219 C 144.683594 298.726562 145.871094 299.371094 147 300.132812 C 148.125 300.894531 149.164062 301.757812 150.121094 302.726562 L 155.507812 308.183594 C 155.980469 308.664062 156.515625 309.066406 157.113281 309.390625 C 157.707031 309.714844 158.335938 309.941406 159 310.078125 C 159.664062 310.214844 160.332031 310.253906 161.007812 310.191406 C 161.679688 310.128906 162.332031 309.96875 162.957031 309.710938 C 163.585938 309.457031 164.160156 309.117188 164.6875 308.6875 C 165.210938 308.261719 165.664062 307.765625 166.042969 307.207031 C 166.417969 306.644531 166.707031 306.039062 166.90625 305.394531 C 167.101562 304.746094 167.203125 304.085938 167.203125 303.410156 L 167.203125 228.410156 C 167.203125 227.738281 167.171875 227.070312 167.105469 226.402344 C 167.039062 225.738281 166.941406 225.074219 166.808594 224.417969 C 166.679688 223.761719 166.515625 223.113281 166.320312 222.472656 C 166.125 221.832031 165.902344 221.199219 165.644531 220.582031 C 165.386719 219.960938 165.101562 219.359375 164.785156 218.765625 C 164.46875 218.175781 164.125 217.601562 163.75 217.046875 C 163.378906 216.488281 162.980469 215.949219 162.554688 215.433594 C 162.128906 214.914062 161.679688 214.417969 161.203125 213.945312 C 160.730469 213.472656 160.234375 213.023438 159.714844 212.597656 C 159.195312 212.171875 158.65625 211.773438 158.097656 211.402344 C 157.542969 211.03125 156.96875 210.6875 156.375 210.371094 C 155.785156 210.054688 155.179688 209.769531 154.558594 209.511719 C 153.9375 209.253906 153.308594 209.03125 152.664062 208.835938 C 152.023438 208.640625 151.375 208.476562 150.714844 208.347656 C 150.058594 208.21875 149.394531 208.117188 148.726562 208.054688 C 148.058594 207.988281 147.390625 207.953125 146.71875 207.953125 Z M 126.234375 261.136719 L 109.164062 270.980469 C 108.386719 271.429688 107.5625 271.769531 106.695312 272.003906 C 105.824219 272.234375 104.941406 272.351562 104.042969 272.351562 C 103.144531 272.351562 102.257812 272.234375 101.390625 272.003906 C 100.523438 271.769531 99.699219 271.429688 98.921875 270.980469 C 98.140625 270.53125 97.433594 269.988281 96.796875 269.355469 C 96.164062 268.71875 95.621094 268.011719 95.171875 267.234375 C 94.722656 266.457031 94.382812 265.632812 94.148438 264.765625 C 93.917969 263.898438 93.800781 263.015625 93.800781 262.117188 L 93.800781 242.433594 C 93.800781 241.535156 93.917969 240.652344 94.148438 239.785156 C 94.382812 238.917969 94.722656 238.097656 95.171875 237.316406 C 95.621094 236.539062 96.164062 235.832031 96.796875 235.199219 C 97.433594 234.5625 98.140625 234.019531 98.921875 233.570312 C 99.699219 233.121094 100.523438 232.78125 101.390625 232.550781 C 102.257812 232.316406 103.144531 232.199219 104.042969 232.199219 C 104.941406 232.199219 105.824219 232.316406 106.695312 232.546875 C 107.5625 232.78125 108.386719 233.121094 109.164062 233.570312 L 126.234375 243.410156 C 127.015625 243.859375 127.722656 244.398438 128.359375 245.035156 C 128.996094 245.667969 129.542969 246.375 129.992188 247.152344 C 130.441406 247.929688 130.785156 248.753906 131.019531 249.621094 C 131.25 250.492188 131.367188 251.375 131.367188 252.273438 C 131.367188 253.171875 131.25 254.054688 131.019531 254.921875 C 130.785156 255.789062 130.441406 256.613281 129.992188 257.390625 C 129.542969 258.171875 128.996094 258.875 128.359375 259.511719 C 127.722656 260.144531 127.015625 260.6875 126.234375 261.136719 Z M 126.234375 261.136719 " fill-opacity="1" fill-rule="nonzero"/></g><path fill="#17ead9" d="M 257.675781 189.203125 L 267.917969 189.203125 L 267.917969 199.433594 L 257.675781 199.433594 Z M 257.675781 189.203125 " fill-opacity="1" fill-rule="nonzero"/><g clip-path="url(#4319c117cf)"><path fill="#17ead9" d="M 296.9375 150 L 228.65625 150 C 227.984375 150 227.316406 150.03125 226.648438 150.097656 C 225.980469 150.164062 225.316406 150.261719 224.660156 150.394531 C 224 150.523438 223.351562 150.6875 222.710938 150.878906 C 222.066406 151.074219 221.4375 151.300781 220.816406 151.558594 C 220.195312 151.8125 219.589844 152.097656 219 152.414062 C 218.40625 152.730469 217.832031 153.074219 217.277344 153.445312 C 216.71875 153.820312 216.179688 154.21875 215.660156 154.644531 C 215.140625 155.066406 214.644531 155.515625 214.171875 155.992188 C 213.695312 156.464844 213.246094 156.960938 212.820312 157.476562 C 212.394531 157.996094 211.996094 158.535156 211.625 159.089844 C 211.25 159.648438 210.90625 160.222656 210.589844 160.8125 C 210.273438 161.402344 209.988281 162.007812 209.730469 162.625 C 209.472656 163.246094 209.25 163.875 209.054688 164.515625 C 208.859375 165.15625 208.695312 165.808594 208.566406 166.464844 C 208.433594 167.121094 208.335938 167.78125 208.269531 168.449219 C 208.203125 169.117188 208.171875 169.785156 208.171875 170.453125 L 208.171875 245.453125 C 208.171875 246.132812 208.273438 246.792969 208.46875 247.4375 C 208.667969 248.085938 208.957031 248.691406 209.332031 249.25 C 209.710938 249.8125 210.164062 250.308594 210.6875 250.734375 C 211.214844 251.160156 211.789062 251.503906 212.417969 251.757812 C 213.042969 252.015625 213.695312 252.171875 214.367188 252.234375 C 215.042969 252.296875 215.710938 252.261719 216.375 252.125 C 217.039062 251.988281 217.667969 251.757812 218.261719 251.433594 C 218.859375 251.113281 219.394531 250.710938 219.867188 250.226562 L 225.253906 244.773438 C 226.210938 243.804688 227.25 242.9375 228.375 242.175781 C 229.503906 241.414062 230.691406 240.769531 231.945312 240.242188 C 233.199219 239.71875 234.492188 239.320312 235.828125 239.046875 C 237.160156 238.777344 238.507812 238.640625 239.867188 238.636719 L 296.9375 238.636719 C 297.605469 238.636719 298.277344 238.605469 298.945312 238.539062 C 299.613281 238.472656 300.273438 238.375 300.933594 238.242188 C 301.589844 238.113281 302.242188 237.949219 302.882812 237.753906 C 303.523438 237.5625 304.15625 237.335938 304.773438 237.078125 C 305.394531 236.824219 306 236.535156 306.59375 236.222656 C 307.183594 235.90625 307.757812 235.5625 308.316406 235.1875 C 308.875 234.816406 309.414062 234.417969 309.929688 233.992188 C 310.449219 233.570312 310.945312 233.117188 311.421875 232.644531 C 311.894531 232.171875 312.34375 231.675781 312.769531 231.15625 C 313.195312 230.640625 313.59375 230.101562 313.96875 229.546875 C 314.339844 228.988281 314.683594 228.414062 315 227.824219 C 315.316406 227.234375 315.605469 226.628906 315.859375 226.007812 C 316.117188 225.390625 316.34375 224.761719 316.539062 224.121094 C 316.734375 223.476562 316.894531 222.828125 317.027344 222.171875 C 317.15625 221.515625 317.257812 220.851562 317.320312 220.1875 C 317.386719 219.519531 317.421875 218.851562 317.421875 218.183594 L 317.421875 170.453125 C 317.421875 169.785156 317.386719 169.117188 317.320312 168.449219 C 317.257812 167.78125 317.15625 167.121094 317.027344 166.464844 C 316.894531 165.808594 316.734375 165.15625 316.539062 164.515625 C 316.34375 163.875 316.117188 163.246094 315.859375 162.625 C 315.605469 162.007812 315.316406 161.402344 315 160.8125 C 314.683594 160.222656 314.339844 159.648438 313.96875 159.089844 C 313.59375 158.535156 313.195312 157.996094 312.769531 157.476562 C 312.34375 156.960938 311.894531 156.464844 311.421875 155.992188 C 310.945312 155.515625 310.449219 155.066406 309.929688 154.644531 C 309.414062 154.21875 308.875 153.820312 308.316406 153.445312 C 307.757812 153.074219 307.183594 152.730469 306.59375 152.414062 C 306 152.097656 305.394531 151.8125 304.773438 151.558594 C 304.15625 151.300781 303.523438 151.074219 302.882812 150.878906 C 302.242188 150.6875 301.589844 150.523438 300.933594 150.394531 C 300.273438 150.261719 299.613281 150.164062 298.945312 150.097656 C 298.277344 150.03125 297.605469 150 296.9375 150 Z M 281.574219 199.433594 C 281.574219 200.328125 281.484375 201.214844 281.3125 202.09375 C 281.136719 202.96875 280.875 203.824219 280.535156 204.648438 C 280.191406 205.476562 279.769531 206.261719 279.273438 207.007812 C 278.773438 207.753906 278.207031 208.441406 277.574219 209.074219 C 276.9375 209.707031 276.25 210.273438 275.503906 210.769531 C 274.757812 211.265625 273.972656 211.6875 273.144531 212.03125 C 272.316406 212.371094 271.460938 212.632812 270.582031 212.804688 C 269.703125 212.980469 268.8125 213.066406 267.917969 213.066406 L 257.675781 213.066406 C 256.777344 213.066406 255.890625 212.980469 255.011719 212.804688 C 254.132812 212.632812 253.277344 212.371094 252.449219 212.03125 C 251.621094 211.6875 250.832031 211.265625 250.089844 210.769531 C 249.34375 210.273438 248.652344 209.707031 248.019531 209.074219 C 247.382812 208.441406 246.820312 207.753906 246.320312 207.007812 C 245.820312 206.261719 245.402344 205.476562 245.058594 204.648438 C 244.714844 203.824219 244.457031 202.96875 244.28125 202.09375 C 244.105469 201.214844 244.019531 200.328125 244.019531 199.433594 L 244.019531 189.203125 C 244.019531 188.308594 244.105469 187.421875 244.28125 186.542969 C 244.457031 185.667969 244.714844 184.8125 245.058594 183.984375 C 245.402344 183.160156 245.820312 182.371094 246.320312 181.628906 C 246.820312 180.882812 247.382812 180.195312 248.019531 179.5625 C 248.652344 178.929688 249.34375 178.363281 250.089844 177.867188 C 250.832031 177.367188 251.621094 176.949219 252.449219 176.605469 C 253.277344 176.261719 254.132812 176.003906 255.011719 175.832031 C 255.890625 175.65625 256.777344 175.566406 257.675781 175.566406 L 267.917969 175.566406 C 268.8125 175.566406 269.703125 175.65625 270.582031 175.832031 C 271.460938 176.003906 272.316406 176.261719 273.144531 176.605469 C 273.972656 176.949219 274.757812 177.367188 275.503906 177.867188 C 276.25 178.363281 276.9375 178.929688 277.574219 179.5625 C 278.207031 180.195312 278.773438 180.882812 279.273438 181.628906 C 279.769531 182.371094 280.191406 183.160156 280.535156 183.984375 C 280.875 184.8125 281.136719 185.667969 281.3125 186.542969 C 281.484375 187.421875 281.574219 188.308594 281.574219 189.203125 Z M 281.574219 199.433594 " fill-opacity="1" fill-rule="nonzero"/></g><g clip-path="url(#fb42829f94)"><path fill="#17ead9" d="M 146.71875 92.046875 L 78.4375 92.046875 C 77.769531 92.046875 77.097656 92.078125 76.429688 92.144531 C 75.761719 92.210938 75.101562 92.308594 74.441406 92.4375 C 73.785156 92.570312 73.132812 92.730469 72.492188 92.925781 C 71.851562 93.121094 71.21875 93.347656 70.601562 93.601562 C 69.980469 93.859375 69.375 94.144531 68.78125 94.460938 C 68.191406 94.777344 67.617188 95.121094 67.058594 95.492188 C 66.5 95.863281 65.960938 96.261719 65.445312 96.6875 C 64.925781 97.113281 64.429688 97.5625 63.953125 98.035156 C 63.480469 98.511719 63.03125 99.007812 62.605469 99.523438 C 62.179688 100.042969 61.78125 100.578125 61.40625 101.136719 C 61.035156 101.691406 60.691406 102.265625 60.375 102.859375 C 60.058594 103.449219 59.769531 104.054688 59.515625 104.671875 C 59.257812 105.292969 59.03125 105.921875 58.835938 106.5625 C 58.640625 107.203125 58.480469 107.851562 58.347656 108.507812 C 58.21875 109.167969 58.117188 109.828125 58.054688 110.496094 C 57.988281 111.160156 57.953125 111.828125 57.953125 112.5 L 57.953125 160.226562 C 57.953125 160.898438 57.988281 161.566406 58.054688 162.230469 C 58.117188 162.898438 58.21875 163.5625 58.347656 164.21875 C 58.480469 164.875 58.640625 165.523438 58.835938 166.164062 C 59.03125 166.804688 59.257812 167.4375 59.515625 168.054688 C 59.769531 168.671875 60.058594 169.277344 60.375 169.871094 C 60.691406 170.460938 61.035156 171.035156 61.40625 171.589844 C 61.78125 172.148438 62.179688 172.6875 62.605469 173.203125 C 63.03125 173.722656 63.480469 174.21875 63.953125 174.691406 C 64.429688 175.164062 64.925781 175.613281 65.445312 176.039062 C 65.960938 176.464844 66.5 176.863281 67.058594 177.234375 C 67.617188 177.605469 68.191406 177.949219 68.78125 178.265625 C 69.375 178.582031 69.980469 178.867188 70.601562 179.125 C 71.21875 179.382812 71.851562 179.605469 72.492188 179.800781 C 73.132812 179.996094 73.785156 180.15625 74.441406 180.289062 C 75.101562 180.417969 75.761719 180.519531 76.429688 180.582031 C 77.097656 180.648438 77.769531 180.683594 78.4375 180.683594 L 135.507812 180.683594 C 136.867188 180.6875 138.214844 180.824219 139.546875 181.09375 C 140.882812 181.363281 142.175781 181.761719 143.429688 182.289062 C 144.683594 182.816406 145.871094 183.460938 147 184.222656 C 148.125 184.984375 149.164062 185.851562 150.121094 186.816406 L 155.507812 192.273438 C 155.980469 192.753906 156.515625 193.15625 157.113281 193.480469 C 157.707031 193.804688 158.335938 194.035156 159 194.171875 C 159.664062 194.308594 160.332031 194.34375 161.007812 194.28125 C 161.679688 194.21875 162.332031 194.058594 162.957031 193.804688 C 163.585938 193.546875 164.160156 193.207031 164.6875 192.777344 C 165.210938 192.351562 165.664062 191.859375 166.042969 191.296875 C 166.417969 190.734375 166.707031 190.132812 166.90625 189.484375 C 167.101562 188.839844 167.203125 188.175781 167.203125 187.5 L 167.203125 112.5 C 167.203125 111.828125 167.171875 111.160156 167.105469 110.496094 C 167.039062 109.828125 166.941406 109.167969 166.808594 108.507812 C 166.679688 107.851562 166.515625 107.203125 166.320312 106.5625 C 166.125 105.921875 165.902344 105.292969 165.644531 104.671875 C 165.386719 104.054688 165.101562 103.449219 164.785156 102.859375 C 164.46875 102.265625 164.125 101.691406 163.75 101.136719 C 163.378906 100.578125 162.980469 100.042969 162.554688 99.523438 C 162.128906 99.007812 161.679688 98.511719 161.203125 98.035156 C 160.730469 97.5625 160.234375 97.113281 159.714844 96.6875 C 159.195312 96.261719 158.65625 95.863281 158.097656 95.492188 C 157.542969 95.121094 156.96875 94.777344 156.375 94.460938 C 155.785156 94.144531 155.179688 93.859375 154.558594 93.601562 C 153.9375 93.347656 153.308594 93.121094 152.664062 92.925781 C 152.023438 92.730469 151.375 92.570312 150.714844 92.4375 C 150.058594 92.308594 149.394531 92.210938 148.726562 92.144531 C 148.058594 92.078125 147.390625 92.046875 146.71875 92.046875 Z M 119.40625 153.410156 L 92.09375 153.410156 C 91.644531 153.410156 91.203125 153.367188 90.761719 153.277344 C 90.324219 153.191406 89.894531 153.0625 89.480469 152.890625 C 89.066406 152.71875 88.675781 152.507812 88.300781 152.261719 C 87.929688 152.011719 87.582031 151.730469 87.265625 151.410156 C 86.949219 151.09375 86.667969 150.75 86.417969 150.378906 C 86.167969 150.007812 85.957031 149.613281 85.785156 149.199219 C 85.613281 148.785156 85.484375 148.359375 85.398438 147.921875 C 85.308594 147.480469 85.265625 147.039062 85.265625 146.589844 C 85.265625 146.144531 85.308594 145.699219 85.398438 145.261719 C 85.484375 144.820312 85.613281 144.394531 85.785156 143.980469 C 85.957031 143.566406 86.167969 143.175781 86.417969 142.804688 C 86.667969 142.429688 86.949219 142.085938 87.265625 141.769531 C 87.582031 141.453125 87.929688 141.171875 88.300781 140.921875 C 88.675781 140.671875 89.066406 140.464844 89.480469 140.292969 C 89.894531 140.121094 90.324219 139.992188 90.761719 139.902344 C 91.203125 139.816406 91.644531 139.773438 92.09375 139.773438 L 119.40625 139.773438 C 119.855469 139.773438 120.300781 139.816406 120.738281 139.902344 C 121.179688 139.992188 121.605469 140.121094 122.019531 140.292969 C 122.433594 140.464844 122.828125 140.671875 123.199219 140.921875 C 123.574219 141.171875 123.917969 141.453125 124.234375 141.769531 C 124.550781 142.085938 124.835938 142.429688 125.085938 142.804688 C 125.332031 143.175781 125.542969 143.566406 125.714844 143.980469 C 125.886719 144.394531 126.015625 144.820312 126.105469 145.261719 C 126.191406 145.699219 126.234375 146.144531 126.234375 146.589844 C 126.234375 147.039062 126.191406 147.480469 126.105469 147.921875 C 126.015625 148.359375 125.886719 148.785156 125.714844 149.199219 C 125.542969 149.613281 125.332031 150.007812 125.085938 150.378906 C 124.835938 150.75 124.550781 151.09375 124.234375 151.410156 C 123.917969 151.730469 123.574219 152.011719 123.199219 152.261719 C 122.828125 152.507812 122.433594 152.71875 122.019531 152.890625 C 121.605469 153.0625 121.179688 153.191406 120.738281 153.277344 C 120.300781 153.367188 119.855469 153.410156 119.40625 153.410156 Z M 133.0625 132.953125 L 92.09375 132.953125 C 91.644531 132.953125 91.203125 132.910156 90.761719 132.824219 C 90.324219 132.734375 89.894531 132.605469 89.480469 132.433594 C 89.066406 132.265625 88.675781 132.054688 88.300781 131.804688 C 87.929688 131.558594 87.582031 131.273438 87.265625 130.957031 C 86.949219 130.640625 86.667969 130.296875 86.417969 129.925781 C 86.167969 129.550781 85.957031 129.160156 85.785156 128.746094 C 85.613281 128.332031 85.484375 127.90625 85.398438 127.464844 C 85.308594 127.027344 85.265625 126.585938 85.265625 126.136719 C 85.265625 125.6875 85.308594 125.246094 85.398438 124.804688 C 85.484375 124.367188 85.613281 123.941406 85.785156 123.527344 C 85.957031 123.113281 86.167969 122.71875 86.417969 122.347656 C 86.667969 121.976562 86.949219 121.632812 87.265625 121.316406 C 87.582031 121 87.929688 120.714844 88.300781 120.46875 C 88.675781 120.21875 89.066406 120.007812 89.480469 119.835938 C 89.894531 119.664062 90.324219 119.535156 90.761719 119.449219 C 91.203125 119.363281 91.644531 119.316406 92.09375 119.316406 L 133.0625 119.316406 C 133.511719 119.316406 133.957031 119.363281 134.394531 119.449219 C 134.835938 119.535156 135.261719 119.664062 135.675781 119.835938 C 136.089844 120.007812 136.484375 120.21875 136.855469 120.46875 C 137.230469 120.714844 137.574219 121 137.890625 121.316406 C 138.207031 121.632812 138.492188 121.976562 138.742188 122.347656 C 138.988281 122.71875 139.199219 123.113281 139.371094 123.527344 C 139.542969 123.941406 139.671875 124.367188 139.761719 124.804688 C 139.847656 125.246094 139.890625 125.6875 139.890625 126.136719 C 139.890625 126.585938 139.847656 127.027344 139.761719 127.464844 C 139.671875 127.90625 139.542969 128.332031 139.371094 128.746094 C 139.199219 129.160156 138.988281 129.550781 138.742188 129.925781 C 138.492188 130.296875 138.207031 130.640625 137.890625 130.957031 C 137.574219 131.273438 137.230469 131.558594 136.855469 131.804688 C 136.484375 132.054688 136.089844 132.265625 135.675781 132.433594 C 135.261719 132.605469 134.835938 132.734375 134.394531 132.824219 C 133.957031 132.910156 133.511719 132.953125 133.0625 132.953125 Z M 133.0625 132.953125 " fill-opacity="1" fill-rule="nonzero"/></g></svg>