<svg xmlns="http://www.w3.org/2000/svg" xmlns:xlink="http://www.w3.org/1999/xlink" width="500" zoomAndPan="magnify" viewBox="0 0 375 374.999991" height="500" preserveAspectRatio="xMidYMid meet" version="1.0"><defs><clipPath id="fa8f941caa"><path d="M 126 41 L 337.5 41 L 337.5 91 L 126 91 Z M 126 41 " clip-rule="nonzero"/></clipPath><clipPath id="ea8f250ae2"><path d="M 126 122 L 337.5 122 L 337.5 172 L 126 172 Z M 126 122 " clip-rule="nonzero"/></clipPath><clipPath id="9b0c3989ec"><path d="M 126 203 L 337.5 203 L 337.5 253 L 126 253 Z M 126 203 " clip-rule="nonzero"/></clipPath><clipPath id="4212b0fbec"><path d="M 126.136719 284 L 337.5 284 L 337.5 333.46875 L 126.136719 333.46875 Z M 126.136719 284 " clip-rule="nonzero"/></clipPath><clipPath id="a2ef52bfda"><path d="M 37.5 41 L 103 41 L 103 91 L 37.5 91 Z M 37.5 41 " clip-rule="nonzero"/></clipPath><clipPath id="7480d635f8"><path d="M 37.5 122 L 103 122 L 103 172 L 37.5 172 Z M 37.5 122 " clip-rule="nonzero"/></clipPath><clipPath id="660543aeb7"><path d="M 37.5 203 L 103 203 L 103 253 L 37.5 253 Z M 37.5 203 " clip-rule="nonzero"/></clipPath><clipPath id="d8b01554fc"><path d="M 37.5 284 L 103 284 L 103 333.46875 L 37.5 333.46875 Z M 37.5 284 " clip-rule="nonzero"/></clipPath></defs><g clip-path="url(#fa8f941caa)"><path fill="#17ead9" d="M 313.183594 90.222656 L 151.011719 90.222656 C 137.589844 90.222656 126.695312 79.332031 126.695312 65.90625 C 126.695312 52.457031 137.589844 41.5625 151.011719 41.5625 L 313.183594 41.5625 C 326.605469 41.5625 337.5 52.457031 337.5 65.90625 C 337.5 79.332031 326.605469 90.222656 313.183594 90.222656 " fill-opacity="1" fill-rule="nonzero"/></g><g clip-path="url(#ea8f250ae2)"><path fill="#17ead9" d="M 313.183594 171.324219 L 151.011719 171.324219 C 137.589844 171.324219 126.695312 160.429688 126.695312 146.980469 C 126.695312 133.554688 137.589844 122.664062 151.011719 122.664062 L 313.183594 122.664062 C 326.605469 122.664062 337.5 133.554688 337.5 146.980469 C 337.5 160.429688 326.605469 171.324219 313.183594 171.324219 " fill-opacity="1" fill-rule="nonzero"/></g><g clip-path="url(#9b0c3989ec)"><path fill="#17ead9" d="M 313.183594 252.394531 L 151.011719 252.394531 C 137.589844 252.394531 126.695312 241.503906 126.695312 228.050781 C 126.695312 214.628906 137.589844 203.734375 151.011719 203.734375 L 313.183594 203.734375 C 326.605469 203.734375 337.5 214.628906 337.5 228.050781 C 337.5 241.503906 326.605469 252.394531 313.183594 252.394531 " fill-opacity="1" fill-rule="nonzero"/></g><g clip-path="url(#4212b0fbec)"><path fill="#17ead9" d="M 313.183594 333.46875 L 151.011719 333.46875 C 137.589844 333.46875 126.695312 322.574219 126.695312 309.152344 C 126.695312 295.703125 137.589844 284.835938 151.011719 284.835938 L 313.183594 284.835938 C 326.605469 284.835938 337.5 295.703125 337.5 309.152344 C 337.5 322.574219 326.605469 333.46875 313.183594 333.46875 " fill-opacity="1" fill-rule="nonzero"/></g><g clip-path="url(#a2ef52bfda)"><path fill="#17ead9" d="M 78.035156 90.222656 L 61.816406 90.222656 C 48.394531 90.222656 37.5 79.332031 37.5 65.90625 C 37.5 52.457031 48.394531 41.5625 61.816406 41.5625 L 78.035156 41.5625 C 91.484375 41.5625 102.351562 52.457031 102.351562 65.90625 C 102.351562 79.332031 91.460938 90.222656 78.035156 90.222656 " fill-opacity="1" fill-rule="nonzero"/></g><g clip-path="url(#7480d635f8)"><path fill="#17ead9" d="M 78.035156 171.324219 L 61.816406 171.324219 C 48.394531 171.324219 37.5 160.429688 37.5 146.980469 C 37.5 133.554688 48.394531 122.664062 61.816406 122.664062 L 78.035156 122.664062 C 91.484375 122.664062 102.351562 133.554688 102.351562 146.980469 C 102.351562 160.429688 91.460938 171.324219 78.035156 171.324219 " fill-opacity="1" fill-rule="nonzero"/></g><g clip-path="url(#660543aeb7)"><path fill="#17ead9" d="M 78.035156 252.394531 L 61.816406 252.394531 C 48.394531 252.394531 37.5 241.503906 37.5 228.050781 C 37.5 214.628906 48.394531 203.734375 61.816406 203.734375 L 78.035156 203.734375 C 91.484375 203.734375 102.351562 214.628906 102.351562 228.050781 C 102.351562 241.503906 91.460938 252.394531 78.035156 252.394531 " fill-opacity="1" fill-rule="nonzero"/></g><g clip-path="url(#d8b01554fc)"><path fill="#17ead9" d="M 78.035156 333.46875 L 61.816406 333.46875 C 48.394531 333.46875 37.5 322.574219 37.5 309.152344 C 37.5 295.703125 48.394531 284.835938 61.816406 284.835938 L 78.035156 284.835938 C 91.484375 284.835938 102.351562 295.703125 102.351562 309.152344 C 102.351562 322.574219 91.460938 333.46875 78.035156 333.46875 " fill-opacity="1" fill-rule="nonzero"/></g></svg>