<svg xmlns="http://www.w3.org/2000/svg" xmlns:xlink="http://www.w3.org/1999/xlink" width="500" zoomAndPan="magnify" viewBox="0 0 375 374.999991" height="500" preserveAspectRatio="xMidYMid meet" version="1.0"><defs><clipPath id="15a5dd686b"><path d="M 296 98 L 337.5 98 L 337.5 310.6875 L 296 310.6875 Z M 296 98 " clip-rule="nonzero"/></clipPath><clipPath id="4428ec9b72"><path d="M 37.5 64.6875 L 290 64.6875 L 290 310.6875 L 37.5 310.6875 Z M 37.5 64.6875 " clip-rule="nonzero"/></clipPath></defs><g clip-path="url(#15a5dd686b)"><path fill="#17ead9" d="M 317.046875 98.914062 L 296.589844 98.914062 L 296.589844 290.117188 C 296.589844 290.789062 296.625 291.457031 296.6875 292.125 C 296.753906 292.792969 296.851562 293.453125 296.984375 294.113281 C 297.113281 294.769531 297.277344 295.421875 297.472656 296.0625 C 297.667969 296.707031 297.890625 297.335938 298.148438 297.957031 C 298.402344 298.574219 298.691406 299.179688 299.007812 299.773438 C 299.320312 300.363281 299.664062 300.941406 300.039062 301.496094 C 300.410156 302.054688 300.808594 302.59375 301.234375 303.113281 C 301.660156 303.632812 302.109375 304.128906 302.582031 304.601562 C 303.054688 305.078125 303.550781 305.527344 304.070312 305.953125 C 304.585938 306.378906 305.125 306.777344 305.679688 307.148438 C 306.238281 307.523438 306.8125 307.867188 307.402344 308.183594 C 307.992188 308.5 308.597656 308.785156 309.21875 309.042969 C 309.835938 309.300781 310.464844 309.523438 311.109375 309.71875 C 311.75 309.914062 312.398438 310.078125 313.054688 310.207031 C 313.710938 310.339844 314.375 310.4375 315.039062 310.503906 C 315.707031 310.570312 316.375 310.601562 317.046875 310.601562 C 317.714844 310.601562 318.382812 310.570312 319.050781 310.503906 C 319.71875 310.4375 320.378906 310.339844 321.035156 310.207031 C 321.691406 310.078125 322.34375 309.914062 322.984375 309.71875 C 323.625 309.523438 324.253906 309.300781 324.871094 309.042969 C 325.492188 308.785156 326.097656 308.5 326.6875 308.183594 C 327.277344 307.867188 327.851562 307.523438 328.410156 307.148438 C 328.964844 306.777344 329.503906 306.378906 330.023438 305.953125 C 330.539062 305.527344 331.035156 305.078125 331.507812 304.601562 C 331.984375 304.128906 332.433594 303.632812 332.855469 303.113281 C 333.28125 302.59375 333.679688 302.054688 334.054688 301.496094 C 334.425781 300.941406 334.769531 300.363281 335.085938 299.773438 C 335.402344 299.179688 335.6875 298.574219 335.941406 297.957031 C 336.199219 297.335938 336.425781 296.707031 336.621094 296.0625 C 336.8125 295.421875 336.976562 294.769531 337.105469 294.113281 C 337.238281 293.453125 337.335938 292.792969 337.402344 292.125 C 337.46875 291.457031 337.5 290.789062 337.5 290.117188 L 337.5 119.402344 C 337.5 118.730469 337.46875 118.0625 337.402344 117.394531 C 337.335938 116.726562 337.238281 116.0625 337.105469 115.40625 C 336.976562 114.746094 336.8125 114.097656 336.621094 113.453125 C 336.425781 112.8125 336.199219 112.183594 335.941406 111.5625 C 335.6875 110.941406 335.402344 110.335938 335.085938 109.746094 C 334.769531 109.152344 334.425781 108.578125 334.054688 108.019531 C 333.679688 107.460938 333.28125 106.925781 332.855469 106.40625 C 332.433594 105.886719 331.984375 105.390625 331.507812 104.914062 C 331.035156 104.441406 330.539062 103.992188 330.023438 103.566406 C 329.503906 103.140625 328.964844 102.742188 328.410156 102.367188 C 327.851562 101.996094 327.277344 101.652344 326.6875 101.335938 C 326.097656 101.019531 325.492188 100.730469 324.871094 100.476562 C 324.253906 100.21875 323.625 99.992188 322.984375 99.796875 C 322.34375 99.601562 321.691406 99.441406 321.035156 99.308594 C 320.378906 99.179688 319.71875 99.082031 319.050781 99.015625 C 318.382812 98.949219 317.714844 98.914062 317.046875 98.914062 Z M 317.046875 98.914062 " fill-opacity="1" fill-rule="nonzero"/></g><path fill="#17ead9" d="M 78.410156 126.230469 L 139.773438 126.230469 L 139.773438 180.859375 L 78.410156 180.859375 Z M 78.410156 126.230469 " fill-opacity="1" fill-rule="nonzero"/><g clip-path="url(#4428ec9b72)"><path fill="#17ead9" d="M 282.953125 290.117188 L 282.953125 92.085938 C 282.953125 91.191406 282.910156 90.300781 282.824219 89.410156 C 282.734375 88.519531 282.605469 87.636719 282.429688 86.757812 C 282.257812 85.882812 282.039062 85.015625 281.78125 84.160156 C 281.519531 83.300781 281.21875 82.460938 280.878906 81.632812 C 280.535156 80.808594 280.15625 80 279.734375 79.210938 C 279.3125 78.421875 278.855469 77.65625 278.359375 76.914062 C 277.863281 76.167969 277.332031 75.449219 276.765625 74.757812 C 276.195312 74.066406 275.597656 73.40625 274.964844 72.773438 C 274.335938 72.140625 273.675781 71.539062 272.984375 70.972656 C 272.292969 70.40625 271.578125 69.875 270.832031 69.375 C 270.089844 68.878906 269.324219 68.417969 268.539062 68 C 267.75 67.578125 266.945312 67.195312 266.117188 66.851562 C 265.292969 66.507812 264.453125 66.207031 263.597656 65.949219 C 262.742188 65.6875 261.878906 65.472656 261.003906 65.296875 C 260.125 65.125 259.242188 64.992188 258.355469 64.90625 C 257.464844 64.816406 256.574219 64.773438 255.683594 64.773438 L 64.773438 64.773438 C 63.878906 64.773438 62.988281 64.816406 62.097656 64.90625 C 61.210938 64.992188 60.328125 65.125 59.453125 65.296875 C 58.574219 65.472656 57.710938 65.6875 56.855469 65.949219 C 56 66.207031 55.160156 66.507812 54.335938 66.851562 C 53.511719 67.195312 52.703125 67.578125 51.917969 68 C 51.128906 68.417969 50.363281 68.878906 49.621094 69.375 C 48.878906 69.875 48.160156 70.40625 47.472656 70.972656 C 46.78125 71.539062 46.121094 72.140625 45.488281 72.773438 C 44.855469 73.40625 44.257812 74.066406 43.691406 74.757812 C 43.125 75.449219 42.59375 76.167969 42.097656 76.914062 C 41.601562 77.65625 41.140625 78.421875 40.71875 79.210938 C 40.300781 80 39.917969 80.808594 39.574219 81.632812 C 39.234375 82.460938 38.933594 83.300781 38.675781 84.160156 C 38.414062 85.015625 38.199219 85.882812 38.023438 86.757812 C 37.851562 87.636719 37.71875 88.519531 37.632812 89.410156 C 37.542969 90.300781 37.5 91.191406 37.5 92.085938 L 37.5 290.117188 C 37.5 290.789062 37.53125 291.457031 37.597656 292.125 C 37.664062 292.792969 37.761719 293.453125 37.894531 294.113281 C 38.023438 294.769531 38.1875 295.421875 38.378906 296.0625 C 38.574219 296.707031 38.800781 297.335938 39.058594 297.957031 C 39.3125 298.574219 39.597656 299.179688 39.914062 299.773438 C 40.230469 300.363281 40.574219 300.941406 40.945312 301.496094 C 41.320312 302.054688 41.71875 302.59375 42.144531 303.113281 C 42.566406 303.632812 43.015625 304.128906 43.492188 304.601562 C 43.964844 305.078125 44.460938 305.527344 44.976562 305.953125 C 45.496094 306.378906 46.035156 306.777344 46.589844 307.148438 C 47.148438 307.523438 47.722656 307.867188 48.3125 308.183594 C 48.902344 308.5 49.507812 308.785156 50.125 309.042969 C 50.746094 309.300781 51.375 309.523438 52.015625 309.71875 C 52.65625 309.914062 53.308594 310.078125 53.964844 310.207031 C 54.621094 310.339844 55.28125 310.4375 55.949219 310.503906 C 56.617188 310.570312 57.285156 310.601562 57.953125 310.601562 L 289.949219 310.601562 C 287.695312 307.664062 285.96875 304.441406 284.769531 300.9375 C 283.570312 297.429688 282.96875 293.824219 282.953125 290.117188 Z M 64.773438 126.230469 C 64.773438 125.332031 64.859375 124.445312 65.035156 123.566406 C 65.210938 122.6875 65.46875 121.832031 65.8125 121.003906 C 66.152344 120.175781 66.574219 119.386719 67.070312 118.644531 C 67.566406 117.898438 68.132812 117.207031 68.765625 116.574219 C 69.398438 115.9375 70.089844 115.371094 70.832031 114.875 C 71.578125 114.375 72.363281 113.957031 73.191406 113.613281 C 74.019531 113.269531 74.871094 113.011719 75.75 112.835938 C 76.625 112.660156 77.515625 112.574219 78.410156 112.574219 L 139.773438 112.574219 C 140.667969 112.574219 141.554688 112.660156 142.433594 112.835938 C 143.3125 113.011719 144.164062 113.269531 144.992188 113.613281 C 145.816406 113.957031 146.605469 114.375 147.347656 114.875 C 148.09375 115.371094 148.78125 115.9375 149.414062 116.574219 C 150.046875 117.207031 150.613281 117.898438 151.109375 118.644531 C 151.609375 119.386719 152.027344 120.175781 152.371094 121.003906 C 152.714844 121.832031 152.972656 122.6875 153.148438 123.566406 C 153.320312 124.445312 153.410156 125.332031 153.410156 126.230469 L 153.410156 180.859375 C 153.410156 181.753906 153.320312 182.644531 153.148438 183.523438 C 152.972656 184.402344 152.714844 185.257812 152.371094 186.085938 C 152.027344 186.914062 151.609375 187.699219 151.109375 188.445312 C 150.613281 189.191406 150.046875 189.882812 149.414062 190.515625 C 148.78125 191.148438 148.09375 191.714844 147.347656 192.214844 C 146.605469 192.710938 145.816406 193.132812 144.992188 193.476562 C 144.164062 193.820312 143.3125 194.078125 142.433594 194.253906 C 141.554688 194.429688 140.667969 194.515625 139.773438 194.515625 L 78.410156 194.515625 C 77.515625 194.515625 76.625 194.429688 75.75 194.253906 C 74.871094 194.078125 74.019531 193.820312 73.191406 193.476562 C 72.363281 193.132812 71.578125 192.710938 70.832031 192.214844 C 70.089844 191.714844 69.398438 191.148438 68.765625 190.515625 C 68.132812 189.882812 67.566406 189.191406 67.070312 188.445312 C 66.574219 187.699219 66.152344 186.914062 65.8125 186.085938 C 65.46875 185.257812 65.210938 184.402344 65.035156 183.523438 C 64.859375 182.644531 64.773438 181.753906 64.773438 180.859375 Z M 248.863281 262.800781 L 71.589844 262.800781 C 71.144531 262.800781 70.699219 262.757812 70.261719 262.671875 C 69.820312 262.582031 69.394531 262.453125 68.980469 262.28125 C 68.566406 262.109375 68.175781 261.898438 67.804688 261.652344 C 67.429688 261.402344 67.085938 261.117188 66.769531 260.800781 C 66.453125 260.484375 66.171875 260.140625 65.921875 259.765625 C 65.671875 259.394531 65.464844 259 65.292969 258.585938 C 65.121094 258.171875 64.992188 257.746094 64.902344 257.304688 C 64.816406 256.867188 64.773438 256.421875 64.773438 255.972656 C 64.773438 255.523438 64.816406 255.082031 64.902344 254.640625 C 64.992188 254.203125 65.121094 253.773438 65.292969 253.359375 C 65.464844 252.945312 65.671875 252.550781 65.921875 252.179688 C 66.171875 251.808594 66.453125 251.460938 66.769531 251.144531 C 67.085938 250.828125 67.429688 250.542969 67.804688 250.296875 C 68.175781 250.046875 68.566406 249.835938 68.980469 249.664062 C 69.394531 249.492188 69.820312 249.363281 70.261719 249.277344 C 70.699219 249.1875 71.144531 249.144531 71.589844 249.144531 L 248.863281 249.144531 C 249.3125 249.144531 249.753906 249.1875 250.195312 249.277344 C 250.632812 249.363281 251.058594 249.492188 251.472656 249.664062 C 251.886719 249.835938 252.28125 250.046875 252.652344 250.296875 C 253.023438 250.542969 253.367188 250.828125 253.683594 251.144531 C 254 251.460938 254.285156 251.808594 254.53125 252.179688 C 254.78125 252.550781 254.992188 252.945312 255.164062 253.359375 C 255.335938 253.773438 255.464844 254.203125 255.550781 254.640625 C 255.636719 255.082031 255.683594 255.523438 255.683594 255.972656 C 255.683594 256.421875 255.636719 256.867188 255.550781 257.304688 C 255.464844 257.746094 255.335938 258.171875 255.164062 258.585938 C 254.992188 259 254.78125 259.394531 254.53125 259.765625 C 254.285156 260.140625 254 260.484375 253.683594 260.800781 C 253.367188 261.117188 253.023438 261.402344 252.652344 261.652344 C 252.28125 261.898438 251.886719 262.109375 251.472656 262.28125 C 251.058594 262.453125 250.632812 262.582031 250.195312 262.671875 C 249.753906 262.757812 249.3125 262.800781 248.863281 262.800781 Z M 248.863281 228.660156 L 71.589844 228.660156 C 71.144531 228.660156 70.699219 228.617188 70.261719 228.527344 C 69.820312 228.441406 69.394531 228.3125 68.980469 228.140625 C 68.566406 227.96875 68.175781 227.757812 67.804688 227.507812 C 67.429688 227.257812 67.085938 226.976562 66.769531 226.660156 C 66.453125 226.34375 66.171875 225.996094 65.921875 225.625 C 65.671875 225.25 65.464844 224.859375 65.292969 224.445312 C 65.121094 224.03125 64.992188 223.601562 64.902344 223.164062 C 64.816406 222.722656 64.773438 222.277344 64.773438 221.832031 C 64.773438 221.382812 64.816406 220.9375 64.902344 220.5 C 64.992188 220.058594 65.121094 219.632812 65.292969 219.21875 C 65.464844 218.804688 65.671875 218.410156 65.921875 218.035156 C 66.171875 217.664062 66.453125 217.320312 66.769531 217 C 67.085938 216.683594 67.429688 216.402344 67.804688 216.152344 C 68.175781 215.902344 68.566406 215.691406 68.980469 215.523438 C 69.394531 215.351562 69.820312 215.21875 70.261719 215.132812 C 70.699219 215.046875 71.144531 215 71.589844 215 L 248.863281 215 C 249.3125 215 249.753906 215.046875 250.195312 215.132812 C 250.632812 215.21875 251.058594 215.351562 251.472656 215.523438 C 251.886719 215.691406 252.28125 215.902344 252.652344 216.152344 C 253.023438 216.402344 253.367188 216.683594 253.683594 217 C 254 217.320312 254.285156 217.664062 254.53125 218.035156 C 254.78125 218.410156 254.992188 218.804688 255.164062 219.21875 C 255.335938 219.632812 255.464844 220.058594 255.550781 220.5 C 255.636719 220.9375 255.683594 221.382812 255.683594 221.832031 C 255.683594 222.277344 255.636719 222.722656 255.550781 223.164062 C 255.464844 223.601562 255.335938 224.03125 255.164062 224.445312 C 254.992188 224.859375 254.78125 225.25 254.53125 225.625 C 254.285156 225.996094 254 226.34375 253.683594 226.660156 C 253.367188 226.976562 253.023438 227.257812 252.652344 227.507812 C 252.28125 227.757812 251.886719 227.96875 251.472656 228.140625 C 251.058594 228.3125 250.632812 228.441406 250.195312 228.527344 C 249.753906 228.617188 249.3125 228.660156 248.863281 228.660156 Z M 248.863281 194.515625 L 180.683594 194.515625 C 180.234375 194.515625 179.789062 194.472656 179.351562 194.386719 C 178.914062 194.296875 178.484375 194.167969 178.074219 193.996094 C 177.660156 193.824219 177.265625 193.613281 176.894531 193.363281 C 176.523438 193.117188 176.175781 192.832031 175.859375 192.515625 C 175.542969 192.199219 175.261719 191.855469 175.011719 191.480469 C 174.765625 191.109375 174.554688 190.714844 174.382812 190.300781 C 174.210938 189.886719 174.082031 189.460938 173.996094 189.019531 C 173.90625 188.578125 173.863281 188.136719 173.863281 187.6875 C 173.863281 187.238281 173.90625 186.796875 173.996094 186.355469 C 174.082031 185.914062 174.210938 185.488281 174.382812 185.074219 C 174.554688 184.660156 174.765625 184.265625 175.011719 183.894531 C 175.261719 183.519531 175.542969 183.175781 175.859375 182.859375 C 176.175781 182.542969 176.523438 182.257812 176.894531 182.007812 C 177.265625 181.761719 177.660156 181.550781 178.074219 181.378906 C 178.484375 181.207031 178.914062 181.078125 179.351562 180.988281 C 179.789062 180.902344 180.234375 180.859375 180.683594 180.859375 L 248.863281 180.859375 C 249.3125 180.859375 249.753906 180.902344 250.195312 180.988281 C 250.632812 181.078125 251.058594 181.207031 251.472656 181.378906 C 251.886719 181.550781 252.28125 181.761719 252.652344 182.007812 C 253.023438 182.257812 253.367188 182.542969 253.683594 182.859375 C 254 183.175781 254.285156 183.519531 254.53125 183.894531 C 254.78125 184.265625 254.992188 184.660156 255.164062 185.074219 C 255.335938 185.488281 255.464844 185.914062 255.550781 186.355469 C 255.636719 186.796875 255.683594 187.238281 255.683594 187.6875 C 255.683594 188.136719 255.636719 188.578125 255.550781 189.019531 C 255.464844 189.460938 255.335938 189.886719 255.164062 190.300781 C 254.992188 190.714844 254.78125 191.109375 254.53125 191.480469 C 254.285156 191.855469 254 192.199219 253.683594 192.515625 C 253.367188 192.832031 253.023438 193.117188 252.652344 193.363281 C 252.28125 193.613281 251.886719 193.824219 251.472656 193.996094 C 251.058594 194.167969 250.632812 194.296875 250.195312 194.386719 C 249.753906 194.472656 249.3125 194.515625 248.863281 194.515625 Z M 248.863281 160.375 L 180.683594 160.375 C 180.234375 160.375 179.789062 160.328125 179.351562 160.242188 C 178.914062 160.15625 178.484375 160.023438 178.074219 159.851562 C 177.660156 159.683594 177.265625 159.472656 176.894531 159.222656 C 176.523438 158.972656 176.175781 158.691406 175.859375 158.375 C 175.542969 158.054688 175.261719 157.710938 175.011719 157.339844 C 174.765625 156.964844 174.554688 156.570312 174.382812 156.15625 C 174.210938 155.742188 174.082031 155.316406 173.996094 154.875 C 173.90625 154.4375 173.863281 153.992188 173.863281 153.542969 C 173.863281 153.097656 173.90625 152.652344 173.996094 152.210938 C 174.082031 151.773438 174.210938 151.34375 174.382812 150.929688 C 174.554688 150.515625 174.765625 150.125 175.011719 149.75 C 175.261719 149.378906 175.542969 149.03125 175.859375 148.714844 C 176.175781 148.398438 176.523438 148.117188 176.894531 147.867188 C 177.265625 147.617188 177.660156 147.40625 178.074219 147.234375 C 178.484375 147.0625 178.914062 146.933594 179.351562 146.847656 C 179.789062 146.757812 180.234375 146.714844 180.683594 146.714844 L 248.863281 146.714844 C 249.3125 146.714844 249.753906 146.757812 250.195312 146.847656 C 250.632812 146.933594 251.058594 147.0625 251.472656 147.234375 C 251.886719 147.40625 252.28125 147.617188 252.652344 147.867188 C 253.023438 148.117188 253.367188 148.398438 253.683594 148.714844 C 254 149.03125 254.285156 149.378906 254.53125 149.75 C 254.78125 150.125 254.992188 150.515625 255.164062 150.929688 C 255.335938 151.34375 255.464844 151.773438 255.550781 152.210938 C 255.636719 152.652344 255.683594 153.097656 255.683594 153.542969 C 255.683594 153.992188 255.636719 154.4375 255.550781 154.875 C 255.464844 155.316406 255.335938 155.742188 255.164062 156.15625 C 254.992188 156.570312 254.78125 156.964844 254.53125 157.339844 C 254.285156 157.710938 254 158.054688 253.683594 158.375 C 253.367188 158.691406 253.023438 158.972656 252.652344 159.222656 C 252.28125 159.472656 251.886719 159.683594 251.472656 159.851562 C 251.058594 160.023438 250.632812 160.15625 250.195312 160.242188 C 249.753906 160.328125 249.3125 160.375 248.863281 160.375 Z M 248.863281 126.230469 L 180.683594 126.230469 C 180.234375 126.230469 179.789062 126.1875 179.351562 126.097656 C 178.914062 126.011719 178.484375 125.882812 178.074219 125.710938 C 177.660156 125.539062 177.265625 125.328125 176.894531 125.078125 C 176.523438 124.832031 176.175781 124.546875 175.859375 124.230469 C 175.542969 123.914062 175.261719 123.566406 175.011719 123.195312 C 174.765625 122.824219 174.554688 122.429688 174.382812 122.015625 C 174.210938 121.601562 174.082031 121.171875 173.996094 120.734375 C 173.90625 120.292969 173.863281 119.851562 173.863281 119.402344 C 173.863281 118.953125 173.90625 118.507812 173.996094 118.070312 C 174.082031 117.628906 174.210938 117.203125 174.382812 116.789062 C 174.554688 116.375 174.765625 115.980469 175.011719 115.609375 C 175.261719 115.234375 175.542969 114.890625 175.859375 114.574219 C 176.175781 114.257812 176.523438 113.972656 176.894531 113.722656 C 177.265625 113.476562 177.660156 113.265625 178.074219 113.09375 C 178.484375 112.921875 178.914062 112.792969 179.351562 112.703125 C 179.789062 112.617188 180.234375 112.574219 180.683594 112.574219 L 248.863281 112.574219 C 249.3125 112.574219 249.753906 112.617188 250.195312 112.703125 C 250.632812 112.792969 251.058594 112.921875 251.472656 113.09375 C 251.886719 113.265625 252.28125 113.476562 252.652344 113.722656 C 253.023438 113.972656 253.367188 114.257812 253.683594 114.574219 C 254 114.890625 254.285156 115.234375 254.53125 115.609375 C 254.78125 115.980469 254.992188 116.375 255.164062 116.789062 C 255.335938 117.203125 255.464844 117.628906 255.550781 118.070312 C 255.636719 118.507812 255.683594 118.953125 255.683594 119.402344 C 255.683594 119.851562 255.636719 120.292969 255.550781 120.734375 C 255.464844 121.171875 255.335938 121.601562 255.164062 122.015625 C 254.992188 122.429688 254.78125 122.824219 254.53125 123.195312 C 254.285156 123.566406 254 123.914062 253.683594 124.230469 C 253.367188 124.546875 253.023438 124.832031 252.652344 125.078125 C 252.28125 125.328125 251.886719 125.539062 251.472656 125.710938 C 251.058594 125.882812 250.632812 126.011719 250.195312 126.097656 C 249.753906 126.1875 249.3125 126.230469 248.863281 126.230469 Z M 248.863281 126.230469 " fill-opacity="1" fill-rule="nonzero"/></g></svg>