<svg xmlns="http://www.w3.org/2000/svg" xmlns:xlink="http://www.w3.org/1999/xlink" width="500" zoomAndPan="magnify" viewBox="0 0 375 374.999991" height="500" preserveAspectRatio="xMidYMid meet" version="1.0"><defs><clipPath id="93dc99eb0b"><path d="M 37.5 107 L 337 107 L 337 324 L 37.5 324 Z M 37.5 107 " clip-rule="nonzero"/></clipPath><clipPath id="195b0d05a9"><path d="M 79 51.1875 L 295 51.1875 L 295 129 L 79 129 Z M 79 51.1875 " clip-rule="nonzero"/></clipPath></defs><path fill="#17ead9" d="M 249.398438 215.542969 C 249.398438 216.460938 249.308594 217.363281 249.128906 218.261719 C 248.953125 219.160156 248.6875 220.03125 248.339844 220.875 C 247.988281 221.71875 247.558594 222.523438 247.054688 223.28125 C 246.546875 224.042969 245.96875 224.746094 245.324219 225.394531 C 244.675781 226.039062 243.972656 226.617188 243.214844 227.125 C 242.457031 227.632812 241.652344 228.0625 240.808594 228.414062 C 239.964844 228.761719 239.097656 229.027344 238.199219 229.207031 C 237.304688 229.382812 236.402344 229.472656 235.488281 229.472656 C 234.574219 229.472656 233.667969 229.382812 232.773438 229.207031 C 231.878906 229.027344 231.007812 228.761719 230.164062 228.414062 C 229.320312 228.0625 228.519531 227.632812 227.761719 227.125 C 227 226.617188 226.296875 226.039062 225.652344 225.394531 C 225.007812 224.746094 224.429688 224.042969 223.921875 223.28125 C 223.414062 222.523438 222.988281 221.71875 222.636719 220.875 C 222.289062 220.03125 222.023438 219.160156 221.84375 218.261719 C 221.667969 217.363281 221.578125 216.460938 221.578125 215.542969 C 221.578125 214.628906 221.667969 213.722656 221.84375 212.828125 C 222.023438 211.929688 222.289062 211.058594 222.636719 210.214844 C 222.988281 209.371094 223.414062 208.566406 223.921875 207.804688 C 224.429688 207.046875 225.007812 206.34375 225.652344 205.695312 C 226.296875 205.050781 227 204.472656 227.761719 203.964844 C 228.519531 203.457031 229.320312 203.027344 230.164062 202.675781 C 231.007812 202.328125 231.878906 202.0625 232.773438 201.882812 C 233.667969 201.707031 234.574219 201.617188 235.488281 201.617188 C 236.402344 201.617188 237.304688 201.707031 238.199219 201.882812 C 239.097656 202.0625 239.964844 202.328125 240.808594 202.675781 C 241.652344 203.027344 242.457031 203.457031 243.214844 203.964844 C 243.972656 204.472656 244.675781 205.050781 245.324219 205.695312 C 245.96875 206.34375 246.546875 207.046875 247.054688 207.804688 C 247.558594 208.566406 247.988281 209.371094 248.339844 210.214844 C 248.6875 211.058594 248.953125 211.929688 249.128906 212.828125 C 249.308594 213.722656 249.398438 214.628906 249.398438 215.542969 Z M 249.398438 215.542969 " fill-opacity="1" fill-rule="nonzero"/><path fill="#17ead9" d="M 221.578125 173.757812 C 221.578125 166.070312 227.808594 159.832031 235.488281 159.832031 C 243.164062 159.832031 249.398438 166.070312 249.398438 173.757812 C 249.398438 181.449219 243.164062 187.6875 235.488281 187.6875 C 227.808594 187.6875 221.578125 181.449219 221.578125 173.757812 Z M 221.578125 173.757812 " fill-opacity="1" fill-rule="evenodd"/><path fill="#17ead9" d="M 264.667969 182.589844 C 271.316406 178.746094 279.832031 181.03125 283.667969 187.6875 C 287.507812 194.34375 285.226562 202.871094 278.578125 206.714844 C 271.929688 210.558594 263.417969 208.273438 259.578125 201.617188 C 255.738281 194.957031 258.019531 186.433594 264.667969 182.589844 Z M 264.667969 182.589844 " fill-opacity="1" fill-rule="evenodd"/><path fill="#17ead9" d="M 264.667969 248.5 C 271.316406 252.34375 279.832031 250.058594 283.667969 243.402344 C 287.507812 236.742188 285.226562 228.21875 278.578125 224.375 C 271.929688 220.53125 263.417969 222.816406 259.578125 229.472656 C 255.738281 236.132812 258.019531 244.65625 264.667969 248.5 Z M 264.667969 248.5 " fill-opacity="1" fill-rule="evenodd"/><path fill="#17ead9" d="M 221.578125 257.332031 C 221.578125 249.640625 227.808594 243.402344 235.488281 243.402344 C 243.164062 243.402344 249.398438 249.640625 249.398438 257.332031 C 249.398438 265.019531 243.164062 271.257812 235.488281 271.257812 C 227.808594 271.257812 221.578125 265.019531 221.578125 257.332031 Z M 221.578125 257.332031 " fill-opacity="1" fill-rule="evenodd"/><path fill="#17ead9" d="M 192.394531 224.375 C 199.042969 220.53125 207.558594 222.816406 211.394531 229.472656 C 215.234375 236.132812 212.953125 244.65625 206.304688 248.5 C 199.65625 252.34375 191.144531 250.058594 187.304688 243.402344 C 183.464844 236.742188 185.746094 228.21875 192.394531 224.375 Z M 192.394531 224.375 " fill-opacity="1" fill-rule="evenodd"/><path fill="#17ead9" d="M 192.394531 206.714844 C 199.042969 210.558594 207.558594 208.273438 211.394531 201.617188 C 215.234375 194.957031 212.953125 186.433594 206.304688 182.589844 C 199.65625 178.746094 191.144531 181.03125 187.304688 187.6875 C 183.464844 194.34375 185.746094 202.871094 192.394531 206.714844 Z M 192.394531 206.714844 " fill-opacity="1" fill-rule="evenodd"/><g clip-path="url(#93dc99eb0b)"><path fill="#17ead9" d="M 336.332031 159.832031 C 336.332031 130.984375 312.976562 107.597656 284.171875 107.597656 C 231.648438 107.597656 141.960938 107.597656 89.4375 107.597656 C 60.632812 107.597656 37.277344 130.984375 37.277344 159.832031 L 37.277344 271.257812 C 37.277344 300.105469 60.632812 323.492188 89.4375 323.492188 C 141.960938 323.492188 231.648438 323.492188 284.171875 323.492188 C 312.976562 323.492188 336.332031 300.105469 336.332031 271.257812 Z M 315.46875 159.832031 L 315.46875 271.257812 C 315.46875 288.570312 301.460938 302.597656 284.171875 302.597656 C 231.648438 302.597656 141.960938 302.597656 89.4375 302.597656 C 72.148438 302.597656 58.140625 288.570312 58.140625 271.257812 C 58.140625 271.257812 58.140625 159.832031 58.140625 159.832031 C 58.140625 142.515625 72.148438 128.492188 89.4375 128.492188 C 141.960938 128.492188 231.648438 128.492188 284.171875 128.492188 C 301.460938 128.492188 315.46875 142.515625 315.46875 159.832031 Z M 315.46875 159.832031 " fill-opacity="1" fill-rule="evenodd"/></g><g clip-path="url(#195b0d05a9)"><path fill="#17ead9" d="M 92.304688 128.085938 L 287.035156 72.371094 C 292.570312 70.785156 295.785156 65.003906 294.199219 59.460938 C 292.613281 53.917969 286.839844 50.699219 281.304688 52.289062 L 86.574219 108.003906 C 81.039062 109.589844 77.824219 115.371094 79.410156 120.914062 C 80.996094 126.457031 86.769531 129.675781 92.304688 128.085938 Z M 92.304688 128.085938 " fill-opacity="1" fill-rule="evenodd"/></g><path fill="#17ead9" d="M 96.394531 184.207031 L 124.210938 184.207031 C 129.96875 184.207031 134.644531 179.523438 134.644531 173.757812 C 134.644531 167.992188 129.96875 163.3125 124.210938 163.3125 L 96.394531 163.3125 C 90.632812 163.3125 85.960938 167.992188 85.960938 173.757812 C 85.960938 179.523438 90.632812 184.207031 96.394531 184.207031 Z M 96.394531 184.207031 " fill-opacity="1" fill-rule="evenodd"/><path fill="#17ead9" d="M 96.394531 225.992188 L 124.210938 225.992188 C 129.96875 225.992188 134.644531 221.3125 134.644531 215.542969 C 134.644531 209.777344 129.96875 205.097656 124.210938 205.097656 L 96.394531 205.097656 C 90.632812 205.097656 85.960938 209.777344 85.960938 215.542969 C 85.960938 221.3125 90.632812 225.992188 96.394531 225.992188 Z M 96.394531 225.992188 " fill-opacity="1" fill-rule="evenodd"/></svg>