<svg xmlns="http://www.w3.org/2000/svg" xmlns:xlink="http://www.w3.org/1999/xlink" width="500" zoomAndPan="magnify" viewBox="0 0 375 374.999991" height="500" preserveAspectRatio="xMidYMid meet" version="1.0"><defs><clipPath id="943677eb25"><path d="M 100 326 L 275 326 L 275 337.296875 L 100 337.296875 Z M 100 326 " clip-rule="nonzero"/></clipPath><clipPath id="f8512b88bc"><path d="M 103 37.5 L 276 37.5 L 276 211 L 103 211 Z M 103 37.5 " clip-rule="nonzero"/></clipPath><clipPath id="10ee04f37c"><path d="M 192 37.5 L 269 37.5 L 269 136 L 192 136 Z M 192 37.5 " clip-rule="nonzero"/></clipPath><clipPath id="5e51fa03b5"><path d="M 37.5 89 L 337.5 89 L 337.5 286 L 37.5 286 Z M 37.5 89 " clip-rule="nonzero"/></clipPath></defs><path fill="#17ead9" d="M 197.863281 212.492188 C 197.984375 198.308594 208.148438 186.367188 222.152344 184.023438 L 225.101562 183.539062 C 227.304688 183.175781 228.878906 181.296875 228.878906 179.074219 C 228.878906 177.074219 227.527344 175.296875 225.605469 174.730469 L 203.925781 168.546875 C 199.421875 167.253906 194.734375 166.609375 190.027344 166.609375 L 187.015625 166.609375 C 175.195312 166.609375 163.679688 170.769531 154.605469 178.328125 C 147.273438 184.449219 138.484375 188.710938 129.167969 190.832031 C 144.707031 204.675781 165.113281 213.160156 187.5 213.160156 C 191.015625 213.160156 194.449219 212.898438 197.863281 212.492188 " fill-opacity="1" fill-rule="nonzero"/><g clip-path="url(#943677eb25)"><path fill="#17ead9" d="M 259.914062 326.953125 L 115.085938 326.953125 C 108.335938 326.953125 102.601562 331.277344 100.457031 337.296875 L 274.542969 337.296875 C 272.398438 331.277344 266.664062 326.953125 259.914062 326.953125 " fill-opacity="1" fill-rule="nonzero"/></g><path fill="#17ead9" d="M 113.003906 140.746094 C 121.308594 140.746094 128.644531 135.453125 131.269531 127.574219 L 132.460938 123.996094 C 135.230469 115.710938 141.453125 109.105469 149.535156 105.871094 C 156.890625 102.921875 161.636719 95.910156 161.636719 87.992188 L 161.636719 81.203125 C 161.636719 77.222656 160.445312 73.402344 158.164062 70.171875 L 144.523438 50.671875 C 144.179688 50.1875 143.738281 49.742188 143.371094 49.28125 C 117.226562 64.554688 99.570312 92.820312 99.570312 125.230469 C 99.570312 130.523438 100.113281 135.695312 101.023438 140.746094 L 113.003906 140.746094 " fill-opacity="1" fill-rule="nonzero"/><path fill="#17ead9" d="M 187.5 223.503906 C 133.3125 223.503906 89.222656 179.417969 89.222656 125.230469 C 89.222656 119.933594 89.769531 114.78125 90.578125 109.710938 L 58.191406 109.710938 L 58.191406 244.195312 L 316.808594 244.195312 L 316.808594 109.710938 L 284.421875 109.710938 C 285.230469 114.78125 285.777344 119.933594 285.777344 125.230469 C 285.777344 179.417969 241.6875 223.503906 187.5 223.503906 " fill-opacity="1" fill-rule="nonzero"/><g clip-path="url(#f8512b88bc)"><path fill="#17ead9" d="M 166.628906 64.230469 C 170.144531 69.222656 171.984375 75.082031 171.984375 81.203125 L 171.984375 87.992188 C 171.984375 100.175781 164.6875 110.945312 153.394531 115.46875 C 148.121094 117.570312 144.058594 121.875 142.28125 127.25 L 141.089844 130.847656 C 137.046875 142.949219 125.773438 151.089844 113.003906 151.089844 L 103.46875 151.089844 C 106.984375 162.488281 112.78125 172.890625 120.300781 181.800781 C 130.441406 180.851562 140.199219 176.871094 147.980469 170.386719 C 158.910156 161.273438 172.769531 156.261719 187.015625 156.261719 L 190.027344 156.261719 C 195.703125 156.261719 201.339844 157.050781 206.773438 158.605469 L 228.433594 164.789062 C 234.800781 166.609375 239.222656 172.488281 239.222656 179.074219 C 239.222656 186.367188 233.992188 192.550781 226.796875 193.742188 L 223.847656 194.226562 C 215.503906 195.621094 209.339844 202.332031 208.390625 210.554688 C 246.800781 201.136719 275.429688 166.507812 275.429688 125.230469 C 275.429688 117.085938 274.238281 109.226562 272.15625 101.75 L 269.996094 102.015625 C 260.117188 103.246094 252.175781 110.296875 249.75 119.957031 C 245.933594 135.230469 232.273438 145.917969 216.515625 145.917969 L 202.917969 145.917969 C 191.5625 145.917969 182.328125 136.664062 182.328125 125.308594 C 182.328125 116.84375 187.398438 109.347656 195.277344 106.195312 L 197.398438 105.347656 C 203.945312 102.722656 208.191406 96.457031 208.191406 89.40625 C 208.191406 84.171875 205.847656 79.285156 201.746094 76.011719 L 195.320312 70.859375 C 187.054688 64.25 182.328125 54.390625 182.328125 43.824219 C 182.328125 41.703125 182.550781 39.601562 182.933594 37.519531 C 172.285156 38.066406 162.101562 40.449219 152.789062 44.46875 C 152.847656 44.550781 152.929688 44.652344 152.992188 44.734375 L 166.628906 64.230469 " fill-opacity="1" fill-rule="nonzero"/></g><g clip-path="url(#10ee04f37c)"><path fill="#17ead9" d="M 201.785156 62.777344 L 208.210938 67.929688 C 214.777344 73.160156 218.535156 81 218.535156 89.40625 C 218.535156 100.71875 211.746094 110.742188 201.238281 114.945312 L 199.117188 115.792969 C 195.199219 117.371094 192.671875 121.105469 192.671875 125.308594 C 192.671875 130.96875 197.277344 135.574219 202.917969 135.574219 L 216.515625 135.574219 C 227.503906 135.574219 237.0625 128.117188 239.710938 117.449219 C 243.125 103.832031 254.78125 93.507812 268.703125 91.75 L 268.785156 91.75 C 256.316406 61.625 227.585938 39.945312 193.601562 37.601562 C 193.054688 39.640625 192.671875 41.703125 192.671875 43.824219 C 192.671875 51.238281 196.007812 58.148438 201.785156 62.777344 " fill-opacity="1" fill-rule="nonzero"/></g><g clip-path="url(#5e51fa03b5)"><path fill="#17ead9" d="M 228.878906 275.230469 L 218.535156 275.230469 L 218.535156 264.882812 L 228.878906 264.882812 Z M 208.191406 275.230469 L 166.808594 275.230469 L 166.808594 264.882812 L 208.191406 264.882812 Z M 156.464844 275.230469 L 146.121094 275.230469 L 146.121094 264.882812 L 156.464844 264.882812 Z M 321.984375 89.023438 L 278.785156 89.023438 C 280.117188 92.375 281.25 95.832031 282.199219 99.367188 L 327.15625 99.367188 L 327.15625 254.539062 L 47.84375 254.539062 L 47.84375 99.367188 L 92.800781 99.367188 C 93.75 95.832031 94.882812 92.375 96.214844 89.023438 L 53.015625 89.023438 C 44.449219 89.023438 37.5 95.972656 37.5 104.539062 L 37.5 270.054688 C 37.5 278.601562 44.449219 285.574219 53.015625 285.574219 L 321.984375 285.574219 C 330.550781 285.574219 337.5 278.601562 337.5 270.054688 L 337.5 104.539062 C 337.5 95.972656 330.550781 89.023438 321.984375 89.023438 " fill-opacity="1" fill-rule="nonzero"/></g><path fill="#17ead9" d="M 175.175781 295.917969 L 164.832031 316.609375 L 210.167969 316.609375 L 199.824219 295.917969 L 175.175781 295.917969 " fill-opacity="1" fill-rule="nonzero"/></svg>