<svg xmlns="http://www.w3.org/2000/svg" xmlns:xlink="http://www.w3.org/1999/xlink" width="500" zoomAndPan="magnify" viewBox="0 0 375 374.999991" height="500" preserveAspectRatio="xMidYMid meet" version="1.0"><defs><clipPath id="7dd63f03f0"><path d="M 37.5 42.375 L 337.5 42.375 L 337.5 273 L 37.5 273 Z M 37.5 42.375 " clip-rule="nonzero"/></clipPath></defs><path fill="#17ead9" d="M 169.371094 168.636719 C 170.046875 168.988281 170.765625 169.132812 171.523438 169.078125 C 172.28125 169.019531 172.96875 168.765625 173.585938 168.320312 L 217.628906 136.945312 C 217.886719 136.757812 218.121094 136.542969 218.332031 136.300781 C 218.539062 136.054688 218.71875 135.792969 218.863281 135.503906 C 219.011719 135.21875 219.121094 134.921875 219.195312 134.609375 C 219.273438 134.296875 219.308594 133.980469 219.308594 133.660156 C 219.308594 133.339844 219.273438 133.023438 219.195312 132.710938 C 219.121094 132.398438 219.011719 132.097656 218.863281 131.8125 C 218.71875 131.527344 218.539062 131.261719 218.332031 131.019531 C 218.121094 130.777344 217.886719 130.558594 217.628906 130.371094 L 173.585938 99 C 172.972656 98.582031 172.296875 98.347656 171.558594 98.300781 C 170.820312 98.25 170.117188 98.390625 169.457031 98.722656 C 168.792969 99.050781 168.261719 99.527344 167.855469 100.148438 C 167.453125 100.769531 167.234375 101.453125 167.203125 102.191406 L 167.203125 165 C 167.191406 165.761719 167.382812 166.46875 167.773438 167.125 C 168.164062 167.78125 168.699219 168.285156 169.371094 168.636719 Z M 169.371094 168.636719 " fill-opacity="1" fill-rule="nonzero"/><path fill="#17ead9" d="M 193.882812 249.703125 C 193.882812 250.121094 193.84375 250.535156 193.761719 250.949219 C 193.679688 251.359375 193.558594 251.757812 193.398438 252.144531 C 193.238281 252.53125 193.039062 252.898438 192.808594 253.25 C 192.574219 253.597656 192.308594 253.917969 192.011719 254.214844 C 191.71875 254.511719 191.394531 254.777344 191.046875 255.007812 C 190.699219 255.242188 190.328125 255.4375 189.941406 255.597656 C 189.554688 255.757812 189.15625 255.878906 188.746094 255.960938 C 188.335938 256.042969 187.917969 256.085938 187.5 256.085938 C 187.082031 256.085938 186.664062 256.042969 186.253906 255.960938 C 185.84375 255.878906 185.445312 255.757812 185.058594 255.597656 C 184.671875 255.4375 184.300781 255.242188 183.953125 255.007812 C 183.605469 254.777344 183.28125 254.511719 182.988281 254.214844 C 182.691406 253.917969 182.425781 253.597656 182.191406 253.25 C 181.960938 252.898438 181.761719 252.53125 181.601562 252.144531 C 181.441406 251.757812 181.320312 251.359375 181.238281 250.949219 C 181.15625 250.535156 181.117188 250.121094 181.117188 249.703125 C 181.117188 249.28125 181.15625 248.867188 181.238281 248.457031 C 181.320312 248.046875 181.441406 247.648438 181.601562 247.257812 C 181.761719 246.871094 181.960938 246.503906 182.191406 246.15625 C 182.425781 245.808594 182.691406 245.484375 182.988281 245.1875 C 183.28125 244.890625 183.605469 244.628906 183.953125 244.394531 C 184.300781 244.160156 184.671875 243.964844 185.058594 243.804688 C 185.445312 243.644531 185.84375 243.523438 186.253906 243.441406 C 186.664062 243.359375 187.082031 243.320312 187.5 243.320312 C 187.917969 243.320312 188.335938 243.359375 188.746094 243.441406 C 189.15625 243.523438 189.554688 243.644531 189.941406 243.804688 C 190.328125 243.964844 190.699219 244.160156 191.046875 244.394531 C 191.394531 244.628906 191.71875 244.890625 192.011719 245.1875 C 192.308594 245.484375 192.574219 245.808594 192.808594 246.15625 C 193.039062 246.503906 193.238281 246.871094 193.398438 247.257812 C 193.558594 247.648438 193.679688 248.046875 193.761719 248.457031 C 193.84375 248.867188 193.882812 249.28125 193.882812 249.703125 Z M 193.882812 249.703125 " fill-opacity="1" fill-rule="nonzero"/><path fill="#17ead9" d="M 63.480469 220.914062 L 311.519531 220.914062 L 311.519531 69.03125 L 63.480469 69.03125 Z M 160.789062 102.320312 C 160.785156 101.359375 160.914062 100.417969 161.167969 99.492188 C 161.425781 98.566406 161.804688 97.695312 162.304688 96.875 C 162.800781 96.054688 163.402344 95.316406 164.101562 94.660156 C 164.804688 94.007812 165.582031 93.460938 166.433594 93.019531 C 167.289062 92.578125 168.183594 92.261719 169.125 92.070312 C 170.0625 91.875 171.011719 91.8125 171.96875 91.882812 C 172.929688 91.949219 173.859375 92.148438 174.761719 92.472656 C 175.664062 92.796875 176.507812 93.238281 177.289062 93.796875 L 221.328125 125.171875 C 221.667969 125.410156 221.988281 125.671875 222.292969 125.949219 C 222.597656 126.226562 222.886719 126.523438 223.15625 126.835938 C 223.425781 127.148438 223.679688 127.476562 223.910156 127.820312 C 224.140625 128.164062 224.351562 128.519531 224.539062 128.886719 C 224.730469 129.253906 224.894531 129.632812 225.039062 130.019531 C 225.183594 130.40625 225.304688 130.800781 225.402344 131.203125 C 225.5 131.605469 225.574219 132.011719 225.621094 132.421875 C 225.671875 132.832031 225.695312 133.246094 225.695312 133.660156 C 225.695312 134.074219 225.671875 134.484375 225.621094 134.894531 C 225.574219 135.308594 225.5 135.714844 225.402344 136.113281 C 225.304688 136.515625 225.183594 136.910156 225.039062 137.300781 C 224.894531 137.6875 224.730469 138.066406 224.539062 138.433594 C 224.351562 138.800781 224.140625 139.15625 223.910156 139.5 C 223.679688 139.839844 223.425781 140.167969 223.15625 140.480469 C 222.886719 140.796875 222.597656 141.089844 222.292969 141.371094 C 221.988281 141.648438 221.667969 141.910156 221.328125 142.148438 L 177.289062 173.519531 C 175.472656 174.8125 173.449219 175.460938 171.222656 175.46875 C 169.539062 175.472656 167.953125 175.078125 166.46875 174.289062 C 165.609375 173.855469 164.828125 173.3125 164.121094 172.660156 C 163.414062 172.007812 162.808594 171.273438 162.304688 170.453125 C 161.804688 169.632812 161.425781 168.757812 161.167969 167.832031 C 160.910156 166.90625 160.78125 165.960938 160.789062 165 Z M 89.617188 194.871094 L 107.710938 194.871094 L 107.710938 190.722656 C 107.710938 190.300781 107.792969 189.894531 107.957031 189.503906 C 108.117188 189.109375 108.347656 188.765625 108.648438 188.464844 C 108.945312 188.167969 109.292969 187.9375 109.683594 187.773438 C 110.074219 187.613281 110.480469 187.53125 110.902344 187.53125 C 111.328125 187.53125 111.734375 187.613281 112.125 187.773438 C 112.515625 187.9375 112.863281 188.167969 113.160156 188.464844 C 113.460938 188.765625 113.691406 189.109375 113.851562 189.503906 C 114.015625 189.894531 114.097656 190.300781 114.097656 190.722656 L 114.097656 195 L 285.382812 195 C 285.804688 195 286.214844 195.082031 286.605469 195.242188 C 286.996094 195.40625 287.339844 195.636719 287.640625 195.933594 C 287.9375 196.234375 288.167969 196.578125 288.332031 196.96875 C 288.492188 197.359375 288.574219 197.769531 288.574219 198.191406 C 288.574219 198.613281 288.492188 199.023438 288.332031 199.414062 C 288.167969 199.804688 287.9375 200.148438 287.640625 200.449219 C 287.339844 200.746094 286.996094 200.976562 286.605469 201.140625 C 286.214844 201.300781 285.804688 201.382812 285.382812 201.382812 L 114.097656 201.382812 L 114.097656 205.339844 C 114.097656 205.761719 114.015625 206.171875 113.851562 206.5625 C 113.691406 206.953125 113.460938 207.296875 113.160156 207.597656 C 112.863281 207.894531 112.515625 208.128906 112.125 208.289062 C 111.734375 208.449219 111.328125 208.53125 110.902344 208.53125 C 110.480469 208.53125 110.074219 208.449219 109.683594 208.289062 C 109.292969 208.128906 108.945312 207.894531 108.648438 207.597656 C 108.347656 207.296875 108.117188 206.953125 107.957031 206.5625 C 107.792969 206.171875 107.710938 205.761719 107.710938 205.339844 L 107.710938 201.382812 L 89.617188 201.382812 C 89.195312 201.382812 88.785156 201.300781 88.394531 201.140625 C 88.003906 200.976562 87.660156 200.746094 87.359375 200.449219 C 87.0625 200.148438 86.832031 199.804688 86.667969 199.414062 C 86.507812 199.023438 86.425781 198.613281 86.425781 198.191406 C 86.425781 197.769531 86.507812 197.359375 86.667969 196.96875 C 86.832031 196.578125 87.0625 196.234375 87.359375 195.933594 C 87.660156 195.636719 88.003906 195.40625 88.394531 195.242188 C 88.785156 195.082031 89.195312 195 89.617188 195 Z M 89.617188 194.871094 " fill-opacity="1" fill-rule="nonzero"/><path fill="#17ead9" d="M 155.679688 278.746094 L 219.320312 278.746094 L 219.320312 312.671875 L 155.679688 312.671875 Z M 155.679688 278.746094 " fill-opacity="1" fill-rule="nonzero"/><path fill="#17ead9" d="M 246.480469 323.710938 C 245.011719 322.230469 243.316406 321.082031 241.390625 320.277344 C 239.464844 319.46875 237.460938 319.0625 235.371094 319.054688 L 139.628906 319.054688 C 137.535156 319.050781 135.519531 319.453125 133.589844 320.257812 C 131.65625 321.066406 129.957031 322.21875 128.488281 323.710938 C 127.390625 324.796875 126.476562 326.019531 125.746094 327.378906 C 125.019531 328.738281 124.507812 330.175781 124.210938 331.691406 L 250.753906 331.691406 C 250.457031 330.179688 249.941406 328.742188 249.210938 327.382812 C 248.484375 326.023438 247.574219 324.800781 246.480469 323.710938 Z M 246.480469 323.710938 " fill-opacity="1" fill-rule="nonzero"/><g clip-path="url(#7dd63f03f0)"><path fill="#17ead9" d="M 314.296875 42.988281 L 60.703125 42.988281 C 59.945312 42.988281 59.191406 43.027344 58.4375 43.101562 C 57.683594 43.175781 56.933594 43.285156 56.191406 43.433594 C 55.449219 43.578125 54.714844 43.761719 53.988281 43.980469 C 53.265625 44.199219 52.550781 44.453125 51.851562 44.742188 C 51.152344 45.03125 50.46875 45.355469 49.800781 45.710938 C 49.132812 46.066406 48.480469 46.453125 47.851562 46.871094 C 47.222656 47.292969 46.613281 47.742188 46.027344 48.21875 C 45.4375 48.699219 44.878906 49.207031 44.339844 49.738281 C 43.804688 50.273438 43.292969 50.832031 42.8125 51.417969 C 42.328125 52 41.878906 52.605469 41.453125 53.234375 C 41.03125 53.863281 40.640625 54.511719 40.28125 55.175781 C 39.921875 55.84375 39.59375 56.527344 39.300781 57.222656 C 39.011719 57.921875 38.753906 58.632812 38.527344 59.355469 C 38.304688 60.082031 38.117188 60.8125 37.96875 61.554688 C 37.816406 62.296875 37.703125 63.046875 37.625 63.796875 C 37.546875 64.550781 37.503906 65.304688 37.5 66.0625 L 37.5 249.160156 C 37.5 249.917969 37.539062 250.675781 37.613281 251.433594 C 37.691406 252.1875 37.800781 252.9375 37.949219 253.683594 C 38.101562 254.429688 38.285156 255.164062 38.507812 255.890625 C 38.726562 256.617188 38.984375 257.332031 39.273438 258.035156 C 39.566406 258.734375 39.890625 259.421875 40.25 260.089844 C 40.609375 260.761719 40.996094 261.410156 41.421875 262.042969 C 41.84375 262.675781 42.292969 263.28125 42.777344 263.871094 C 43.257812 264.457031 43.769531 265.019531 44.304688 265.554688 C 44.84375 266.09375 45.40625 266.601562 45.992188 267.085938 C 46.578125 267.566406 47.1875 268.019531 47.820312 268.441406 C 48.449219 268.863281 49.101562 269.253906 49.769531 269.613281 C 50.441406 269.972656 51.125 270.296875 51.828125 270.585938 C 52.53125 270.878906 53.242188 271.132812 53.96875 271.355469 C 54.695312 271.578125 55.433594 271.761719 56.179688 271.910156 C 56.921875 272.058594 57.671875 272.171875 58.429688 272.246094 C 59.183594 272.324219 59.941406 272.359375 60.703125 272.363281 L 314.394531 272.363281 C 315.152344 272.359375 315.90625 272.316406 316.660156 272.238281 C 317.414062 272.160156 318.160156 272.046875 318.90625 271.894531 C 319.648438 271.742188 320.378906 271.554688 321.105469 271.332031 C 321.828125 271.109375 322.539062 270.851562 323.238281 270.558594 C 323.9375 270.265625 324.621094 269.941406 325.285156 269.582031 C 325.953125 269.222656 326.601562 268.832031 327.230469 268.410156 C 327.859375 267.984375 328.464844 267.535156 329.050781 267.050781 C 329.632812 266.570312 330.195312 266.058594 330.730469 265.523438 C 331.261719 264.984375 331.769531 264.425781 332.25 263.839844 C 332.730469 263.25 333.179688 262.644531 333.601562 262.011719 C 334.019531 261.382812 334.410156 260.734375 334.765625 260.0625 C 335.121094 259.394531 335.445312 258.710938 335.734375 258.011719 C 336.023438 257.3125 336.277344 256.597656 336.5 255.875 C 336.71875 255.148438 336.902344 254.414062 337.050781 253.671875 C 337.199219 252.929688 337.3125 252.179688 337.386719 251.425781 C 337.460938 250.671875 337.5 249.917969 337.5 249.160156 L 337.5 66.0625 C 337.496094 65.304688 337.453125 64.550781 337.375 63.796875 C 337.296875 63.046875 337.183594 62.296875 337.03125 61.554688 C 336.882812 60.8125 336.695312 60.082031 336.472656 59.355469 C 336.246094 58.632812 335.988281 57.921875 335.699219 57.222656 C 335.40625 56.527344 335.078125 55.84375 334.71875 55.175781 C 334.359375 54.511719 333.96875 53.863281 333.546875 53.234375 C 333.121094 52.605469 332.671875 52 332.1875 51.417969 C 331.707031 50.832031 331.195312 50.273438 330.660156 49.738281 C 330.121094 49.207031 329.5625 48.699219 328.972656 48.21875 C 328.386719 47.742188 327.777344 47.292969 327.148438 46.875 C 326.519531 46.453125 325.867188 46.066406 325.199219 45.710938 C 324.53125 45.355469 323.847656 45.03125 323.148438 44.742188 C 322.449219 44.453125 321.734375 44.199219 321.011719 43.980469 C 320.285156 43.761719 319.550781 43.578125 318.808594 43.433594 C 318.066406 43.285156 317.316406 43.175781 316.5625 43.101562 C 315.8125 43.027344 315.054688 42.988281 314.296875 42.988281 Z M 187.5 262.46875 C 186.660156 262.46875 185.832031 262.386719 185.007812 262.222656 C 184.1875 262.058594 183.390625 261.816406 182.613281 261.496094 C 181.839844 261.175781 181.105469 260.78125 180.40625 260.316406 C 179.710938 259.851562 179.066406 259.320312 178.472656 258.730469 C 177.878906 258.136719 177.351562 257.492188 176.886719 256.792969 C 176.417969 256.097656 176.027344 255.363281 175.707031 254.585938 C 175.386719 253.8125 175.144531 253.015625 174.980469 252.191406 C 174.816406 251.371094 174.734375 250.539062 174.734375 249.703125 C 174.734375 248.863281 174.816406 248.035156 174.980469 247.210938 C 175.144531 246.390625 175.386719 245.589844 175.707031 244.816406 C 176.027344 244.042969 176.417969 243.308594 176.886719 242.609375 C 177.351562 241.914062 177.878906 241.269531 178.472656 240.675781 C 179.066406 240.082031 179.710938 239.554688 180.40625 239.085938 C 181.105469 238.621094 181.839844 238.230469 182.613281 237.90625 C 183.390625 237.585938 184.1875 237.34375 185.007812 237.179688 C 185.832031 237.019531 186.660156 236.9375 187.5 236.9375 C 188.339844 236.9375 189.167969 237.019531 189.992188 237.179688 C 190.8125 237.34375 191.609375 237.585938 192.386719 237.90625 C 193.160156 238.230469 193.894531 238.621094 194.59375 239.085938 C 195.289062 239.554688 195.933594 240.082031 196.527344 240.675781 C 197.121094 241.269531 197.648438 241.914062 198.113281 242.609375 C 198.582031 243.308594 198.972656 244.042969 199.292969 244.816406 C 199.613281 245.589844 199.855469 246.390625 200.019531 247.210938 C 200.183594 248.035156 200.265625 248.863281 200.265625 249.703125 C 200.265625 250.539062 200.183594 251.371094 200.019531 252.191406 C 199.855469 253.015625 199.613281 253.8125 199.292969 254.585938 C 198.972656 255.363281 198.582031 256.097656 198.113281 256.792969 C 197.648438 257.492188 197.121094 258.136719 196.527344 258.730469 C 195.933594 259.320312 195.289062 259.851562 194.59375 260.316406 C 193.894531 260.78125 193.160156 261.175781 192.386719 261.496094 C 191.609375 261.816406 190.8125 262.058594 189.992188 262.222656 C 189.167969 262.386719 188.339844 262.46875 187.5 262.46875 Z M 317.902344 224.171875 C 317.902344 224.59375 317.824219 225 317.660156 225.390625 C 317.5 225.78125 317.269531 226.128906 316.96875 226.425781 C 316.671875 226.726562 316.324219 226.957031 315.933594 227.117188 C 315.542969 227.28125 315.136719 227.363281 314.710938 227.363281 L 60.289062 227.363281 C 59.863281 227.363281 59.457031 227.28125 59.066406 227.117188 C 58.675781 226.957031 58.328125 226.726562 58.03125 226.425781 C 57.730469 226.128906 57.5 225.78125 57.339844 225.390625 C 57.175781 225 57.097656 224.59375 57.097656 224.171875 L 57.097656 65.839844 C 57.097656 65.417969 57.175781 65.011719 57.339844 64.617188 C 57.5 64.226562 57.730469 63.882812 58.03125 63.582031 C 58.328125 63.285156 58.675781 63.054688 59.066406 62.890625 C 59.457031 62.730469 59.863281 62.648438 60.289062 62.648438 L 314.710938 62.648438 C 315.136719 62.648438 315.542969 62.730469 315.933594 62.890625 C 316.324219 63.054688 316.671875 63.285156 316.96875 63.582031 C 317.269531 63.882812 317.5 64.226562 317.660156 64.617188 C 317.824219 65.011719 317.902344 65.417969 317.902344 65.839844 Z M 317.902344 224.171875 " fill-opacity="1" fill-rule="nonzero"/></g></svg>