<svg xmlns="http://www.w3.org/2000/svg" xmlns:xlink="http://www.w3.org/1999/xlink" width="500" zoomAndPan="magnify" viewBox="0 0 375 374.999991" height="500" preserveAspectRatio="xMidYMid meet" version="1.0"><defs><clipPath id="550d743e01"><path d="M 56 130 L 189 130 L 189 337.789062 L 56 337.789062 Z M 56 130 " clip-rule="nonzero"/></clipPath><clipPath id="6208712951"><path d="M 37.398438 130 L 99 130 L 99 181 L 37.398438 181 Z M 37.398438 130 " clip-rule="nonzero"/></clipPath><clipPath id="3ab358c415"><path d="M 148 70.675781 L 173 70.675781 L 173 101 L 148 101 Z M 148 70.675781 " clip-rule="nonzero"/></clipPath><clipPath id="f24cfeb3be"><path d="M 186 108 L 319 108 L 319 337.804688 L 186 337.804688 Z M 186 108 " clip-rule="nonzero"/></clipPath><clipPath id="6a7a9d5d4f"><path d="M 191 37.5 L 217 37.5 L 217 69 L 191 69 Z M 191 37.5 " clip-rule="nonzero"/></clipPath><clipPath id="d17d374f51"><path d="M 181.808594 70 L 202 70 L 202 96 L 181.808594 96 Z M 181.808594 70 " clip-rule="nonzero"/></clipPath></defs><g clip-path="url(#550d743e01)"><path fill="#17ead9" d="M 102.585938 135.125 C 101.949219 137.855469 100.160156 140.023438 97.859375 141.25 L 96.726562 146.105469 C 98.1875 147.316406 99.359375 148.902344 100.085938 150.765625 C 101.199219 153.617188 101.136719 156.726562 99.910156 159.527344 C 98.683594 162.328125 96.4375 164.480469 93.589844 165.59375 L 92.035156 166.203125 L 90.195312 174.082031 L 78.722656 171.402344 L 62.894531 177.589844 L 62.894531 211.335938 L 56.445312 322.695312 C 56.007812 330.273438 61.792969 336.769531 69.363281 337.207031 C 76.9375 337.644531 83.433594 331.863281 83.871094 324.285156 L 89.71875 223.28125 L 96.160156 223.28125 L 102.007812 324.285156 C 102.445312 331.863281 108.941406 337.644531 116.515625 337.207031 C 124.085938 336.769531 129.871094 330.273438 129.429688 322.695312 L 122.984375 211.355469 L 122.984375 151.46875 C 126.238281 154.539062 129.851562 160.175781 132.355469 170.539062 C 132.9375 172.964844 134.515625 175.035156 136.703125 176.238281 C 138.03125 176.972656 139.507812 177.34375 140.992188 177.34375 C 141.949219 177.34375 142.914062 177.1875 143.839844 176.878906 L 182.722656 163.726562 C 187.371094 162.15625 189.867188 157.109375 188.292969 152.457031 C 186.722656 147.804688 181.675781 145.3125 177.027344 146.882812 L 146.835938 157.09375 C 137.386719 131.632812 120.019531 129.957031 114.503906 130.105469 C 114.46875 130.105469 114.433594 130.097656 114.398438 130.097656 L 102.359375 130.097656 C 102.875 131.671875 102.988281 133.398438 102.585938 135.125 Z M 102.585938 135.125 " fill-opacity="1" fill-rule="nonzero"/></g><path fill="#17ead9" d="M 94.613281 123.703125 C 107.636719 122.839844 117.933594 112.007812 117.933594 98.761719 C 117.933594 84.953125 106.746094 73.757812 92.941406 73.757812 C 79.136719 73.757812 67.945312 84.953125 67.945312 98.761719 C 67.945312 112.28125 78.675781 123.289062 92.082031 123.742188 C 92.90625 123.617188 93.753906 123.597656 94.613281 123.703125 Z M 86.136719 112.195312 C 86.136719 108.433594 89.179688 105.386719 92.9375 105.386719 C 96.695312 105.386719 99.742188 108.433594 99.742188 112.195312 C 99.742188 115.953125 96.695312 119 92.9375 119 C 89.179688 119 86.136719 115.953125 86.136719 112.195312 Z M 86.136719 112.195312 " fill-opacity="1" fill-rule="nonzero"/><path fill="#17ead9" d="M 88.289062 171.011719 L 89.148438 167.332031 L 82.929688 169.761719 Z M 88.289062 171.011719 " fill-opacity="1" fill-rule="nonzero"/><path fill="#17ead9" d="M 91.34375 142.113281 C 90.105469 141.824219 88.984375 141.296875 88.011719 140.59375 L 87.289062 143.6875 C 87.992188 143.554688 88.707031 143.484375 89.425781 143.484375 C 91.214844 143.484375 92.921875 143.890625 94.449219 144.632812 L 95.007812 142.230469 C 93.824219 142.425781 92.585938 142.402344 91.34375 142.113281 Z M 91.34375 142.113281 " fill-opacity="1" fill-rule="nonzero"/><path fill="#17ead9" d="M 95.089844 126.074219 C 95.542969 126.179688 95.984375 126.328125 96.40625 126.523438 C 96.832031 126.714844 97.234375 126.945312 97.613281 127.21875 C 97.992188 127.492188 98.34375 127.796875 98.660156 128.136719 C 98.980469 128.480469 99.261719 128.847656 99.507812 129.242188 C 99.753906 129.640625 99.960938 130.058594 100.125 130.492188 C 100.289062 130.929688 100.40625 131.378906 100.484375 131.839844 C 100.558594 132.300781 100.589844 132.765625 100.574219 133.230469 C 100.558594 133.695312 100.5 134.15625 100.390625 134.613281 C 100.285156 135.066406 100.136719 135.507812 99.945312 135.929688 C 99.75 136.355469 99.519531 136.757812 99.246094 137.136719 C 98.976562 137.515625 98.667969 137.867188 98.328125 138.183594 C 97.988281 138.503906 97.621094 138.785156 97.222656 139.03125 C 96.828125 139.277344 96.410156 139.484375 95.972656 139.648438 C 95.539062 139.8125 95.089844 139.933594 94.628906 140.007812 C 94.167969 140.085938 93.703125 140.113281 93.238281 140.097656 C 92.773438 140.082031 92.3125 140.023438 91.859375 139.917969 C 91.402344 139.8125 90.964844 139.660156 90.539062 139.46875 C 90.113281 139.277344 89.710938 139.042969 89.332031 138.773438 C 88.953125 138.5 88.605469 138.191406 88.285156 137.851562 C 87.96875 137.511719 87.683594 137.144531 87.4375 136.746094 C 87.191406 136.351562 86.988281 135.933594 86.824219 135.496094 C 86.660156 135.058594 86.539062 134.613281 86.460938 134.152344 C 86.386719 133.691406 86.355469 133.226562 86.371094 132.761719 C 86.386719 132.292969 86.449219 131.832031 86.554688 131.378906 C 86.660156 130.925781 86.808594 130.484375 87.003906 130.058594 C 87.195312 129.632812 87.425781 129.234375 87.699219 128.851562 C 87.972656 128.472656 88.277344 128.125 88.617188 127.804688 C 88.957031 127.488281 89.328125 127.203125 89.722656 126.957031 C 90.121094 126.710938 90.535156 126.507812 90.972656 126.34375 C 91.410156 126.179688 91.859375 126.058594 92.316406 125.980469 C 92.777344 125.90625 93.242188 125.875 93.707031 125.890625 C 94.175781 125.90625 94.632812 125.96875 95.089844 126.074219 Z M 95.089844 126.074219 " fill-opacity="1" fill-rule="nonzero"/><g clip-path="url(#6208712951)"><path fill="#17ead9" d="M 41.320312 179.160156 C 42.808594 180.164062 44.542969 180.679688 46.292969 180.679688 C 47.382812 180.679688 48.476562 180.476562 49.523438 180.070312 L 50.058594 179.859375 C 50.0625 179.859375 50.066406 179.855469 50.066406 179.855469 L 92.660156 163.214844 C 97.234375 161.429688 99.492188 156.269531 97.707031 151.699219 C 95.921875 147.125 90.769531 144.867188 86.195312 146.652344 L 58.078125 157.636719 C 58.851562 156.171875 59.742188 154.929688 60.691406 153.871094 C 61.398438 153.082031 62.140625 152.394531 62.894531 151.796875 L 62.894531 153.011719 L 84.453125 144.585938 L 85.886719 138.453125 C 84.367188 136.335938 83.722656 133.601562 84.359375 130.867188 C 84.421875 130.605469 84.5 130.351562 84.582031 130.097656 L 71.480469 130.097656 C 70.8125 130.097656 70.167969 130.179688 69.546875 130.324219 C 58.464844 131.761719 40.535156 140.453125 37.773438 164.597656 C 37.511719 166.894531 37.371094 169.3125 37.402344 171.894531 C 37.4375 174.8125 38.902344 177.527344 41.320312 179.160156 Z M 41.320312 179.160156 " fill-opacity="1" fill-rule="nonzero"/></g><g clip-path="url(#3ab358c415)"><path fill="#17ead9" d="M 153.617188 99.960938 C 155.21875 99.054688 156.132812 97.5 156.015625 96.121094 L 156.015625 83.363281 L 170.800781 79.296875 L 170.800781 87.34375 C 169.722656 86.984375 168.34375 87.125 167.089844 87.835938 C 165.0625 88.984375 164.128906 91.171875 165.007812 92.722656 C 165.886719 94.277344 168.242188 94.605469 170.265625 93.457031 C 171.734375 92.628906 172.625 91.25 172.671875 89.96875 L 172.671875 89.933594 C 172.675781 89.875 172.675781 89.816406 172.671875 89.753906 L 172.671875 70.824219 L 154.140625 75.921875 L 154.140625 93.847656 C 153.0625 93.492188 151.6875 93.632812 150.4375 94.339844 C 148.410156 95.488281 147.480469 97.675781 148.355469 99.230469 C 149.234375 100.78125 151.589844 101.109375 153.617188 99.960938 Z M 156.015625 77.351562 L 170.800781 73.28125 L 170.800781 77.355469 L 156.015625 81.421875 Z M 156.015625 77.351562 " fill-opacity="1" fill-rule="nonzero"/></g><path fill="#17ead9" d="M 166.054688 120.652344 C 163.847656 121.402344 162.527344 123.378906 163.101562 125.066406 C 163.675781 126.753906 165.929688 127.515625 168.136719 126.761719 C 169.875 126.167969 171.0625 124.8125 171.203125 123.433594 L 174.261719 107.214844 L 180.613281 109.683594 L 181.292969 107.9375 L 181.25 107.921875 L 181.789062 106.773438 L 173.199219 102.75 L 169.78125 120.851562 C 168.789062 120.304688 167.414062 120.1875 166.054688 120.652344 Z M 166.054688 120.652344 " fill-opacity="1" fill-rule="nonzero"/><path fill="#17ead9" d="M 130 104.394531 C 128.421875 106.109375 128.203125 108.476562 129.515625 109.6875 C 130.828125 110.894531 133.167969 110.484375 134.746094 108.769531 C 135.992188 107.417969 136.386719 105.65625 135.851562 104.378906 L 130.792969 88.671875 L 137.554688 87.800781 L 137.3125 85.941406 L 137.269531 85.949219 L 137.191406 84.683594 L 127.726562 85.257812 L 133.371094 102.789062 C 132.238281 102.78125 130.972656 103.339844 130 104.394531 Z M 130 104.394531 " fill-opacity="1" fill-rule="nonzero"/><path fill="#17ead9" d="M 320.210938 149.957031 C 317.929688 142.746094 316.199219 138.621094 316.058594 138.289062 C 315.019531 135.835938 313.105469 133.929688 310.65625 132.90625 C 309.054688 131.984375 306.464844 130.65625 302.964844 129.332031 C 301.109375 123.472656 299.574219 117.828125 296.808594 114.808594 C 299.058594 112.207031 300.832031 109.183594 301.988281 105.867188 C 308.105469 108.136719 313.859375 113.765625 316.824219 126.390625 C 321.25 145.214844 328.3125 146.542969 333.304688 145 C 337.503906 143.699219 331.214844 152.597656 320.210938 149.957031 Z M 320.210938 149.957031 " fill-opacity="1" fill-rule="nonzero"/><path fill="#17ead9" d="M 279.316406 121.402344 C 277.039062 118.722656 273.386719 117.371094 269.738281 118.222656 C 268.539062 118.503906 267.453125 119.003906 266.496094 119.660156 C 257.644531 115.886719 251.433594 107.089844 251.433594 96.832031 C 251.433594 83.140625 262.503906 72.039062 276.15625 72.039062 C 289.808594 72.039062 300.875 83.140625 300.875 96.832031 C 300.875 109.449219 291.472656 119.84375 279.316406 121.402344 Z M 259.085938 102.394531 C 259.085938 102.394531 268.257812 124.234375 284.773438 106.992188 C 284.773438 106.992188 268.703125 109.21875 259.085938 102.394531 Z M 259.085938 102.394531 " fill-opacity="1" fill-rule="nonzero"/><g clip-path="url(#f24cfeb3be)"><path fill="#17ead9" d="M 262.289062 128.402344 C 262.328125 128.898438 262.390625 129.394531 262.507812 129.894531 C 263.167969 132.730469 265.015625 134.980469 267.398438 136.253906 L 269.523438 145.378906 C 269.457031 145.46875 269.378906 145.546875 269.3125 145.632812 C 267.707031 147.816406 267.042969 150.492188 267.445312 153.171875 C 267.847656 155.851562 269.269531 158.214844 271.441406 159.828125 L 273.1875 161.121094 L 275.332031 170.324219 L 283.144531 168.496094 L 298.894531 180.160156 C 299.953125 190.371094 303.148438 195.328125 304.84375 204.015625 C 305.460938 205.234375 305.878906 206.578125 306.027344 208.015625 L 308.105469 228.023438 L 318.175781 325.070312 C 318.835938 331.40625 314.246094 337.074219 307.929688 337.734375 C 307.527344 337.777344 307.125 337.796875 306.726562 337.796875 C 300.910156 337.796875 295.917969 333.386719 295.304688 327.457031 L 286.761719 245.144531 L 285.929688 237.117188 C 281.84375 229.722656 277.992188 227.441406 275.773438 227.441406 C 273.71875 227.441406 270.269531 229.402344 266.527344 235.550781 L 265.78125 242.746094 L 256.988281 327.457031 C 256.375 333.386719 251.382812 337.796875 245.566406 337.796875 C 245.167969 337.796875 244.765625 337.777344 244.363281 337.734375 C 238.046875 337.074219 233.457031 331.40625 234.117188 325.070312 L 243.765625 232.121094 L 245.515625 215.265625 C 245.511719 214.929688 245.507812 214.601562 245.507812 214.277344 C 245.507812 211.121094 245.738281 208.933594 246.136719 207.464844 C 247.582031 196.265625 251.609375 191.492188 252.722656 179.539062 C 253.464844 171.527344 249.664062 159.285156 246.089844 149.875 C 245.335938 150.230469 244.535156 150.613281 243.695312 151.023438 C 236.816406 154.375 227.289062 159.480469 219.085938 164.148438 C 217.949219 164.796875 216.675781 165.128906 215.394531 165.128906 C 214.691406 165.128906 213.980469 165.027344 213.289062 164.824219 C 211.347656 164.25 209.71875 162.910156 208.777344 161.113281 L 187.132812 119.722656 C 185.214844 116.058594 186.625 111.527344 190.277344 109.601562 C 193.933594 107.679688 198.453125 109.09375 200.367188 112.757812 L 218.449219 147.332031 C 224.054688 144.234375 231.460938 140.261719 237.855469 137.207031 C 239.351562 136.496094 240.785156 135.835938 242.136719 135.246094 C 245.144531 133.503906 251.972656 130.140625 262.289062 128.402344 Z M 262.289062 128.402344 " fill-opacity="1" fill-rule="nonzero"/></g><path fill="#17ead9" d="M 277.304688 167.136719 L 276.46875 163.550781 L 280.351562 166.425781 Z M 277.304688 167.136719 " fill-opacity="1" fill-rule="nonzero"/><path fill="#17ead9" d="M 274.140625 137.148438 C 275.425781 136.847656 276.585938 136.300781 277.59375 135.570312 L 279.007812 141.636719 C 278.496094 141.558594 277.980469 141.515625 277.457031 141.515625 C 275.402344 141.515625 273.417969 142.15625 271.753906 143.292969 L 270.351562 137.269531 C 271.574219 137.472656 272.859375 137.449219 274.140625 137.148438 Z M 274.140625 137.148438 " fill-opacity="1" fill-rule="nonzero"/><path fill="#17ead9" d="M 270.265625 120.503906 C 274.222656 119.578125 278.175781 122.042969 279.101562 126.007812 C 280.023438 129.976562 277.566406 133.941406 273.613281 134.867188 C 269.65625 135.796875 265.703125 133.328125 264.777344 129.363281 C 263.855469 125.394531 266.3125 121.429688 270.265625 120.503906 Z M 270.265625 120.503906 " fill-opacity="1" fill-rule="nonzero"/><g clip-path="url(#6a7a9d5d4f)"><path fill="#17ead9" d="M 210.941406 67.738281 C 209.285156 66.796875 208.339844 65.183594 208.460938 63.753906 L 208.460938 50.515625 L 193.160156 46.292969 L 193.160156 54.648438 C 194.273438 54.273438 195.699219 54.421875 197 55.15625 C 199.097656 56.347656 200.0625 58.617188 199.152344 60.230469 C 198.246094 61.839844 195.808594 62.179688 193.710938 60.988281 C 192.191406 60.128906 191.269531 58.699219 191.222656 57.367188 L 191.21875 57.367188 L 191.21875 57.332031 C 191.21875 57.269531 191.21875 57.207031 191.21875 57.148438 L 191.21875 37.5 L 210.402344 42.792969 L 210.402344 61.394531 C 211.515625 61.023438 212.9375 61.171875 214.230469 61.90625 C 216.328125 63.097656 217.292969 65.367188 216.386719 66.976562 C 215.476562 68.589844 213.039062 68.929688 210.941406 67.738281 Z M 208.460938 44.273438 L 193.160156 40.054688 L 193.160156 44.277344 L 208.460938 48.496094 Z M 208.460938 44.273438 " fill-opacity="1" fill-rule="nonzero"/></g><g clip-path="url(#d17d374f51)"><path fill="#17ead9" d="M 198.070312 89.210938 C 200.351562 89.988281 201.71875 92.039062 201.125 93.792969 C 200.527344 95.542969 198.195312 96.332031 195.914062 95.554688 C 194.113281 94.9375 192.886719 93.527344 192.742188 92.097656 L 189.574219 75.269531 L 183 77.828125 L 182.296875 76.015625 L 182.339844 76 L 181.785156 74.808594 L 190.675781 70.636719 L 194.210938 89.417969 C 195.238281 88.847656 196.660156 88.726562 198.070312 89.210938 Z M 198.070312 89.210938 " fill-opacity="1" fill-rule="nonzero"/></g><path fill="#17ead9" d="M 235.386719 72.339844 C 237.019531 74.117188 237.242188 76.574219 235.886719 77.828125 C 234.53125 79.082031 232.105469 78.660156 230.472656 76.878906 C 229.183594 75.476562 228.777344 73.648438 229.328125 72.324219 L 234.566406 56.019531 L 227.570312 55.121094 L 227.816406 53.191406 L 227.863281 53.199219 L 227.941406 51.882812 L 237.742188 52.480469 L 231.898438 70.675781 C 233.070312 70.664062 234.378906 71.242188 235.386719 72.339844 Z M 235.386719 72.339844 " fill-opacity="1" fill-rule="nonzero"/><path fill="#17ead9" d="M 273.011719 157.691406 C 269.691406 155.234375 268.988281 150.539062 271.441406 147.210938 C 273.890625 143.878906 278.574219 143.175781 281.890625 145.632812 L 305.800781 163.34375 C 304.984375 160.359375 304.191406 157.691406 303.464844 155.390625 C 303.199219 156.164062 302.941406 156.949219 302.6875 157.738281 L 283.460938 143.5 C 282.980469 143.140625 282.46875 142.84375 281.941406 142.578125 L 279.792969 133.351562 C 280.988281 131.679688 281.660156 129.640625 281.621094 127.507812 C 296.347656 128.53125 305.851562 133.171875 309.488281 135.292969 C 311.285156 136.003906 312.808594 137.40625 313.625 139.328125 C 313.890625 139.957031 320 154.511719 324.589844 178.121094 C 325.949219 180.605469 325.84375 183.757812 324.058594 186.183594 C 322.59375 188.175781 320.332031 189.226562 318.039062 189.226562 C 317.992188 189.226562 317.949219 189.21875 317.902344 189.21875 C 317.820312 189.21875 317.738281 189.230469 317.65625 189.230469 C 315.40625 189.230469 313.320312 188.195312 311.925781 186.515625 L 307.675781 183.371094 L 301.910156 179.097656 Z M 273.011719 157.691406 " fill-opacity="1" fill-rule="nonzero"/></svg>